<svg width="24" height="24" viewBox="0 0 24 24" fill="none" xmlns="http://www.w3.org/2000/svg">
<path d="M10.7305 2.06162C6.1875 2.65537 2.62109 6.22959 2.05859 10.753C1.98047 11.3858 1.98047 12.6163 2.05859 13.253C2.29297 15.1593 3.10547 17.0069 4.34375 18.4679C4.66797 18.8507 5.35938 19.5265 5.73438 19.8233C6.48828 20.4327 7.59766 21.0616 8.48828 21.3937C9.23047 21.6671 10.0664 21.8663 10.8867 21.9601C11.4062 22.0226 12.6992 22.0147 13.2383 21.9444C16.4062 21.5421 19.125 19.7218 20.7305 16.9249C21.3516 15.8429 21.7812 14.5304 21.9414 13.253C22.0195 12.6163 22.0195 11.3897 21.9414 10.753C21.582 7.83897 19.9375 5.21787 17.4492 3.59287C16.1953 2.77256 14.7539 2.24912 13.25 2.06162C12.6562 1.99131 11.293 1.99131 10.7305 2.06162ZM13.207 3.50694C15.7148 3.86241 17.9961 5.36631 19.3281 7.55381C20.5078 9.48741 20.8711 11.8272 20.3359 14.0304C20.0664 15.1358 19.5547 16.214 18.8633 17.1437C18.7305 17.3233 18.6133 17.4679 18.6016 17.4718C18.5898 17.4718 18.3984 17.253 18.1758 16.9835C17.3125 15.9405 16.6641 15.4679 15.7031 15.1905C15.1172 15.0226 14.9102 15.0108 12 15.0108C9.08594 15.0108 8.88672 15.0226 8.29297 15.1905C7.32422 15.4718 6.64453 15.9796 5.73438 17.0929C5.5625 17.2999 5.41406 17.4718 5.40234 17.4718C5.35938 17.4679 4.89453 16.8194 4.67188 16.4522C3.49219 14.5226 3.125 12.1632 3.66406 9.97569C4.04297 8.43272 4.80859 7.08116 5.94531 5.94834C7.42188 4.46787 9.24219 3.63194 11.4141 3.43272C11.7461 3.40147 12.7617 3.44444 13.207 3.50694Z" fill="#92B4DD"/>
<path d="M11.2267 5.77246C10.0353 5.9873 8.99237 6.66309 8.3244 7.65527C7.37127 9.06543 7.31659 10.9209 8.17596 12.4014C8.76581 13.4092 9.73846 14.1318 10.9416 14.4561C11.2775 14.542 11.3908 14.5537 12.0002 14.5537C12.6135 14.5537 12.7228 14.542 13.0666 14.4521C14.9533 13.9521 16.215 12.4756 16.4142 10.5498C16.6486 8.26465 15.0431 6.1709 12.7502 5.77246C12.3517 5.70215 11.6135 5.70215 11.2267 5.77246Z" fill="#CEDBEB"/>
</svg>
