<svg width="24" height="24" viewBox="0 0 24 24" fill="none" xmlns="http://www.w3.org/2000/svg">
<path d="M5.53685 2.55253C5.23734 2.69046 5.24128 2.70622 5.61961 2.88751C6.38021 3.25008 6.96348 3.86486 7.28269 4.63729C7.5428 5.25602 7.52703 4.77522 7.52703 12.9488C7.52703 20.0858 7.53097 20.3774 7.60191 20.5272C7.79108 20.941 8.27581 21.1302 8.70538 20.9568C8.79208 20.9213 9.38322 20.4444 10.0926 19.8415L11.3261 18.7853L12.5636 19.8494C13.2454 20.4326 13.8641 20.9331 13.935 20.9647C14.1045 21.0356 14.4276 21.0356 14.5971 20.9647C14.668 20.9371 15.2789 20.4366 15.9567 19.8572C16.6346 19.2779 17.206 18.8129 17.2336 18.8247C17.2612 18.8365 17.8129 19.3016 18.4632 19.8572C19.1134 20.4169 19.7164 20.9055 19.8031 20.9449C20.0041 21.0395 20.3115 21.0395 20.5125 20.9449C20.7095 20.8582 20.9105 20.6336 20.9657 20.4405C20.9972 20.3341 21.0051 18.1311 20.9972 12.7832C20.9814 4.31808 21.013 5.12991 20.6701 4.40477C20.3351 3.70329 19.7992 3.17126 19.1016 2.83628C18.3765 2.48947 19.0307 2.521 11.9409 2.50918C6.69943 2.5013 5.63538 2.50918 5.53685 2.55253ZM17.1902 6.01662C17.7302 6.3319 17.7302 7.09645 17.1902 7.41172L17.005 7.52207H14.2661H11.5271L11.3419 7.41172C10.7192 7.04915 10.8374 6.13879 11.5389 5.92598C11.598 5.90628 12.8513 5.89445 14.3252 5.8984L17.005 5.90628L17.1902 6.01662ZM16.9104 9.27579C17.5449 9.39796 17.8129 10.1073 17.407 10.596C17.1548 10.9034 17.2966 10.8916 14.2661 10.8916C11.7241 10.8916 11.5586 10.8837 11.4049 10.8167C11.0897 10.6748 10.8768 10.2847 10.936 9.94969C10.9872 9.6423 11.2828 9.33885 11.5902 9.27973C11.8424 9.2285 16.6503 9.2285 16.9104 9.27579ZM17.1272 12.7005C17.4425 12.8424 17.6553 13.2325 17.5962 13.5675C17.541 13.8906 17.2533 14.1744 16.9104 14.2414C16.6267 14.2966 11.9054 14.2966 11.6217 14.2414C10.9872 14.1192 10.7192 13.4098 11.1251 12.9212C11.3773 12.6138 11.2355 12.6256 14.2661 12.6256C16.808 12.6256 16.9735 12.6335 17.1272 12.7005Z" fill="#92B4DD"/>
<path d="M3.7633 4.05019C3.27462 4.17236 2.85688 4.51128 2.63225 4.96843L2.5022 5.23641V8.65322V12.0661L2.62043 12.2395C2.68742 12.3301 2.82141 12.4523 2.916 12.5075L3.09334 12.606L4.4845 12.6178L5.87171 12.6296L5.86383 8.93303L5.85201 5.23641L5.72195 4.96843C5.36333 4.23935 4.54755 3.85708 3.7633 4.05019Z" fill="#CEDBEB"/>
</svg>
