<svg width="24" height="24" viewBox="0 0 24 24" fill="none" xmlns="http://www.w3.org/2000/svg">
<path opacity="0.4" d="M15.668 3H18.7153C19.9774 3 21 4.03127 21 5.30397V8.37707C21 9.64977 19.9774 10.681 18.7153 10.681H15.668C14.4059 10.681 13.3833 9.64977 13.3833 8.37707V5.30397C13.3833 4.03127 14.4059 3 15.668 3Z" fill="#92B4DD"/>
<path fill-rule="evenodd" clip-rule="evenodd" d="M5.28467 3H8.33204C9.59408 3 10.6167 4.03127 10.6167 5.30397V8.37707C10.6167 9.64977 9.59408 10.681 8.33204 10.681H5.28467C4.02263 10.681 3 9.64977 3 8.37707V5.30397C3 4.03127 4.02263 3 5.28467 3ZM5.28467 13.319H8.33204C9.59408 13.319 10.6167 14.3503 10.6167 15.623V18.6961C10.6167 19.9679 9.59408 21.0001 8.33204 21.0001H5.28467C4.02263 21.0001 3 19.9679 3 18.6961V15.623C3 14.3503 4.02263 13.319 5.28467 13.319ZM18.7153 13.319H15.668C14.4059 13.319 13.3833 14.3503 13.3833 15.623V18.6961C13.3833 19.9679 14.4059 21.0001 15.668 21.0001H18.7153C19.9774 21.0001 21 19.9679 21 18.6961V15.623C21 14.3503 19.9774 13.319 18.7153 13.319Z" fill="#92B4DD"/>
</svg>
