<svg width="24" height="24" viewBox="0 0 24 24" fill="none" xmlns="http://www.w3.org/2000/svg">
<path d="M11.891 3.04065C11.7417 3.0698 11.5704 3.22283 11.5267 3.37223C11.5048 3.45239 11.4902 4.04632 11.4902 4.88073V6.25806H12.0004H12.5105V5.87547V5.49287H13.804C14.5145 5.49287 15.0975 5.48559 15.0975 5.4783C15.0975 5.47101 14.9736 5.24874 14.8242 4.98275L14.5546 4.49814L14.6894 4.25765C14.7623 4.12648 14.8825 3.9115 14.9554 3.78032L15.0902 3.54348L13.8004 3.53255L12.5105 3.52526L12.4886 3.42324C12.423 3.1536 12.1716 2.99328 11.891 3.04065Z" fill="#92B4DD"/>
<path d="M7.21958 6.87405C6.65481 6.98701 6.56371 7.75583 7.08841 8.02911C7.17221 8.07284 7.92647 8.08013 12.0001 8.08013C17.2435 8.08013 16.901 8.0947 17.1087 7.87243C17.2836 7.6866 17.3054 7.3113 17.1487 7.10361C17.1087 7.04895 17.0212 6.97243 16.952 6.93235C16.8317 6.85948 16.7589 6.85948 12.0912 6.85583C9.48598 6.85219 7.2961 6.85948 7.21958 6.87405Z" fill="#92B4DD"/>
<path d="M7.48145 14.8393V21.0154H8.46525H9.44906V19.0332C9.44906 17.747 9.46363 17.0146 9.48549 16.949C9.56201 16.7486 9.46363 16.7559 12.0033 16.7522H14.3572L14.4446 16.847L14.5321 16.9417L14.543 18.9785L14.5503 21.0154H15.5341H16.5179V14.8393V8.66315H11.9997H7.48145V14.8393ZM10.0102 10.1789C10.0576 10.2263 10.0685 10.3356 10.0685 10.8057C10.0685 11.119 10.0539 11.3996 10.0393 11.4251C10.0138 11.4579 9.85715 11.4688 9.37254 11.4615L8.73853 11.4506L8.7276 10.8312C8.72031 10.281 8.72396 10.2081 8.78226 10.168C8.82598 10.1352 9.01181 10.1206 9.39804 10.1206C9.85351 10.1206 9.96282 10.1316 10.0102 10.1789ZM12.6337 10.2008C12.681 10.2664 12.692 10.3903 12.692 10.8057C12.692 11.0972 12.6738 11.3595 12.6555 11.3996C12.6191 11.4652 12.5717 11.4688 11.9997 11.4688C11.4276 11.4688 11.3802 11.4652 11.3438 11.3996C11.3256 11.3595 11.3074 11.0972 11.3074 10.8057C11.3074 10.0806 11.2673 10.1206 11.9997 10.1206C12.5572 10.1206 12.579 10.1243 12.6337 10.2008ZM15.2171 10.168C15.2754 10.2081 15.279 10.281 15.2717 10.8312L15.2608 11.4506L14.6268 11.4615C14.1422 11.4688 13.9855 11.4579 13.96 11.4251C13.9454 11.3996 13.9308 11.119 13.9308 10.8057C13.9308 10.3356 13.9418 10.2263 13.9891 10.1789C14.0365 10.1316 14.1458 10.1206 14.6013 10.1206C14.9875 10.1206 15.1733 10.1352 15.2171 10.168ZM10.0248 13.1158C10.0867 13.1777 10.0867 14.3146 10.0248 14.3765C9.96282 14.4385 8.82598 14.4385 8.76404 14.3765C8.73489 14.3474 8.72031 14.1542 8.72031 13.7462C8.72031 13.3381 8.73489 13.1449 8.76404 13.1158C8.79319 13.0866 8.9863 13.0721 9.3944 13.0721C9.8025 13.0721 9.99562 13.0866 10.0248 13.1158ZM12.6555 13.1486C12.681 13.1959 12.692 13.4219 12.6847 13.7862C12.6774 14.2381 12.6628 14.3583 12.6191 14.3838C12.5899 14.402 12.3094 14.4202 11.9997 14.4202C11.6899 14.4202 11.4094 14.402 11.3802 14.3838C11.3365 14.3583 11.3219 14.2381 11.3146 13.7862C11.3074 13.4219 11.3183 13.1959 11.3438 13.1486C11.3802 13.0757 11.413 13.0721 11.9997 13.0721C12.5863 13.0721 12.6191 13.0757 12.6555 13.1486ZM15.2353 13.1158C15.2972 13.1777 15.2972 14.3146 15.2353 14.3765C15.1733 14.4385 14.0365 14.4385 13.9746 14.3765C13.9126 14.3146 13.9126 13.1777 13.9746 13.1158C14.0037 13.0866 14.1968 13.0721 14.6049 13.0721C15.013 13.0721 15.2061 13.0866 15.2353 13.1158Z" fill="#92B4DD"/>
<path d="M3.09109 13.1632L3 13.2506V17.0219V20.7931L3.08745 20.8952L3.1749 20.9972L5.03684 21.0081L6.89879 21.019V17.0437V13.0721H5.04049H3.17854L3.09109 13.1632ZM5.57976 14.9377C5.6417 14.9996 5.6417 16.1365 5.57976 16.1984C5.51781 16.2603 4.38097 16.2603 4.31903 16.1984C4.25708 16.1365 4.25708 14.9996 4.31903 14.9377C4.34818 14.9085 4.5413 14.8939 4.94939 14.8939C5.35749 14.8939 5.55061 14.9085 5.57976 14.9377ZM5.56154 17.8563C5.61984 17.8964 5.62348 17.9692 5.61619 18.5194L5.60526 19.1389L4.98947 19.1498C4.5668 19.1571 4.35911 19.1462 4.32632 19.117C4.28623 19.0842 4.2753 18.9421 4.2753 18.4794C4.2753 17.951 4.28259 17.8818 4.34089 17.849C4.43563 17.7907 5.48502 17.798 5.56154 17.8563Z" fill="#CEDBEB"/>
<path d="M17.1016 17.0437V21.019L18.9635 21.0081L20.8254 20.9972L20.9129 20.8952L21.0003 20.7931V17.0219V13.2506L20.9093 13.1632L20.8218 13.0721H18.9599H17.1016V17.0437ZM19.6813 14.9377C19.7433 14.9996 19.7433 16.1365 19.6813 16.1984C19.6194 16.2603 18.4825 16.2603 18.4206 16.1984C18.3586 16.1365 18.3586 14.9996 18.4206 14.9377C18.4497 14.9085 18.6429 14.8939 19.051 14.8939C19.4591 14.8939 19.6522 14.9085 19.6813 14.9377ZM19.6558 17.8454C19.7214 17.8818 19.725 17.9292 19.725 18.4794C19.725 18.9421 19.7141 19.0842 19.674 19.117C19.6412 19.1462 19.4335 19.1571 19.0109 19.1498L18.3951 19.1389L18.3842 18.5194C18.3769 17.9692 18.3805 17.8964 18.4388 17.8563C18.5153 17.798 19.5501 17.7907 19.6558 17.8454Z" fill="#CEDBEB"/>
<path d="M10.0322 19.1753V21.0154H11.9998H13.9674V19.1753V17.3352H11.9998H10.0322V19.1753Z" fill="#92B4DD"/>
</svg>
