<svg width="20" height="18" viewBox="0 0 20 18" fill="none" xmlns="http://www.w3.org/2000/svg">
<path fill-rule="evenodd" clip-rule="evenodd" d="M9.20653 0.025466C8.70425 0.112783 8.90812 -0.0755172 4.41917 4.44782C0.538729 8.35797 0.260366 8.64745 0.149404 8.88797C-0.0579811 9.33759 -0.0492651 9.80698 0.174301 10.229C0.239729 10.3525 1.3012 11.4465 3.54065 13.6986C7.15269 17.3311 6.94406 17.1471 7.49832 17.1877C7.81737 17.2111 8.13842 17.1238 8.41264 16.9391C8.52082 16.8663 10.4576 14.9405 12.7165 12.6596C16.5919 8.74658 16.8301 8.49806 16.9377 8.25651L17.0517 8.00051V4.5937C17.0517 0.778075 17.0672 0.996859 16.7671 0.596116C16.6127 0.390014 16.2926 0.148465 16.0568 0.0602036C15.9468 0.0190068 15.244 0.00675807 12.6546 0.000850314C10.8596 -0.00324573 9.30799 0.00786085 9.20653 0.025466ZM13.4796 3.06513C13.6926 3.15528 13.9028 3.36351 14.0279 3.6084C14.097 3.74353 14.1181 3.84987 14.1181 4.062C14.1181 5.24147 12.5118 5.57825 12.0262 4.50063C11.9273 4.2811 11.9267 3.84428 12.025 3.6262C12.2838 3.05181 12.8929 2.81688 13.4796 3.06513Z" fill="#92B4DD"/>
<path opacity="0.4" fill-rule="evenodd" clip-rule="evenodd" d="M18.5173 5.03956C18.5173 8.57503 18.5166 8.61001 18.4346 8.83584C18.3555 9.05384 18.1697 9.24765 14.1914 13.2613L10.031 17.4589L10.1884 17.6022C10.6387 18.0121 11.2656 18.1137 11.8232 17.867C11.9755 17.7996 12.7163 17.0732 15.872 13.8968C18.593 11.1579 19.7611 9.95666 19.8247 9.83181C20.0058 9.47636 20.0083 9.4191 19.9953 5.913L19.983 2.60465L19.862 2.34865C19.7955 2.20785 19.6636 2.01459 19.5689 1.91916C19.3631 1.71179 18.9946 1.52818 18.718 1.49518L18.5173 1.47119V5.03956Z" fill="#92B4DD"/>
</svg>
