<svg width="24" height="24" viewBox="0 0 24 24" fill="none" xmlns="http://www.w3.org/2000/svg">
<path opacity="0.4" fill-rule="evenodd" clip-rule="evenodd" d="M17.5509 3.07652C17.4673 3.11984 17.3436 3.23132 17.2761 3.32427L17.1533 3.49327L17.1398 4.78379L17.1262 6.07437L13.6961 6.08727C10.3129 6.10002 10.2643 6.10156 10.1396 6.19947C10.07 6.25405 9.97062 6.3585 9.91867 6.43162C9.82715 6.56038 9.82422 6.62141 9.82422 8.38659C9.82422 10.1518 9.82715 10.2128 9.91867 10.3416C9.97062 10.4147 10.07 10.5191 10.1396 10.5737C10.2643 10.6716 10.3129 10.6732 13.6983 10.6859L17.1304 10.6988V11.9269C17.1304 13.2779 17.1457 13.3722 17.4004 13.5975C17.5687 13.7462 17.7918 13.8019 18.0351 13.7558C18.1865 13.7272 18.4885 13.4274 20.5745 11.2355C22.6604 9.04353 22.9457 8.72613 22.973 8.56709C23.0494 8.12113 23.1354 8.2302 20.6213 5.5833C19.3455 4.24007 18.236 3.10834 18.1557 3.06829C17.9674 2.97443 17.7422 2.97746 17.5509 3.07652Z" fill="#92B4DD"/>
<path fill-rule="evenodd" clip-rule="evenodd" d="M5.839 10.4626C5.76342 10.5001 4.65686 11.6322 3.38004 12.9784C0.863584 15.6316 0.950343 15.5214 1.0273 15.9676C1.05469 16.1264 1.3403 16.4448 3.40235 18.6151C5.08868 20.3899 5.78967 21.0971 5.90103 21.1357C6.23922 21.2529 6.64017 21.0702 6.79449 20.7284C6.85807 20.5876 6.86966 20.3723 6.86966 19.3306V18.0994L10.3018 18.0865C13.6872 18.0737 13.7358 18.0722 13.8605 17.9743C13.9301 17.9197 14.0295 17.8152 14.0814 17.7421C14.1729 17.6133 14.1759 17.5523 14.1759 15.7871C14.1759 14.022 14.1729 13.9609 14.0814 13.8322C14.0295 13.759 13.9301 13.6546 13.8605 13.6C13.7358 13.5021 13.6872 13.5006 10.3018 13.4878L6.86966 13.4749V12.2436C6.86966 10.8707 6.85464 10.7879 6.56353 10.5546C6.37577 10.4041 6.04252 10.3618 5.839 10.4626Z" fill="#92B4DD"/>
</svg>
