<svg width="25" height="24" viewBox="0 0 25 24" fill="none" xmlns="http://www.w3.org/2000/svg">
<path fill-rule="evenodd" clip-rule="evenodd" d="M2.90053 15.0385L2.91318 19.2817L3.03382 19.5918C3.37286 20.4633 3.98539 21.0758 4.85687 21.4148L5.16698 21.5355H12.6413H20.1157L20.4376 21.4334C21.3203 21.1537 22.053 20.4298 22.3592 19.5346L22.4615 19.2357L22.4739 15.0155L22.4863 10.7954H12.6871H2.88788L2.90053 15.0385Z" fill="#92B4DD"/>
<path opacity="0.4" fill-rule="evenodd" clip-rule="evenodd" d="M7.38141 2.04066C7.16739 2.15326 6.98699 2.3377 6.89367 2.5393C6.81846 2.70176 6.80834 2.85051 6.80747 3.81123L6.80646 4.89917L5.99003 4.91812C5.25221 4.93528 5.14375 4.94843 4.8635 5.05473C3.99905 5.38268 3.37139 6.01034 3.04344 6.87479C2.93714 7.15504 2.92399 7.2635 2.90683 8.00132L2.88788 8.81775H12.6939H22.5L22.4811 8.00132C22.4639 7.2635 22.4507 7.15504 22.3444 6.87479C22.0149 6.00616 21.393 5.38429 20.5244 5.05473C20.2441 4.94843 20.1357 4.93528 19.3978 4.91812L18.5814 4.89917V3.82126C18.5814 2.95083 18.5677 2.71041 18.51 2.57233C18.357 2.20597 18.0016 1.96436 17.6159 1.96436C17.21 1.96436 16.9164 2.13877 16.7256 2.49331C16.6334 2.66464 16.6256 2.75383 16.6122 3.79269L16.5977 4.9081H12.6939H8.79022L8.77573 3.79269C8.7623 2.75383 8.75448 2.66464 8.66226 2.49331C8.53797 2.26236 8.39369 2.12663 8.17567 2.03556C7.95787 1.94453 7.55918 1.94711 7.38141 2.04066Z" fill="#92B4DD"/>
</svg>
