<svg width="295" height="213" viewBox="0 0 295 213" fill="none" xmlns="http://www.w3.org/2000/svg">
    <g clip-path="url(#clip0_1548_10985)">
        <path d="M2.70283 50.9995H0V56.2011H2.70283V50.9995Z" fill="#D4E1F1" />
        <path d="M1.54914 44.6418H1.1499V51.0034H1.54914V44.6418Z" fill="#D4E1F1" />
        <path d="M1.54914 56.2051H1.1499V62.5666H1.54914V56.2051Z" fill="#D4E1F1" />
        <path d="M9.8332 51.5295H7.13037V64.9661H9.8332V51.5295Z" fill="#D4E1F1" />
        <path d="M8.67951 45.168H8.28027V51.5295H8.67951V45.168Z" fill="#D4E1F1" />
        <path d="M8.67951 64.9661H8.28027V71.3276H8.67951V64.9661Z" fill="#D4E1F1" />
        <path d="M17.4025 49.9673H14.6997V53.8655H17.4025V49.9673Z" fill="#D4E1F1" />
        <path d="M16.2528 43.6096H15.8535V49.9712H16.2528V43.6096Z" fill="#D4E1F1" />
        <path d="M16.2528 53.8655H15.8535V60.227H16.2528V53.8655Z" fill="#D4E1F1" />
        <path d="M24.09 55.4797H21.3872V73.0138H24.09V55.4797Z" fill="#D4E1F1" />
        <path d="M22.9363 49.1182H22.5371V55.4797H22.9363V49.1182Z" fill="#D4E1F1" />
        <path d="M22.9363 73.0137H22.5371V79.3752H22.9363V73.0137Z" fill="#D4E1F1" />
        <path d="M31.2204 62.5667H28.5176V69.1315H31.2204V62.5667Z" fill="#D4E1F1" />
        <path d="M30.0667 56.2051H29.6675V62.5666H30.0667V56.2051Z" fill="#D4E1F1" />
        <path d="M30.0667 69.1274H29.6675V75.489H30.0667V69.1274Z" fill="#D4E1F1" />
        <path d="M38.6901 54.6785H35.9873V67.1345H38.6901V54.6785Z" fill="#D4E1F1" />
        <path d="M37.5404 48.3169H37.1411V54.6784H37.5404V48.3169Z" fill="#D4E1F1" />
        <path d="M37.5404 67.1384H37.1411V73.5H37.5404V67.1384Z" fill="#D4E1F1" />
        <path d="M45.4772 35.2153H42.7744V50.8481H45.4772V35.2153Z" fill="#D4E1F1" />
        <path d="M44.3275 28.8538H43.9282V35.2153H44.3275V28.8538Z" fill="#D4E1F1" />
        <path d="M44.3275 50.8481H43.9282V57.2097H44.3275V50.8481Z" fill="#D4E1F1" />
        <path d="M52.6076 40.6919H49.9048V44.5782H52.6076V40.6919Z" fill="#D4E1F1" />
        <path d="M51.4539 34.3303H51.0547V40.6919H51.4539V34.3303Z" fill="#D4E1F1" />
        <path d="M51.4539 44.5781H51.0547V50.9397H51.4539V44.5781Z" fill="#D4E1F1" />
        <path d="M59.738 34.3303H57.0352V50.007H59.738V34.3303Z" fill="#D4E1F1" />
        <path d="M58.5843 27.9688H58.1851V34.3303H58.5843V27.9688Z" fill="#D4E1F1" />
        <path d="M58.5843 50.0068H58.1851V56.3684H58.5843V50.0068Z" fill="#D4E1F1" />
        <path d="M66.864 32.3733H64.1611V46.8262H66.864V32.3733Z" fill="#D4E1F1" />
        <path d="M65.7142 26.0117H65.3149V32.3733H65.7142V26.0117Z" fill="#D4E1F1" />
        <path d="M65.7142 46.8262H65.3149V53.1877H65.7142V46.8262Z" fill="#D4E1F1" />
        <path d="M73.9943 24.3616H71.2915V28.3754H73.9943V24.3616Z" fill="#D4E1F1" />
        <path d="M72.8406 18H72.4414V24.3615H72.8406V18Z" fill="#D4E1F1" />
        <path d="M72.8406 28.3752H72.4414V34.7368H72.8406V28.3752Z" fill="#D4E1F1" />
        <path d="M81.1247 44.8293H78.4219V54.1046H81.1247V44.8293Z" fill="#D4E1F1" />
        <path d="M79.971 38.4678H79.5718V44.8293H79.971V38.4678Z" fill="#D4E1F1" />
        <path d="M79.971 54.1045H79.5718V60.466H79.971V54.1045Z" fill="#D4E1F1" />
        <path d="M88.2551 41.4292H85.5522V45.168H88.2551V41.4292Z" fill="#D4E1F1" />
        <path d="M87.1014 35.0676H86.7021V41.4292H87.1014V35.0676Z" fill="#D4E1F1" />
        <path d="M87.1014 45.168H86.7021V51.5295H87.1014V45.168Z" fill="#D4E1F1" />
        <path d="M95.3815 69.0518H92.6787V82.8989H95.3815V69.0518Z" fill="#D4E1F1" />
        <path d="M94.2318 62.6902H93.8325V69.0517H94.2318V62.6902Z" fill="#D4E1F1" />
        <path d="M94.2318 82.8989H93.8325V89.2605H94.2318V82.8989Z" fill="#D4E1F1" />
        <path d="M102.512 67.4255H99.8091V70.5067H102.512V67.4255Z" fill="#D4E1F1" />
        <path d="M101.358 61.064H100.959V67.4255H101.358V61.064Z" fill="#D4E1F1" />
        <path d="M101.358 70.5066H100.959V76.8681H101.358V70.5066Z" fill="#D4E1F1" />
        <path d="M109.642 59.8801H106.939V64.6592H109.642V59.8801Z" fill="#D4E1F1" />
        <path d="M108.489 53.5186H108.089V59.8801H108.489V53.5186Z" fill="#D4E1F1" />
        <path d="M108.489 64.6592H108.089V71.0207H108.489V64.6592Z" fill="#D4E1F1" />
        <path d="M116.769 66.2256H114.066V71.0167H116.769V66.2256Z" fill="#D4E1F1" />
        <path d="M115.619 59.8682H115.22V66.2297H115.619V59.8682Z" fill="#D4E1F1" />
        <path d="M115.619 71.0168H115.22V77.3784H115.619V71.0168Z" fill="#D4E1F1" />
        <path d="M123.859 67.2661H121.156V81.1132H123.859V67.2661Z" fill="#D4E1F1" />
        <path d="M122.705 60.9045H122.306V67.2661H122.705V60.9045Z" fill="#D4E1F1" />
        <path d="M122.705 81.1133H122.306V87.4748H122.705V81.1133Z" fill="#D4E1F1" />
        <path d="M131.03 79.9932H128.327V86.0876H131.03V79.9932Z" fill="#D4E1F1" />
        <path d="M129.876 73.6316H129.477V79.9931H129.876V73.6316Z" fill="#D4E1F1" />
        <path d="M129.876 86.0876H129.477V92.4492H129.876V86.0876Z" fill="#D4E1F1" />
        <path d="M138.16 87.5264H135.457V92.7519H138.16V87.5264Z" fill="#D4E1F1" />
        <path d="M137.006 81.1648H136.607V87.5263H137.006V81.1648Z" fill="#D4E1F1" />
        <path d="M137.006 92.752H136.607V99.1135H137.006V92.752Z" fill="#D4E1F1" />
        <path d="M145.286 79.3235H142.583V102.378H145.286V79.3235Z" fill="#D4E1F1" />
        <path d="M144.137 72.9658H143.737V79.3274H144.137V72.9658Z" fill="#D4E1F1" />
        <path d="M144.137 102.382H143.737V108.743H144.137V102.382Z" fill="#D4E1F1" />
        <path d="M152.56 96.3672H149.857V105.642H152.56V96.3672Z" fill="#D4E1F1" />
        <path d="M151.41 90.0056H151.011V96.3671H151.41V90.0056Z" fill="#D4E1F1" />
        <path d="M151.41 105.638H151.011V112H151.41V105.638Z" fill="#D4E1F1" />
        <path d="M159.547 83.6204H156.844V97.3279H159.547V83.6204Z" fill="#D4E1F1" />
        <path d="M158.393 77.2588H157.994V83.6203H158.393V77.2588Z" fill="#D4E1F1" />
        <path d="M158.393 97.3279H157.994V103.689H158.393V97.3279Z" fill="#D4E1F1" />
        <path d="M166.674 78.6418H163.971V96.2038H166.674V78.6418Z" fill="#D4E1F1" />
        <path d="M165.524 72.2842H165.125V78.6457H165.524V72.2842Z" fill="#D4E1F1" />
        <path d="M165.524 96.2036H165.125V102.565H165.524V96.2036Z" fill="#D4E1F1" />
        <path d="M173.843 76.0352H171.141V80.9817H173.843V76.0352Z" fill="#D4E1F1" />
        <path d="M172.69 69.6736H172.291V76.0351H172.69V69.6736Z" fill="#D4E1F1" />
        <path d="M172.69 80.9817H172.291V87.3432H172.69V80.9817Z" fill="#D4E1F1" />
        <path d="M180.934 74.7117H178.231V89.9578H180.934V74.7117Z" fill="#D4E1F1" />
        <path d="M179.781 68.3542H179.381V74.7158H179.781V68.3542Z" fill="#D4E1F1" />
        <path d="M179.781 89.9619H179.381V96.3234H179.781V89.9619Z" fill="#D4E1F1" />
        <path d="M188.065 62.8933H185.362V77.7369H188.065V62.8933Z" fill="#D4E1F1" />
        <path d="M186.911 56.5359H186.512V62.8974H186.911V56.5359Z" fill="#D4E1F1" />
        <path d="M186.911 77.7371H186.512V84.0986H186.911V77.7371Z" fill="#D4E1F1" />
        <path d="M195.191 73.2927H192.488V78.4665H195.191V73.2927Z" fill="#D4E1F1" />
        <path d="M194.041 66.9351H193.642V73.2966H194.041V66.9351Z" fill="#D4E1F1" />
        <path d="M194.041 78.4663H193.642V84.8278H194.041V78.4663Z" fill="#D4E1F1" />
        <path d="M202.321 78.2354H199.618V82.6478H202.321V78.2354Z" fill="#D4E1F1" />
        <path d="M201.167 71.8738H200.768V78.2353H201.167V71.8738Z" fill="#D4E1F1" />
        <path d="M201.167 82.6477H200.768V89.0092H201.167V82.6477Z" fill="#D4E1F1" />
        <path d="M209.451 61.6499H206.749V83.7758H209.451V61.6499Z" fill="#D4E1F1" />
        <path d="M208.298 55.2883H207.898V61.6499H208.298V55.2883Z" fill="#D4E1F1" />
        <path d="M208.298 83.7756H207.898V90.1372H208.298V83.7756Z" fill="#D4E1F1" />
        <path d="M216.79 72.7666H214.087V76.6569H216.79V72.7666Z" fill="#D4E1F1" />
        <path d="M215.636 66.405H215.237V72.7666H215.636V66.405Z" fill="#D4E1F1" />
        <path d="M215.636 76.6567H215.237V83.0183H215.636V76.6567Z" fill="#D4E1F1" />
        <path d="M223.728 67.1345H221.025V71.0288H223.728V67.1345Z" fill="#D4E1F1" />
        <path d="M222.575 60.7729H222.175V67.1345H222.575V60.7729Z" fill="#D4E1F1" />
        <path d="M222.575 71.0247H222.175V77.3862H222.575V71.0247Z" fill="#D4E1F1" />
        <path d="M230.839 52.2988H228.136V75.9752H230.839V52.2988Z" fill="#D4E1F1" />
        <path d="M229.685 45.9373H229.286V52.2988H229.685V45.9373Z" fill="#D4E1F1" />
        <path d="M229.685 75.9751H229.286V82.3366H229.685V75.9751Z" fill="#D4E1F1" />
        <path d="M237.969 63.1924H235.266V69.4662H237.969V63.1924Z" fill="#D4E1F1" />
        <path d="M236.815 56.8308H236.416V63.1923H236.815V56.8308Z" fill="#D4E1F1" />
        <path d="M236.815 69.4661H236.416V75.8276H236.815V69.4661Z" fill="#D4E1F1" />
        <path d="M245.095 71.0845H242.393V78.2033H245.095V71.0845Z" fill="#D4E1F1" />
        <path d="M243.946 64.7229H243.546V71.0844H243.946V64.7229Z" fill="#D4E1F1" />
        <path d="M243.946 78.2034H243.546V84.5649H243.946V78.2034Z" fill="#D4E1F1" />
        <path d="M252.238 68.6213H249.535V89.3003H252.238V68.6213Z" fill="#D4E1F1" />
        <path d="M251.084 62.2598H250.685V68.6213H251.084V62.2598Z" fill="#D4E1F1" />
        <path d="M251.084 89.3003H250.685V95.6618H251.084V89.3003Z" fill="#D4E1F1" />
        <path d="M259.356 54.6267H256.653V59.7127H259.356V54.6267Z" fill="#D4E1F1" />
        <path d="M258.202 48.2651H257.803V54.6267H258.202V48.2651Z" fill="#D4E1F1" />
        <path d="M258.202 59.7126H257.803V66.0742H258.202V59.7126Z" fill="#D4E1F1" />
        <path d="M266.483 49.6123H263.78V59.8362H266.483V49.6123Z" fill="#D4E1F1" />
        <path d="M265.333 43.2507H264.934V49.6123H265.333V43.2507Z" fill="#D4E1F1" />
        <path d="M265.333 59.8362H264.934V66.1977H265.333V59.8362Z" fill="#D4E1F1" />
        <path d="M273.613 43.9802H270.91V48.7793H273.613V43.9802Z" fill="#D4E1F1" />
        <path d="M272.459 37.6187H272.06V43.9802H272.459V37.6187Z" fill="#D4E1F1" />
        <path d="M272.459 48.7793H272.06V55.1408H272.459V48.7793Z" fill="#D4E1F1" />
        <path d="M280.743 45.7063H278.041V51.0395H280.743V45.7063Z" fill="#D4E1F1" />
        <path d="M279.59 39.3447H279.19V45.7063H279.59V39.3447Z" fill="#D4E1F1" />
        <path d="M279.59 51.0393H279.19V57.4008H279.59V51.0393Z" fill="#D4E1F1" />
        <path d="M287.874 26.5818H285.171V45.8258H287.874V26.5818Z" fill="#D4E1F1" />
        <path d="M286.72 20.2241H286.321V26.5857H286.72V20.2241Z" fill="#D4E1F1" />
        <path d="M286.72 45.8257H286.321V52.1872H286.72V45.8257Z" fill="#D4E1F1" />
        <path d="M295 36.5544H292.297V55.0172H295V36.5544Z" fill="#D4E1F1" />
        <path d="M293.85 30.1929H293.451V36.5544H293.85V30.1929Z" fill="#D4E1F1" />
        <path d="M293.85 55.0171H293.451V61.3786H293.85V55.0171Z" fill="#D4E1F1" />
    </g>
    <g opacity="0.44" clip-path="url(#clip1_1548_10985)">
        <path
            d="M0.196289 50.2363L14.6713 36.2365L39.3083 75.0821L59.6245 58.2703L103.234 116.915L130.161 96.6586L167.023 38.2211L199.889 13.0054L234.33 28.5286L267.067 2.22314L294.803 30.4098V181H0.196289V50.2363Z"
            fill="url(#paint0_linear_1548_10985)" />
        <path
            d="M14.6712 37.3582C15.283 37.3582 15.7789 36.856 15.7789 36.2366C15.7789 35.6171 15.283 35.115 14.6712 35.115C14.0594 35.115 13.5635 35.6171 13.5635 36.2366C13.5635 36.856 14.0594 37.3582 14.6712 37.3582Z"
            fill="#D4E1F1" />
        <path
            d="M14.6713 38.4478C13.4654 38.4478 12.4873 37.4535 12.4873 36.2365C12.4873 35.0195 13.4693 34.0251 14.6713 34.0251C15.8733 34.0251 16.8553 35.0195 16.8553 36.2365C16.8553 37.4535 15.8733 38.4478 14.6713 38.4478ZM14.6713 34.3553C13.65 34.3553 12.8173 35.1984 12.8173 36.2325C12.8173 37.2666 13.65 38.1098 14.6713 38.1098C15.6926 38.1098 16.5254 37.2666 16.5254 36.2325C16.5254 35.1984 15.6926 34.3553 14.6713 34.3553Z"
            fill="#D4E1F1" />
        <path
            d="M40.4161 75.0823C40.4161 75.7027 39.9212 76.2039 39.3084 76.2039C38.6956 76.2039 38.2007 75.7027 38.2007 75.0823C38.2007 74.4618 38.6956 73.9607 39.3084 73.9607C39.9212 73.9607 40.4161 74.4618 40.4161 75.0823Z"
            fill="#D4E1F1" />
        <path
            d="M39.3085 77.2935C38.1026 77.2935 37.1245 76.2992 37.1245 75.0822C37.1245 73.8652 38.1065 72.8708 39.3085 72.8708C40.5105 72.8708 41.4926 73.8652 41.4926 75.0822C41.4926 76.2992 40.5105 77.2935 39.3085 77.2935ZM39.3085 73.201C38.2872 73.201 37.4545 74.0441 37.4545 75.0782C37.4545 76.1123 38.2872 76.9555 39.3085 76.9555C40.3298 76.9555 41.1626 76.1123 41.1626 75.0782C41.1626 74.0441 40.3298 73.201 39.3085 73.201Z"
            fill="#D4E1F1" />
        <path
            d="M59.6243 59.3921C60.2361 59.3921 60.732 58.8899 60.732 58.2705C60.732 57.6511 60.2361 57.1489 59.6243 57.1489C59.0125 57.1489 58.5166 57.6511 58.5166 58.2705C58.5166 58.8899 59.0125 59.3921 59.6243 59.3921Z"
            fill="#D4E1F1" />
        <path
            d="M59.6245 60.4818C58.4185 60.4818 57.4404 59.4875 57.4404 58.2704C57.4404 57.0534 58.4225 56.0591 59.6245 56.0591C60.8264 56.0591 61.8085 57.0534 61.8085 58.2704C61.8085 59.4875 60.8264 60.4818 59.6245 60.4818ZM59.6245 56.3892C58.6031 56.3892 57.7704 57.2324 57.7704 58.2664C57.7704 59.3005 58.6031 60.1437 59.6245 60.1437C60.6458 60.1437 61.4785 59.3005 61.4785 58.2664C61.4785 57.2324 60.6458 56.3892 59.6245 56.3892Z"
            fill="#D4E1F1" />
        <path
            d="M103.234 118.032C103.846 118.032 104.342 117.53 104.342 116.911C104.342 116.291 103.846 115.789 103.234 115.789C102.622 115.789 102.126 116.291 102.126 116.911C102.126 117.53 102.622 118.032 103.234 118.032Z"
            fill="#D4E1F1" />
        <path
            d="M103.234 119.122C102.028 119.122 101.05 118.128 101.05 116.911C101.05 115.694 102.032 114.699 103.234 114.699C104.436 114.699 105.418 115.694 105.418 116.911C105.418 118.128 104.436 119.122 103.234 119.122ZM103.234 115.03C102.213 115.03 101.38 115.873 101.38 116.907C101.38 117.941 102.213 118.784 103.234 118.784C104.256 118.784 105.088 117.941 105.088 116.907C105.088 115.873 104.256 115.03 103.234 115.03Z"
            fill="#D4E1F1" />
        <path
            d="M130.161 97.7605C130.773 97.7605 131.269 97.2583 131.269 96.6389C131.269 96.0195 130.773 95.5173 130.161 95.5173C129.549 95.5173 129.053 96.0195 129.053 96.6389C129.053 97.2583 129.549 97.7605 130.161 97.7605Z"
            fill="#D4E1F1" />
        <path
            d="M130.161 98.8502C128.955 98.8502 127.977 97.8559 127.977 96.6388C127.977 95.4218 128.959 94.4275 130.161 94.4275C131.363 94.4275 132.345 95.4218 132.345 96.6388C132.345 97.8559 131.363 98.8502 130.161 98.8502ZM130.161 94.7576C129.14 94.7576 128.307 95.6008 128.307 96.6349C128.307 97.6689 129.14 98.5121 130.161 98.5121C131.182 98.5121 132.015 97.6689 132.015 96.6349C132.015 95.6008 131.182 94.7576 130.161 94.7576Z"
            fill="#D4E1F1" />
        <path
            d="M167.026 39.3386C167.638 39.3386 168.134 38.8365 168.134 38.217C168.134 37.5976 167.638 37.0955 167.026 37.0955C166.414 37.0955 165.918 37.5976 165.918 38.217C165.918 38.8365 166.414 39.3386 167.026 39.3386Z"
            fill="#D4E1F1" />
        <path
            d="M167.026 40.4325C165.82 40.4325 164.842 39.4381 164.842 38.2211C164.842 37.0041 165.824 36.0098 167.026 36.0098C168.228 36.0098 169.21 37.0041 169.21 38.2211C169.21 39.4381 168.228 40.4325 167.026 40.4325ZM167.026 36.3399C166.005 36.3399 165.172 37.183 165.172 38.2171C165.172 39.2512 166.005 40.0944 167.026 40.0944C168.048 40.0944 168.88 39.2512 168.88 38.2171C168.88 37.183 168.048 36.3399 167.026 36.3399Z"
            fill="#D4E1F1" />
        <path
            d="M199.881 14.1272C200.493 14.1272 200.989 13.625 200.989 13.0056C200.989 12.3862 200.493 11.884 199.881 11.884C199.269 11.884 198.773 12.3862 198.773 13.0056C198.773 13.625 199.269 14.1272 199.881 14.1272Z"
            fill="#D4E1F1" />
        <path
            d="M199.881 15.2169C198.675 15.2169 197.697 14.2226 197.697 13.0055C197.697 11.7885 198.679 10.7942 199.881 10.7942C201.083 10.7942 202.065 11.7885 202.065 13.0055C202.065 14.2226 201.083 15.2169 199.881 15.2169ZM199.881 11.1243C198.86 11.1243 198.027 11.9675 198.027 13.0016C198.027 14.0356 198.86 14.8788 199.881 14.8788C200.903 14.8788 201.735 14.0356 201.735 13.0016C201.735 11.9675 200.903 11.1243 199.881 11.1243Z"
            fill="#D4E1F1" />
        <path
            d="M235.43 28.5327C235.43 29.1532 234.935 29.6543 234.323 29.6543C233.71 29.6543 233.215 29.1532 233.215 28.5327C233.215 27.9123 233.71 27.4111 234.323 27.4111C234.935 27.4111 235.43 27.9123 235.43 28.5327Z"
            fill="#D4E1F1" />
        <path
            d="M234.323 30.744C233.117 30.744 232.139 29.7497 232.139 28.5326C232.139 27.3156 233.121 26.3213 234.323 26.3213C235.525 26.3213 236.507 27.3156 236.507 28.5326C236.507 29.7497 235.525 30.744 234.323 30.744ZM234.323 26.6514C233.301 26.6514 232.469 27.4946 232.469 28.5287C232.469 29.5627 233.301 30.4059 234.323 30.4059C235.344 30.4059 236.177 29.5627 236.177 28.5287C236.177 27.4946 235.344 26.6514 234.323 26.6514Z"
            fill="#D4E1F1" />
        <path
            d="M267.075 3.33276C267.687 3.33276 268.183 2.83061 268.183 2.21118C268.183 1.59175 267.687 1.0896 267.075 1.0896C266.463 1.0896 265.967 1.59175 265.967 2.21118C265.967 2.83061 266.463 3.33276 267.075 3.33276Z"
            fill="#D4E1F1" />
        <path
            d="M267.075 4.42659C265.869 4.42659 264.891 3.43228 264.891 2.21525C264.891 0.998215 265.873 0.00390625 267.075 0.00390625C268.277 0.00390625 269.259 0.998215 269.259 2.21525C269.259 3.43228 268.277 4.42659 267.075 4.42659ZM267.075 0.334017C266.054 0.334017 265.221 1.17719 265.221 2.21127C265.221 3.24535 266.054 4.08853 267.075 4.08853C268.096 4.08853 268.929 3.24535 268.929 2.21127C268.929 1.17719 268.096 0.334017 267.075 0.334017Z"
            fill="#D4E1F1" />
        <path
            d="M0.196289 50.2363L14.6713 36.2365L39.3083 75.0821L59.6245 58.2703L103.234 116.915L130.161 96.6586L167.023 38.2211L199.889 13.0054L234.33 28.5286L267.067 2.22314L294.803 30.4098"
            stroke="#D4E1F1" stroke-linecap="round" stroke-linejoin="round" />
    </g>
    <defs>
        <linearGradient id="paint0_linear_1548_10985" x1="125.829" y1="9.25092" x2="167.308"
            y2="189.324" gradientUnits="userSpaceOnUse">
            <stop offset="0.13" stop-color="#B7D4FB" stop-opacity="0.3" />
            <stop offset="0.17" stop-color="#BFD8FB" stop-opacity="0.27" />
            <stop offset="0.3" stop-color="#DAE9FC" stop-opacity="0.15" />
            <stop offset="0.43" stop-color="#EEF5FE" stop-opacity="0.07" />
            <stop offset="0.56" stop-color="#FAFCFE" stop-opacity="0.02" />
            <stop offset="0.68" stop-color="white" stop-opacity="0" />
        </linearGradient>
        <clipPath id="clip0_1548_10985">
            <rect width="295" height="94" fill="white" transform="translate(0 18)" />
        </clipPath>
        <clipPath id="clip1_1548_10985">
            <rect width="295" height="181" fill="white" />
        </clipPath>
    </defs>
</svg>