<svg width="161" height="99" viewBox="0 0 161 99" fill="none" xmlns="http://www.w3.org/2000/svg">
<g opacity="0.5">
<circle cx="9.99177" cy="1.69672" r="1.69672" fill="#BFDBFE"/>
<circle cx="23.5656" cy="1.69672" r="1.69672" fill="#BFDBFE"/>
<circle cx="37.1393" cy="1.69672" r="1.69672" fill="#BFDBFE"/>
<circle cx="50.7131" cy="1.69672" r="1.69672" fill="#BFDBFE"/>
<circle cx="64.2869" cy="1.69672" r="1.69672" fill="#BFDBFE"/>
<circle cx="77.8607" cy="1.69672" r="1.69672" fill="#BFDBFE"/>
<circle cx="91.4344" cy="1.69672" r="1.69672" fill="#BFDBFE"/>
<circle cx="105.008" cy="1.69672" r="1.69672" fill="#BFDBFE"/>
<circle cx="118.582" cy="1.69672" r="1.69672" fill="#BFDBFE"/>
<circle cx="132.156" cy="1.69672" r="1.69672" fill="#BFDBFE"/>
<circle cx="145.73" cy="1.69672" r="1.69672" fill="#BFDBFE"/>
<circle cx="159.303" cy="1.69672" r="1.69672" fill="#BFDBFE"/>
<circle cx="9.99177" cy="15.2705" r="1.69672" fill="#BFDBFE"/>
<circle cx="23.5656" cy="15.2705" r="1.69672" fill="#BFDBFE"/>
<circle cx="37.1393" cy="15.2705" r="1.69672" fill="#BFDBFE"/>
<circle cx="50.7131" cy="15.2705" r="1.69672" fill="#BFDBFE"/>
<circle cx="64.2869" cy="15.2705" r="1.69672" fill="#BFDBFE"/>
<circle cx="77.8607" cy="15.2705" r="1.69672" fill="#BFDBFE"/>
<circle cx="91.4344" cy="15.2705" r="1.69672" fill="#BFDBFE"/>
<circle cx="105.008" cy="15.2705" r="1.69672" fill="#BFDBFE"/>
<circle cx="118.582" cy="15.2705" r="1.69672" fill="#BFDBFE"/>
<circle cx="132.156" cy="15.2705" r="1.69672" fill="#BFDBFE"/>
<circle cx="145.73" cy="15.2705" r="1.69672" fill="#BFDBFE"/>
<circle cx="159.303" cy="15.2705" r="1.69672" fill="#BFDBFE"/>
<circle cx="9.99177" cy="28.8442" r="1.69672" fill="#BFDBFE"/>
<circle cx="23.5656" cy="28.8442" r="1.69672" fill="#BFDBFE"/>
<circle cx="37.1393" cy="28.8442" r="1.69672" fill="#BFDBFE"/>
<circle cx="50.7131" cy="28.8442" r="1.69672" fill="#BFDBFE"/>
<circle cx="64.2869" cy="28.8442" r="1.69672" fill="#BFDBFE"/>
<circle cx="77.8607" cy="28.8442" r="1.69672" fill="#BFDBFE"/>
<circle cx="91.4344" cy="28.8442" r="1.69672" fill="#BFDBFE"/>
<circle cx="105.008" cy="28.8442" r="1.69672" fill="#BFDBFE"/>
<circle cx="118.582" cy="28.8442" r="1.69672" fill="#BFDBFE"/>
<circle cx="132.156" cy="28.8442" r="1.69672" fill="#BFDBFE"/>
<circle cx="145.73" cy="28.8442" r="1.69672" fill="#BFDBFE"/>
<circle cx="159.303" cy="28.8442" r="1.69672" fill="#BFDBFE"/>
<circle cx="9.99177" cy="42.4179" r="1.69672" fill="#BFDBFE"/>
<circle cx="23.5656" cy="42.4179" r="1.69672" fill="#BFDBFE"/>
<circle cx="37.1393" cy="42.4179" r="1.69672" fill="#BFDBFE"/>
<circle cx="50.7131" cy="42.4179" r="1.69672" fill="#BFDBFE"/>
<circle cx="64.2869" cy="42.4179" r="1.69672" fill="#BFDBFE"/>
<circle cx="77.8607" cy="42.4179" r="1.69672" fill="#BFDBFE"/>
<circle cx="91.4344" cy="42.4179" r="1.69672" fill="#BFDBFE"/>
<circle cx="105.008" cy="42.4179" r="1.69672" fill="#BFDBFE"/>
<circle cx="118.582" cy="42.4179" r="1.69672" fill="#BFDBFE"/>
<circle cx="132.156" cy="42.4179" r="1.69672" fill="#BFDBFE"/>
<circle cx="145.73" cy="42.4179" r="1.69672" fill="#BFDBFE"/>
<circle cx="159.303" cy="42.4179" r="1.69672" fill="#BFDBFE"/>
<circle cx="9.99177" cy="55.9919" r="1.69672" fill="#BFDBFE"/>
<circle cx="23.5656" cy="55.9919" r="1.69672" fill="#BFDBFE"/>
<circle cx="37.1393" cy="55.9919" r="1.69672" fill="#BFDBFE"/>
<circle cx="50.7131" cy="55.9919" r="1.69672" fill="#BFDBFE"/>
<circle cx="64.2869" cy="55.9919" r="1.69672" fill="#BFDBFE"/>
<circle cx="77.8607" cy="55.9919" r="1.69672" fill="#BFDBFE"/>
<circle cx="91.4344" cy="55.9919" r="1.69672" fill="#BFDBFE"/>
<circle cx="105.008" cy="55.9919" r="1.69672" fill="#BFDBFE"/>
<circle cx="118.582" cy="55.9919" r="1.69672" fill="#BFDBFE"/>
<circle cx="132.156" cy="55.9919" r="1.69672" fill="#BFDBFE"/>
<circle cx="145.73" cy="55.9919" r="1.69672" fill="#BFDBFE"/>
<circle cx="159.303" cy="55.9919" r="1.69672" fill="#BFDBFE"/>
<circle cx="9.99177" cy="69.5656" r="1.69672" fill="#BFDBFE"/>
<circle cx="23.5656" cy="69.5656" r="1.69672" fill="#BFDBFE"/>
<circle cx="37.1393" cy="69.5656" r="1.69672" fill="#BFDBFE"/>
<circle cx="50.7131" cy="69.5656" r="1.69672" fill="#BFDBFE"/>
<circle cx="64.2869" cy="69.5656" r="1.69672" fill="#BFDBFE"/>
<circle cx="77.8607" cy="69.5656" r="1.69672" fill="#BFDBFE"/>
<circle cx="91.4344" cy="69.5656" r="1.69672" fill="#BFDBFE"/>
<circle cx="105.008" cy="69.5656" r="1.69672" fill="#BFDBFE"/>
<circle cx="118.582" cy="69.5656" r="1.69672" fill="#BFDBFE"/>
<circle cx="132.156" cy="69.5656" r="1.69672" fill="#BFDBFE"/>
<circle cx="145.73" cy="69.5656" r="1.69672" fill="#BFDBFE"/>
<circle cx="159.303" cy="69.5656" r="1.69672" fill="#BFDBFE"/>
<circle cx="9.99177" cy="83.1394" r="1.69672" fill="#BFDBFE"/>
<circle cx="23.5656" cy="83.1394" r="1.69672" fill="#BFDBFE"/>
<circle cx="37.1393" cy="83.1394" r="1.69672" fill="#BFDBFE"/>
<circle cx="50.7131" cy="83.1394" r="1.69672" fill="#BFDBFE"/>
<circle cx="64.2869" cy="83.1394" r="1.69672" fill="#BFDBFE"/>
<circle cx="77.8607" cy="83.1394" r="1.69672" fill="#BFDBFE"/>
<circle cx="91.4344" cy="83.1394" r="1.69672" fill="#BFDBFE"/>
<circle cx="105.008" cy="83.1394" r="1.69672" fill="#BFDBFE"/>
<circle cx="118.582" cy="83.1394" r="1.69672" fill="#BFDBFE"/>
<circle cx="132.156" cy="83.1394" r="1.69672" fill="#BFDBFE"/>
<circle cx="145.73" cy="83.1394" r="1.69672" fill="#BFDBFE"/>
<circle cx="159.303" cy="83.1394" r="1.69672" fill="#BFDBFE"/>
<circle cx="9.99177" cy="96.7131" r="1.69672" fill="#BFDBFE"/>
<circle cx="23.5656" cy="96.7131" r="1.69672" fill="#BFDBFE"/>
<circle cx="37.1393" cy="96.7131" r="1.69672" fill="#BFDBFE"/>
<circle cx="50.7131" cy="96.7131" r="1.69672" fill="#BFDBFE"/>
<circle cx="64.2869" cy="96.7131" r="1.69672" fill="#BFDBFE"/>
<circle cx="77.8607" cy="96.7131" r="1.69672" fill="#BFDBFE"/>
<circle cx="91.4344" cy="96.7131" r="1.69672" fill="#BFDBFE"/>
<circle cx="105.008" cy="96.7131" r="1.69672" fill="#BFDBFE"/>
<circle cx="118.582" cy="96.7131" r="1.69672" fill="#BFDBFE"/>
<circle cx="132.156" cy="96.7131" r="1.69672" fill="#BFDBFE"/>
<circle cx="145.73" cy="96.7131" r="1.69672" fill="#BFDBFE"/>
<circle cx="159.303" cy="96.7131" r="1.69672" fill="#BFDBFE"/>
</g>
</svg>
