<svg width="99" height="139" viewBox="0 0 99 139" fill="none" xmlns="http://www.w3.org/2000/svg">
<g opacity="0.5">
<circle cx="96.7132" cy="1.69672" r="1.69672" transform="rotate(90 96.7132 1.69672)" fill="#BFDBFE"/>
<circle cx="96.7132" cy="15.2705" r="1.69672" transform="rotate(90 96.7132 15.2705)" fill="#BFDBFE"/>
<circle cx="96.7132" cy="28.8442" r="1.69672" transform="rotate(90 96.7132 28.8442)" fill="#BFDBFE"/>
<circle cx="96.7132" cy="42.4179" r="1.69672" transform="rotate(90 96.7132 42.4179)" fill="#BFDBFE"/>
<circle cx="96.7132" cy="55.9919" r="1.69672" transform="rotate(90 96.7132 55.9919)" fill="#BFDBFE"/>
<circle cx="96.7132" cy="69.5656" r="1.69672" transform="rotate(90 96.7132 69.5656)" fill="#BFDBFE"/>
<circle cx="96.7132" cy="83.1394" r="1.69672" transform="rotate(90 96.7132 83.1394)" fill="#BFDBFE"/>
<circle cx="96.7132" cy="96.7131" r="1.69672" transform="rotate(90 96.7132 96.7131)" fill="#BFDBFE"/>
<circle cx="96.7132" cy="110.287" r="1.69672" transform="rotate(90 96.7132 110.287)" fill="#BFDBFE"/>
<circle cx="96.7132" cy="123.861" r="1.69672" transform="rotate(90 96.7132 123.861)" fill="#BFDBFE"/>
<circle cx="96.7132" cy="137.435" r="1.69672" transform="rotate(90 96.7132 137.435)" fill="#BFDBFE"/>
<circle cx="83.1395" cy="1.69672" r="1.69672" transform="rotate(90 83.1395 1.69672)" fill="#BFDBFE"/>
<circle cx="83.1395" cy="15.2705" r="1.69672" transform="rotate(90 83.1395 15.2705)" fill="#BFDBFE"/>
<circle cx="83.1395" cy="28.8442" r="1.69672" transform="rotate(90 83.1395 28.8442)" fill="#BFDBFE"/>
<circle cx="83.1395" cy="42.4179" r="1.69672" transform="rotate(90 83.1395 42.4179)" fill="#BFDBFE"/>
<circle cx="83.1395" cy="55.9919" r="1.69672" transform="rotate(90 83.1395 55.9919)" fill="#BFDBFE"/>
<circle cx="83.1395" cy="69.5656" r="1.69672" transform="rotate(90 83.1395 69.5656)" fill="#BFDBFE"/>
<circle cx="83.1395" cy="83.1394" r="1.69672" transform="rotate(90 83.1395 83.1394)" fill="#BFDBFE"/>
<circle cx="83.1395" cy="96.7131" r="1.69672" transform="rotate(90 83.1395 96.7131)" fill="#BFDBFE"/>
<circle cx="83.1395" cy="110.287" r="1.69672" transform="rotate(90 83.1395 110.287)" fill="#BFDBFE"/>
<circle cx="83.1395" cy="123.861" r="1.69672" transform="rotate(90 83.1395 123.861)" fill="#BFDBFE"/>
<circle cx="83.1395" cy="137.435" r="1.69672" transform="rotate(90 83.1395 137.435)" fill="#BFDBFE"/>
<circle cx="69.5657" cy="1.69672" r="1.69672" transform="rotate(90 69.5657 1.69672)" fill="#BFDBFE"/>
<circle cx="69.5657" cy="15.2705" r="1.69672" transform="rotate(90 69.5657 15.2705)" fill="#BFDBFE"/>
<circle cx="69.5657" cy="28.8442" r="1.69672" transform="rotate(90 69.5657 28.8442)" fill="#BFDBFE"/>
<circle cx="69.5657" cy="42.4179" r="1.69672" transform="rotate(90 69.5657 42.4179)" fill="#BFDBFE"/>
<circle cx="69.5657" cy="55.9919" r="1.69672" transform="rotate(90 69.5657 55.9919)" fill="#BFDBFE"/>
<circle cx="69.5657" cy="69.5656" r="1.69672" transform="rotate(90 69.5657 69.5656)" fill="#BFDBFE"/>
<circle cx="69.5657" cy="83.1394" r="1.69672" transform="rotate(90 69.5657 83.1394)" fill="#BFDBFE"/>
<circle cx="69.5657" cy="96.7131" r="1.69672" transform="rotate(90 69.5657 96.7131)" fill="#BFDBFE"/>
<circle cx="69.5657" cy="110.287" r="1.69672" transform="rotate(90 69.5657 110.287)" fill="#BFDBFE"/>
<circle cx="69.5657" cy="123.861" r="1.69672" transform="rotate(90 69.5657 123.861)" fill="#BFDBFE"/>
<circle cx="69.5657" cy="137.435" r="1.69672" transform="rotate(90 69.5657 137.435)" fill="#BFDBFE"/>
<circle cx="55.9918" cy="1.69672" r="1.69672" transform="rotate(90 55.9918 1.69672)" fill="#BFDBFE"/>
<circle cx="55.9918" cy="15.2705" r="1.69672" transform="rotate(90 55.9918 15.2705)" fill="#BFDBFE"/>
<circle cx="55.9918" cy="28.8442" r="1.69672" transform="rotate(90 55.9918 28.8442)" fill="#BFDBFE"/>
<circle cx="55.9918" cy="42.4179" r="1.69672" transform="rotate(90 55.9918 42.4179)" fill="#BFDBFE"/>
<circle cx="55.9918" cy="55.9919" r="1.69672" transform="rotate(90 55.9918 55.9919)" fill="#BFDBFE"/>
<circle cx="55.9918" cy="69.5656" r="1.69672" transform="rotate(90 55.9918 69.5656)" fill="#BFDBFE"/>
<circle cx="55.9918" cy="83.1394" r="1.69672" transform="rotate(90 55.9918 83.1394)" fill="#BFDBFE"/>
<circle cx="55.9918" cy="96.7131" r="1.69672" transform="rotate(90 55.9918 96.7131)" fill="#BFDBFE"/>
<circle cx="55.9918" cy="110.287" r="1.69672" transform="rotate(90 55.9918 110.287)" fill="#BFDBFE"/>
<circle cx="55.9918" cy="123.861" r="1.69672" transform="rotate(90 55.9918 123.861)" fill="#BFDBFE"/>
<circle cx="55.9918" cy="137.435" r="1.69672" transform="rotate(90 55.9918 137.435)" fill="#BFDBFE"/>
<circle cx="42.418" cy="1.69672" r="1.69672" transform="rotate(90 42.418 1.69672)" fill="#BFDBFE"/>
<circle cx="42.418" cy="15.2705" r="1.69672" transform="rotate(90 42.418 15.2705)" fill="#BFDBFE"/>
<circle cx="42.418" cy="28.8442" r="1.69672" transform="rotate(90 42.418 28.8442)" fill="#BFDBFE"/>
<circle cx="42.418" cy="42.4179" r="1.69672" transform="rotate(90 42.418 42.4179)" fill="#BFDBFE"/>
<circle cx="42.418" cy="55.9919" r="1.69672" transform="rotate(90 42.418 55.9919)" fill="#BFDBFE"/>
<circle cx="42.418" cy="69.5656" r="1.69672" transform="rotate(90 42.418 69.5656)" fill="#BFDBFE"/>
<circle cx="42.418" cy="83.1394" r="1.69672" transform="rotate(90 42.418 83.1394)" fill="#BFDBFE"/>
<circle cx="42.418" cy="96.7131" r="1.69672" transform="rotate(90 42.418 96.7131)" fill="#BFDBFE"/>
<circle cx="42.418" cy="110.287" r="1.69672" transform="rotate(90 42.418 110.287)" fill="#BFDBFE"/>
<circle cx="42.418" cy="123.861" r="1.69672" transform="rotate(90 42.418 123.861)" fill="#BFDBFE"/>
<circle cx="42.418" cy="137.435" r="1.69672" transform="rotate(90 42.418 137.435)" fill="#BFDBFE"/>
<circle cx="28.8443" cy="1.69672" r="1.69672" transform="rotate(90 28.8443 1.69672)" fill="#BFDBFE"/>
<circle cx="28.8443" cy="15.2705" r="1.69672" transform="rotate(90 28.8443 15.2705)" fill="#BFDBFE"/>
<circle cx="28.8443" cy="28.8442" r="1.69672" transform="rotate(90 28.8443 28.8442)" fill="#BFDBFE"/>
<circle cx="28.8443" cy="42.4179" r="1.69672" transform="rotate(90 28.8443 42.4179)" fill="#BFDBFE"/>
<circle cx="28.8443" cy="55.9919" r="1.69672" transform="rotate(90 28.8443 55.9919)" fill="#BFDBFE"/>
<circle cx="28.8443" cy="69.5656" r="1.69672" transform="rotate(90 28.8443 69.5656)" fill="#BFDBFE"/>
<circle cx="28.8443" cy="83.1394" r="1.69672" transform="rotate(90 28.8443 83.1394)" fill="#BFDBFE"/>
<circle cx="28.8443" cy="96.7131" r="1.69672" transform="rotate(90 28.8443 96.7131)" fill="#BFDBFE"/>
<circle cx="28.8443" cy="110.287" r="1.69672" transform="rotate(90 28.8443 110.287)" fill="#BFDBFE"/>
<circle cx="28.8443" cy="123.861" r="1.69672" transform="rotate(90 28.8443 123.861)" fill="#BFDBFE"/>
<circle cx="28.8443" cy="137.435" r="1.69672" transform="rotate(90 28.8443 137.435)" fill="#BFDBFE"/>
<circle cx="15.2706" cy="1.69672" r="1.69672" transform="rotate(90 15.2706 1.69672)" fill="#BFDBFE"/>
<circle cx="15.2706" cy="15.2705" r="1.69672" transform="rotate(90 15.2706 15.2705)" fill="#BFDBFE"/>
<circle cx="15.2706" cy="28.8442" r="1.69672" transform="rotate(90 15.2706 28.8442)" fill="#BFDBFE"/>
<circle cx="15.2706" cy="42.4179" r="1.69672" transform="rotate(90 15.2706 42.4179)" fill="#BFDBFE"/>
<circle cx="15.2706" cy="55.9919" r="1.69672" transform="rotate(90 15.2706 55.9919)" fill="#BFDBFE"/>
<circle cx="15.2706" cy="69.5656" r="1.69672" transform="rotate(90 15.2706 69.5656)" fill="#BFDBFE"/>
<circle cx="15.2706" cy="83.1394" r="1.69672" transform="rotate(90 15.2706 83.1394)" fill="#BFDBFE"/>
<circle cx="15.2706" cy="96.7131" r="1.69672" transform="rotate(90 15.2706 96.7131)" fill="#BFDBFE"/>
<circle cx="15.2706" cy="110.287" r="1.69672" transform="rotate(90 15.2706 110.287)" fill="#BFDBFE"/>
<circle cx="15.2706" cy="123.861" r="1.69672" transform="rotate(90 15.2706 123.861)" fill="#BFDBFE"/>
<circle cx="15.2706" cy="137.435" r="1.69672" transform="rotate(90 15.2706 137.435)" fill="#BFDBFE"/>
<circle cx="1.69683" cy="1.69672" r="1.69672" transform="rotate(90 1.69683 1.69672)" fill="#BFDBFE"/>
<circle cx="1.69683" cy="15.2705" r="1.69672" transform="rotate(90 1.69683 15.2705)" fill="#BFDBFE"/>
<circle cx="1.69683" cy="28.8442" r="1.69672" transform="rotate(90 1.69683 28.8442)" fill="#BFDBFE"/>
<circle cx="1.69683" cy="42.4179" r="1.69672" transform="rotate(90 1.69683 42.4179)" fill="#BFDBFE"/>
<circle cx="1.69683" cy="55.9919" r="1.69672" transform="rotate(90 1.69683 55.9919)" fill="#BFDBFE"/>
<circle cx="1.69683" cy="69.5656" r="1.69672" transform="rotate(90 1.69683 69.5656)" fill="#BFDBFE"/>
<circle cx="1.69683" cy="83.1394" r="1.69672" transform="rotate(90 1.69683 83.1394)" fill="#BFDBFE"/>
<circle cx="1.69683" cy="96.7131" r="1.69672" transform="rotate(90 1.69683 96.7131)" fill="#BFDBFE"/>
<circle cx="1.69683" cy="110.287" r="1.69672" transform="rotate(90 1.69683 110.287)" fill="#BFDBFE"/>
<circle cx="1.69683" cy="123.861" r="1.69672" transform="rotate(90 1.69683 123.861)" fill="#BFDBFE"/>
<circle cx="1.69683" cy="137.435" r="1.69672" transform="rotate(90 1.69683 137.435)" fill="#BFDBFE"/>
</g>
</svg>
