<svg width="18" height="19" viewBox="0 0 18 19" fill="none" xmlns="http://www.w3.org/2000/svg">
<g opacity="0.4">
<path d="M5.76562 10.0625H8.4375V12.7344C8.4375 12.8117 8.50078 12.875 8.57812 12.875H9.42188C9.49922 12.875 9.5625 12.8117 9.5625 12.7344V10.0625H12.2344C12.3117 10.0625 12.375 9.99922 12.375 9.92188V9.07812C12.375 9.00078 12.3117 8.9375 12.2344 8.9375H9.5625V6.26562C9.5625 6.18828 9.49922 6.125 9.42188 6.125H8.57812C8.50078 6.125 8.4375 6.18828 8.4375 6.26562V8.9375H5.76562C5.68828 8.9375 5.625 9.00078 5.625 9.07812V9.92188C5.625 9.99922 5.68828 10.0625 5.76562 10.0625Z" fill="#1D4ED8"/>
<path d="M15.4688 2.46875H2.53125C2.22012 2.46875 1.96875 2.72012 1.96875 3.03125V15.9688C1.96875 16.2799 2.22012 16.5312 2.53125 16.5312H15.4688C15.7799 16.5312 16.0312 16.2799 16.0312 15.9688V3.03125C16.0312 2.72012 15.7799 2.46875 15.4688 2.46875ZM14.7656 15.2656H3.23438V3.73438H14.7656V15.2656Z" fill="#1D4ED8"/>
</g>
</svg>
