<svg width="18" height="19" viewBox="0 0 18 19" fill="none" xmlns="http://www.w3.org/2000/svg">
<g opacity="0.4">
<path d="M9 5C8.44374 5 7.89997 5.16495 7.43746 5.47399C6.97495 5.78303 6.61446 6.22229 6.40159 6.7362C6.18872 7.25012 6.13302 7.81562 6.24154 8.36119C6.35006 8.90676 6.61793 9.4079 7.01126 9.80124C7.4046 10.1946 7.90574 10.4624 8.45131 10.571C8.99688 10.6795 9.56238 10.6238 10.0763 10.4109C10.5902 10.198 11.0295 9.83755 11.3385 9.37504C11.6476 8.91253 11.8125 8.36876 11.8125 7.8125C11.8125 7.06658 11.5162 6.35121 10.9887 5.82376C10.4613 5.29632 9.74592 5 9 5Z" fill="#1D4ED8"/>
<path d="M9 1.625C7.44248 1.625 5.91992 2.08686 4.62489 2.95218C3.32985 3.81749 2.32049 5.0474 1.72445 6.48637C1.12841 7.92534 0.972461 9.50874 1.27632 11.0363C1.58018 12.5639 2.3302 13.9671 3.43154 15.0685C4.53288 16.1698 5.93607 16.9198 7.46367 17.2237C8.99127 17.5275 10.5747 17.3716 12.0136 16.7756C13.4526 16.1795 14.6825 15.1702 15.5478 13.8751C16.4131 12.5801 16.875 11.0575 16.875 9.5C16.8726 7.41215 16.0422 5.4105 14.5658 3.93417C13.0895 2.45783 11.0879 1.62738 9 1.625ZM13.4955 14.5209C13.4843 13.7831 13.1837 13.0792 12.6585 12.5609C12.1332 12.0426 11.4254 11.7514 10.6875 11.75H7.3125C6.57461 11.7514 5.86679 12.0426 5.34155 12.5609C4.81632 13.0792 4.51571 13.7831 4.5045 14.5209C3.48445 13.61 2.7651 12.4109 2.44172 11.0821C2.11834 9.75338 2.20618 8.35776 2.69361 7.08005C3.18104 5.80234 4.04506 4.70281 5.17128 3.92707C6.29749 3.15132 7.63276 2.73595 9.00028 2.73595C10.3678 2.73595 11.7031 3.15132 12.8293 3.92707C13.9555 4.70281 14.8195 5.80234 15.307 7.08005C15.7944 8.35776 15.8822 9.75338 15.5588 11.0821C15.2355 12.4109 14.5161 13.61 13.4961 14.5209H13.4955Z" fill="#1D4ED8"/>
</g>
</svg>
