<svg width="23" height="20" viewBox="0 0 23 20" fill="none" xmlns="http://www.w3.org/2000/svg">
<path d="M18.7714 9.03516C18.7714 9.03516 19.0748 10.4883 19.1427 10.793H17.809C17.9408 10.4453 18.4479 9.09375 18.4479 9.09375C18.4399 9.10547 18.5797 8.73828 18.6595 8.51172L18.7714 9.03516ZM23 3.125V16.875C23 17.9102 22.1415 18.75 21.0833 18.75H1.91667C0.858507 18.75 0 17.9102 0 16.875V3.125C0 2.08984 0.858507 1.25 1.91667 1.25H21.0833C22.1415 1.25 23 2.08984 23 3.125ZM6.08941 12.9375L8.61302 6.875H6.91597L5.3467 11.0156L5.175 10.1758L4.61597 7.38672C4.52413 7 4.24062 6.89062 3.88924 6.875H1.30573L1.27778 6.99609C1.90868 7.15234 2.4717 7.37891 2.96285 7.66406L4.39236 12.9375H6.08941ZM9.85885 12.9453L10.8651 6.875H9.2599L8.25764 12.9453H9.85885ZM15.4451 10.9609C15.4531 10.2695 15.0219 9.74219 14.0995 9.30859C13.5365 9.03125 13.1931 8.84375 13.1931 8.55859C13.201 8.30078 13.4845 8.03516 14.1155 8.03516C14.6385 8.02344 15.0219 8.14453 15.3094 8.26562L15.4531 8.33203L15.6727 7.01953C15.3573 6.89844 14.8542 6.76172 14.2352 6.76172C12.65 6.76172 11.5359 7.58984 11.528 8.76953C11.516 9.64062 12.3266 10.125 12.9335 10.418C13.5524 10.7148 13.7641 10.9102 13.7641 11.1719C13.7561 11.5781 13.2609 11.7656 12.8017 11.7656C12.1628 11.7656 11.8194 11.668 11.2964 11.4414L11.0847 11.3438L10.8611 12.707C11.2365 12.875 11.9312 13.0234 12.65 13.0312C14.3351 13.0352 15.4332 12.2188 15.4451 10.9609ZM21.0833 12.9453L19.7896 6.875H18.5477C18.1644 6.875 17.8729 6.98437 17.7092 7.37891L15.3253 12.9453H17.0104C17.0104 12.9453 17.2859 12.1953 17.3458 12.0352H19.4062C19.4542 12.25 19.5979 12.9453 19.5979 12.9453H21.0833Z" fill="#174D90"/>
</svg>
