<svg width="18" height="19" viewBox="0 0 18 19" fill="none" xmlns="http://www.w3.org/2000/svg">
<g opacity="0.4">
<path fill-rule="evenodd" clip-rule="evenodd" d="M3.36001 1.69995H3.30001C3.02521 1.69995 2.78881 1.69995 2.58001 1.74915C2.25678 1.82639 1.96123 1.99161 1.72613 2.2265C1.49103 2.46139 1.32554 2.75678 1.24801 3.07995C1.20001 3.28875 1.20001 3.52395 1.20001 3.79995V6.79995C1.20001 7.07475 1.20001 7.31115 1.24921 7.51995C1.32645 7.84319 1.49167 8.13873 1.72656 8.37383C1.96145 8.60894 2.25685 8.77442 2.58001 8.85195C2.78881 8.89995 3.02401 8.89995 3.30001 8.89995H6.30001C6.57481 8.89995 6.81121 8.89995 7.02001 8.85075C7.34325 8.77351 7.63879 8.60829 7.8739 8.3734C8.109 8.13851 8.27448 7.84312 8.35201 7.51995C8.40001 7.31115 8.40001 7.07595 8.40001 6.79995V3.79995C8.40001 3.52515 8.40001 3.28875 8.35081 3.07995C8.27357 2.75671 8.10836 2.46117 7.87347 2.22607C7.63857 1.99096 7.34318 1.82548 7.02001 1.74795C6.81121 1.69995 6.57601 1.69995 6.30001 1.69995H3.36001ZM2.85961 2.91675C2.91121 2.90475 2.99161 2.89995 3.36001 2.89995H6.24001C6.60961 2.89995 6.68881 2.90355 6.74041 2.91675C6.84821 2.94253 6.94676 2.99766 7.02513 3.07603C7.1035 3.15441 7.15863 3.25296 7.18441 3.36075C7.19641 3.41115 7.20001 3.49035 7.20001 3.85995V6.73995C7.20001 7.10955 7.19641 7.18875 7.18321 7.24035C7.15743 7.34815 7.1023 7.4467 7.02393 7.52507C6.94556 7.60344 6.84701 7.65857 6.73921 7.68435C6.69001 7.69515 6.61081 7.69995 6.24001 7.69995H3.36001C2.99041 7.69995 2.91121 7.69635 2.85961 7.68315C2.75182 7.65737 2.65327 7.60224 2.57489 7.52387C2.49652 7.4455 2.44139 7.34695 2.41561 7.23915C2.40481 7.18995 2.40001 7.11075 2.40001 6.73995V3.85995C2.40001 3.49035 2.40361 3.41115 2.41681 3.35955C2.44259 3.25175 2.49772 3.15321 2.57609 3.07483C2.65447 2.99646 2.75302 2.94133 2.86081 2.91555L2.85961 2.91675ZM11.76 1.69995H11.7C11.4252 1.69995 11.1888 1.69995 10.98 1.74915C10.6568 1.82639 10.3612 1.99161 10.1261 2.2265C9.89103 2.46139 9.72554 2.75678 9.64801 3.07995C9.60001 3.28875 9.60001 3.52395 9.60001 3.79995V6.79995C9.60001 7.07475 9.60001 7.31115 9.64921 7.51995C9.72645 7.84319 9.89167 8.13873 10.1266 8.37383C10.3615 8.60894 10.6568 8.77442 10.98 8.85195C11.1888 8.89995 11.424 8.89995 11.7 8.89995H14.7C14.9748 8.89995 15.2112 8.89995 15.42 8.85075C15.7432 8.77351 16.0388 8.60829 16.2739 8.3734C16.509 8.13851 16.6745 7.84312 16.752 7.51995C16.8 7.31115 16.8 7.07595 16.8 6.79995V3.79995C16.8 3.52515 16.8 3.28875 16.7508 3.07995C16.6736 2.75671 16.5084 2.46117 16.2735 2.22607C16.0386 1.99096 15.7432 1.82548 15.42 1.74795C15.2112 1.69995 14.976 1.69995 14.7 1.69995H11.76ZM11.2596 2.91675C11.3112 2.90475 11.3916 2.89995 11.76 2.89995H14.64C15.0096 2.89995 15.0888 2.90355 15.1404 2.91675C15.2482 2.94253 15.3468 2.99766 15.4251 3.07603C15.5035 3.15441 15.5586 3.25296 15.5844 3.36075C15.5964 3.41115 15.6 3.49035 15.6 3.85995V6.73995C15.6 7.10955 15.5952 7.18875 15.5832 7.24035C15.5574 7.34815 15.5023 7.4467 15.4239 7.52507C15.3456 7.60344 15.247 7.65857 15.1392 7.68435C15.0888 7.69635 15.0096 7.69995 14.64 7.69995H11.76C11.3904 7.69995 11.3112 7.69635 11.2596 7.68315C11.1518 7.65737 11.0533 7.60224 10.9749 7.52387C10.8965 7.4455 10.8414 7.34695 10.8156 7.23915C10.8048 7.18995 10.8 7.11075 10.8 6.73995V3.85995C10.8 3.49035 10.8036 3.41115 10.8168 3.35955C10.8426 3.25175 10.8977 3.15321 10.9761 3.07483C11.0545 2.99646 11.153 2.94133 11.2608 2.91555L11.2596 2.91675ZM3.30001 10.1H6.30001C6.57481 10.1 6.81121 10.1 7.02001 10.1492C7.34325 10.2264 7.63879 10.3916 7.8739 10.6265C8.109 10.8614 8.27448 11.1568 8.35201 11.4799C8.40001 11.6888 8.40001 11.924 8.40001 12.2V15.2C8.40001 15.4748 8.40001 15.7112 8.35081 15.92C8.27357 16.2432 8.10836 16.5387 7.87347 16.7738C7.63857 17.0089 7.34318 17.1744 7.02001 17.252C6.81121 17.3 6.57601 17.3 6.30001 17.3H3.30001C3.02521 17.3 2.78881 17.2999 2.58001 17.2507C2.25678 17.1735 1.96123 17.0083 1.72613 16.7734C1.49103 16.5385 1.32554 16.2431 1.24801 15.92C1.20001 15.7112 1.20001 15.476 1.20001 15.2V12.2C1.20001 11.9252 1.20001 11.6888 1.24921 11.4799C1.32645 11.1567 1.49167 10.8612 1.72656 10.6261C1.96145 10.391 2.25685 10.2255 2.58001 10.148C2.78881 10.1 3.02401 10.1 3.30001 10.1ZM3.36001 11.3C2.99041 11.3 2.91121 11.3036 2.85961 11.3168C2.75182 11.3425 2.65327 11.3977 2.57489 11.476C2.49652 11.5544 2.44139 11.653 2.41561 11.7608C2.40481 11.81 2.40001 11.8892 2.40001 12.26V15.1399C2.40001 15.5096 2.40361 15.5887 2.41681 15.6404C2.44259 15.7481 2.49772 15.8467 2.57609 15.9251C2.65447 16.0034 2.75302 16.0586 2.86081 16.0844C2.91121 16.0964 2.99041 16.1 3.36001 16.1H6.24001C6.60961 16.1 6.68881 16.0951 6.74041 16.0832C6.84821 16.0574 6.94676 16.0022 7.02513 15.9239C7.1035 15.8455 7.15863 15.7469 7.18441 15.6392C7.19641 15.5888 7.20001 15.5096 7.20001 15.1399V12.26C7.20001 11.8904 7.19641 11.8112 7.18321 11.7596C7.15743 11.6518 7.1023 11.5532 7.02393 11.4748C6.94556 11.3965 6.84701 11.3413 6.73921 11.3155C6.69001 11.3048 6.61081 11.3 6.24001 11.3H3.36001ZM11.76 10.1H11.7C11.4252 10.1 11.1888 10.1 10.98 10.1492C10.6568 10.2264 10.3612 10.3916 10.1261 10.6265C9.89103 10.8614 9.72554 11.1568 9.64801 11.4799C9.60001 11.6888 9.60001 11.924 9.60001 12.2V15.2C9.60001 15.4748 9.60001 15.7112 9.64921 15.92C9.72645 16.2432 9.89167 16.5387 10.1266 16.7738C10.3615 17.0089 10.6568 17.1744 10.98 17.252C11.1888 17.3012 11.4252 17.3012 11.7 17.3012H14.7C14.9748 17.3012 15.2112 17.3012 15.42 17.252C15.743 17.1745 16.0383 17.0092 16.2732 16.7743C16.5081 16.5395 16.6734 16.2442 16.7508 15.9212C16.8 15.7123 16.8 15.476 16.8 15.2012V12.2C16.8 11.9252 16.8 11.6888 16.7508 11.4799C16.6736 11.1567 16.5084 10.8612 16.2735 10.6261C16.0386 10.391 15.7432 10.2255 15.42 10.148C15.2112 10.1 14.976 10.1 14.7 10.1H11.76ZM11.2596 11.3168C11.3112 11.3048 11.3916 11.3 11.76 11.3H14.64C15.0096 11.3 15.0888 11.3036 15.1404 11.3168C15.2482 11.3425 15.3468 11.3977 15.4251 11.476C15.5035 11.5544 15.5586 11.653 15.5844 11.7608C15.5964 11.8112 15.6 11.8904 15.6 12.26V15.1399C15.6 15.5096 15.5952 15.5887 15.5832 15.6404C15.5574 15.7481 15.5023 15.8467 15.4239 15.9251C15.3456 16.0034 15.247 16.0586 15.1392 16.0844C15.0888 16.0964 15.0096 16.1 14.64 16.1H11.76C11.3904 16.1 11.3112 16.0951 11.2596 16.0832C11.1518 16.0574 11.0533 16.0022 10.9749 15.9239C10.8965 15.8455 10.8414 15.7469 10.8156 15.6392C10.8048 15.59 10.8 15.5107 10.8 15.1399V12.26C10.8 11.8904 10.8036 11.8112 10.8168 11.7596C10.8426 11.6518 10.8977 11.5532 10.9761 11.4748C11.0545 11.3965 11.153 11.3413 11.2608 11.3155L11.2596 11.3168Z" fill="#1D4ED8"/>
</g>
</svg>
