<svg width="18" height="19" viewBox="0 0 18 19" fill="none" xmlns="http://www.w3.org/2000/svg">
<g opacity="0.4">
<path d="M14.241 2.00879L16.491 4.25879L14.7758 5.97479L12.5258 3.72479L14.241 2.00879ZM6 12.4998H8.25L13.7153 7.03454L11.4653 4.78454L6 10.2498V12.4998Z" fill="#1D4ED8"/>
<path d="M14.25 14.75H6.1185C6.099 14.75 6.07875 14.7575 6.05925 14.7575C6.0345 14.7575 6.00975 14.7507 5.98425 14.75H3.75V4.25H8.88525L10.3853 2.75H3.75C2.92275 2.75 2.25 3.422 2.25 4.25V14.75C2.25 15.578 2.92275 16.25 3.75 16.25H14.25C14.6478 16.25 15.0294 16.092 15.3107 15.8107C15.592 15.5294 15.75 15.1478 15.75 14.75V8.249L14.25 9.749V14.75Z" fill="#1D4ED8"/>
</g>
</svg>
