<svg width="18" height="19" viewBox="0 0 18 19" fill="none" xmlns="http://www.w3.org/2000/svg">
<g opacity="0.4">
<path d="M13.5 6.5H15C15.1989 6.5 15.3897 6.57902 15.5303 6.71967C15.671 6.86032 15.75 7.05109 15.75 7.25V16.25C15.75 16.4489 15.671 16.6397 15.5303 16.7803C15.3897 16.921 15.1989 17 15 17H3C2.80109 17 2.61032 16.921 2.46967 16.7803C2.32902 16.6397 2.25 16.4489 2.25 16.25V7.25C2.25 7.05109 2.32902 6.86032 2.46967 6.71967C2.61032 6.57902 2.80109 6.5 3 6.5H4.5V5.75C4.5 4.55653 4.97411 3.41193 5.81802 2.56802C6.66193 1.72411 7.80653 1.25 9 1.25C10.1935 1.25 11.3381 1.72411 12.182 2.56802C13.0259 3.41193 13.5 4.55653 13.5 5.75V6.5ZM3.75 8V15.5H14.25V8H3.75ZM8.25 11H9.75V12.5H8.25V11ZM5.25 11H6.75V12.5H5.25V11ZM11.25 11H12.75V12.5H11.25V11ZM12 6.5V5.75C12 4.95435 11.6839 4.19129 11.1213 3.62868C10.5587 3.06607 9.79565 2.75 9 2.75C8.20435 2.75 7.44129 3.06607 6.87868 3.62868C6.31607 4.19129 6 4.95435 6 5.75V6.5H12Z" fill="#1D4ED8"/>
</g>
</svg>
