<svg width="16" height="15" viewBox="0 0 16 15" fill="none" xmlns="http://www.w3.org/2000/svg">
<path d="M14.4688 0.46875H1.53125C1.22012 0.46875 0.96875 0.720117 0.96875 1.03125V13.9688C0.96875 14.2799 1.22012 14.5312 1.53125 14.5312H14.4688C14.7799 14.5312 15.0312 14.2799 15.0312 13.9688V1.03125C15.0312 0.720117 14.7799 0.46875 14.4688 0.46875ZM13.7656 13.2656H2.23438V1.73438H13.7656V13.2656ZM7.64844 5.53125H10.8828C10.9602 5.53125 11.0234 5.46797 11.0234 5.39062V4.54688C11.0234 4.46953 10.9602 4.40625 10.8828 4.40625H7.64844C7.57109 4.40625 7.50781 4.46953 7.50781 4.54688V5.39062C7.50781 5.46797 7.57109 5.53125 7.64844 5.53125ZM7.64844 8.0625H10.8828C10.9602 8.0625 11.0234 7.99922 11.0234 7.92188V7.07812C11.0234 7.00078 10.9602 6.9375 10.8828 6.9375H7.64844C7.57109 6.9375 7.50781 7.00078 7.50781 7.07812V7.92188C7.50781 7.99922 7.57109 8.0625 7.64844 8.0625ZM7.64844 10.5938H10.8828C10.9602 10.5938 11.0234 10.5305 11.0234 10.4531V9.60938C11.0234 9.53203 10.9602 9.46875 10.8828 9.46875H7.64844C7.57109 9.46875 7.50781 9.53203 7.50781 9.60938V10.4531C7.50781 10.5305 7.57109 10.5938 7.64844 10.5938ZM4.97656 4.96875C4.97656 5.15523 5.05064 5.33407 5.1825 5.46593C5.31436 5.5978 5.49321 5.67188 5.67969 5.67188C5.86617 5.67188 6.04501 5.5978 6.17687 5.46593C6.30873 5.33407 6.38281 5.15523 6.38281 4.96875C6.38281 4.78227 6.30873 4.60343 6.17687 4.47157C6.04501 4.3397 5.86617 4.26562 5.67969 4.26562C5.49321 4.26562 5.31436 4.3397 5.1825 4.47157C5.05064 4.60343 4.97656 4.78227 4.97656 4.96875ZM4.97656 7.5C4.97656 7.68648 5.05064 7.86532 5.1825 7.99718C5.31436 8.12905 5.49321 8.20312 5.67969 8.20312C5.86617 8.20312 6.04501 8.12905 6.17687 7.99718C6.30873 7.86532 6.38281 7.68648 6.38281 7.5C6.38281 7.31352 6.30873 7.13468 6.17687 7.00282C6.04501 6.87095 5.86617 6.79688 5.67969 6.79688C5.49321 6.79688 5.31436 6.87095 5.1825 7.00282C5.05064 7.13468 4.97656 7.31352 4.97656 7.5ZM4.97656 10.0312C4.97656 10.2177 5.05064 10.3966 5.1825 10.5284C5.31436 10.6603 5.49321 10.7344 5.67969 10.7344C5.86617 10.7344 6.04501 10.6603 6.17687 10.5284C6.30873 10.3966 6.38281 10.2177 6.38281 10.0312C6.38281 9.84477 6.30873 9.66593 6.17687 9.53407C6.04501 9.4022 5.86617 9.32812 5.67969 9.32812C5.49321 9.32812 5.31436 9.4022 5.1825 9.53407C5.05064 9.66593 4.97656 9.84477 4.97656 10.0312Z" fill="#1D4ED8"/>
</svg>
