<svg width="448" height="512" viewBox="0 0 448 512" fill="none" xmlns="http://www.w3.org/2000/svg">
<g clip-path="url(#clip0_105_16)">
<path d="M224 202.66C213.451 202.664 203.14 205.796 194.371 211.659C185.602 217.523 178.769 225.855 174.735 235.602C170.7 245.348 169.647 256.073 171.707 266.418C173.768 276.764 178.849 286.266 186.31 293.724C193.771 301.182 203.275 306.26 213.621 308.317C223.968 310.373 234.692 309.316 244.437 305.278C254.182 301.24 262.512 294.403 268.372 285.632C274.232 276.861 277.36 266.549 277.36 256C277.349 241.853 271.724 228.289 261.718 218.288C251.713 208.286 238.147 202.665 224 202.66ZM348.71 161.66C345.995 154.778 341.894 148.528 336.663 143.297C331.432 138.066 325.182 133.965 318.3 131.25C297.3 122.96 247.3 124.82 224 124.82C200.7 124.82 150.75 122.89 129.69 131.25C122.808 133.965 116.558 138.066 111.327 143.297C106.096 148.528 101.995 154.778 99.28 161.66C91 182.66 92.85 232.71 92.85 255.99C92.85 279.27 91 329.26 99.32 350.33C102.035 357.212 106.136 363.462 111.367 368.693C116.598 373.924 122.848 378.025 129.73 380.74C150.73 389.03 200.73 387.17 224.04 387.17C247.35 387.17 297.28 389.1 318.34 380.74C325.222 378.025 331.472 373.924 336.703 368.693C341.934 363.462 346.035 357.212 348.75 350.33C357.1 329.33 355.18 279.28 355.18 256C355.18 232.72 357.1 182.74 348.75 161.67L348.71 161.66ZM224 338C207.782 338 191.928 333.191 178.443 324.181C164.958 315.17 154.448 302.364 148.242 287.38C142.035 272.396 140.412 255.909 143.576 240.003C146.74 224.096 154.549 209.485 166.017 198.017C177.485 186.549 192.096 178.74 208.003 175.576C223.909 172.412 240.396 174.035 255.38 180.242C270.364 186.448 283.17 196.958 292.181 210.443C301.191 223.928 306 239.782 306 256C306.013 266.772 303.901 277.441 299.785 287.396C295.669 297.35 289.629 306.395 282.012 314.012C274.395 321.629 265.35 327.669 255.396 331.785C245.441 335.901 234.772 338.013 224 338ZM309.38 189.7C305.594 189.702 301.893 188.581 298.744 186.479C295.595 184.377 293.14 181.389 291.69 177.891C290.24 174.394 289.859 170.546 290.597 166.832C291.334 163.119 293.156 159.707 295.832 157.03C298.509 154.352 301.919 152.528 305.632 151.788C309.345 151.049 313.194 151.428 316.692 152.876C320.19 154.324 323.18 156.778 325.284 159.925C327.387 163.073 328.51 166.774 328.51 170.56C328.521 173.074 328.035 175.566 327.08 177.892C326.126 180.217 324.721 182.332 322.948 184.114C321.174 185.896 319.066 187.31 316.745 188.276C314.423 189.241 311.934 189.739 309.42 189.74L309.38 189.7ZM400 32H48C35.2696 32 23.0606 37.0571 14.0589 46.0589C5.05713 55.0606 0 67.2696 0 80L0 432C0 444.73 5.05713 456.939 14.0589 465.941C23.0606 474.943 35.2696 480 48 480H400C412.73 480 424.939 474.943 433.941 465.941C442.943 456.939 448 444.73 448 432V80C448 67.2696 442.943 55.0606 433.941 46.0589C424.939 37.0571 412.73 32 400 32ZM382.88 322C381.59 347.63 375.74 370.34 357.03 389C338.32 407.66 315.63 413.63 290.03 414.85C263.62 416.34 184.44 416.34 158.03 414.85C132.4 413.56 109.77 407.7 91.03 389C72.29 370.3 66.4 347.58 65.18 322C63.69 295.58 63.69 216.39 65.18 190C66.47 164.37 72.25 141.66 91.03 123C109.81 104.34 132.5 98.44 158.03 97.22C184.44 95.73 263.62 95.73 290.03 97.22C315.66 98.51 338.36 104.37 357.03 123.07C375.7 141.77 381.66 164.49 382.88 190.12C384.37 216.44 384.37 295.56 382.88 322Z" fill="#64748B"/>
</g>
<defs>
<clipPath id="clip0_105_16">
<rect width="448" height="512" fill="white"/>
</clipPath>
</defs>
</svg>
