<svg width="18" height="19" viewBox="0 0 18 19" fill="none" xmlns="http://www.w3.org/2000/svg">
<g opacity="0.4">
<path d="M9 11.5C10.1046 11.5 11 10.6046 11 9.5C11 8.39543 10.1046 7.5 9 7.5C7.89543 7.5 7 8.39543 7 9.5C7 10.6046 7.89543 11.5 9 11.5Z" fill="#1D4ED8"/>
<path d="M16.4698 9.33C15.8817 7.80882 14.8608 6.49331 13.5332 5.54604C12.2056 4.59878 10.6295 4.06129 8.99979 4C7.37005 4.06129 5.79398 4.59878 4.46639 5.54604C3.1388 6.49331 2.11787 7.80882 1.52979 9.33C1.49007 9.43985 1.49007 9.56015 1.52979 9.67C2.11787 11.1912 3.1388 12.5067 4.46639 13.454C5.79398 14.4012 7.37005 14.9387 8.99979 15C10.6295 14.9387 12.2056 14.4012 13.5332 13.454C14.8608 12.5067 15.8817 11.1912 16.4698 9.67C16.5095 9.56015 16.5095 9.43985 16.4698 9.33ZM8.99979 12.75C8.357 12.75 7.72864 12.5594 7.19418 12.2023C6.65972 11.8452 6.24316 11.3376 5.99718 10.7437C5.75119 10.1499 5.68683 9.49639 5.81224 8.86596C5.93764 8.23552 6.24717 7.65642 6.70169 7.2019C7.15621 6.74738 7.73531 6.43785 8.36574 6.31245C8.99618 6.18705 9.64965 6.25141 10.2435 6.49739C10.8374 6.74338 11.3449 7.15994 11.7021 7.6944C12.0592 8.22886 12.2498 8.85721 12.2498 9.5C12.2485 10.3615 11.9056 11.1874 11.2964 11.7966C10.6872 12.4058 9.86133 12.7487 8.99979 12.75Z" fill="#1D4ED8"/>
</g>
</svg>
