<svg width="30" height="76" viewBox="0 0 30 76" fill="none" xmlns="http://www.w3.org/2000/svg">
<path d="M0 76V0H30V76L15.1456 66.386L0 76Z" fill="#38BDF8"/>
<path d="M20.0161 53.684L10.2161 53.684L10.2161 49.512C10.2161 48.868 10.3094 48.3267 10.4961 47.888C10.6828 47.44 10.9628 47.104 11.3361 46.88C11.7001 46.656 12.1434 46.544 12.6661 46.544C13.2074 46.544 13.6648 46.6887 14.0381 46.978C14.4114 47.258 14.6681 47.6593 14.8081 48.182L14.5281 48.182C14.6214 47.7527 14.7894 47.3747 15.0321 47.048C15.2654 46.7213 15.5594 46.4693 15.9141 46.292C16.2594 46.1147 16.6561 46.026 17.1041 46.026C17.5801 46.026 18.0001 46.1053 18.3641 46.264C18.7281 46.4133 19.0314 46.6373 19.2741 46.936C19.5168 47.2253 19.7034 47.5753 19.8341 47.986C19.9554 48.3873 20.0161 48.8447 20.0161 49.358L20.0161 53.684ZM18.3781 51.92L18.3781 49.456C18.3781 48.9427 18.2661 48.546 18.0421 48.266C17.8088 47.9767 17.4774 47.832 17.0481 47.832C16.7868 47.832 16.5628 47.902 16.3761 48.042C16.1894 48.182 16.0494 48.378 15.9561 48.63C15.8534 48.882 15.8021 49.1807 15.8021 49.526L15.8021 51.92L18.3781 51.92ZM14.2341 51.92L14.2341 49.666C14.2341 49.4047 14.1828 49.1713 14.0801 48.966C13.9774 48.7607 13.8374 48.602 13.6601 48.49C13.4828 48.378 13.2774 48.322 13.0441 48.322C12.6614 48.322 12.3674 48.4527 12.1621 48.714C11.9568 48.966 11.8541 49.3347 11.8541 49.82L11.8541 51.92L14.2341 51.92ZM20.0161 43.1353L10.2161 43.1353L10.2161 36.7373L11.8681 36.7373L11.8681 41.3433L18.3641 41.3433L18.3641 36.6813L20.0161 36.6813L20.0161 43.1353ZM15.8161 42.2953L14.1921 42.2953L14.1921 37.4513L15.8161 37.4513L15.8161 42.2953ZM20.0161 31.529L11.8961 31.529L11.8961 34.329L10.2161 34.329L10.2161 26.853L11.8961 26.853L11.8961 29.723L20.0161 29.723L20.0161 31.529ZM20.0161 25.9324L10.2161 22.1104L10.2161 20.4164L20.0161 16.6224L20.0161 18.4984L14.4161 20.6124C14.3134 20.6497 14.1408 20.7104 13.8981 20.7944C13.6554 20.8691 13.3894 20.9531 13.1001 21.0464C12.8108 21.1397 12.5448 21.2284 12.3021 21.3124C12.0594 21.3871 11.8774 21.4384 11.7561 21.4664L11.7421 21.1164C11.9288 21.1724 12.1434 21.2377 12.3861 21.3124C12.6194 21.3871 12.8621 21.4664 13.1141 21.5504C13.3661 21.6344 13.6088 21.7184 13.8421 21.8024C14.0754 21.8864 14.2854 21.9611 14.4721 22.0264L20.0161 24.1264L20.0161 25.9324ZM17.7621 24.1964L16.1941 23.5804L16.1941 19.1144L17.7621 18.4284L17.7621 24.1964Z" fill="white"/>
</svg>
