<svg width="200" height="55" viewBox="0 0 200 55" fill="none" xmlns="http://www.w3.org/2000/svg">
<path d="M30.6744 25.4976V0L4.08245 11.0754C1.60897 12.1027 0 14.5265 0 17.2071V38.2664L9.60576 34.2616V16.7255L30.6744 25.4976Z" fill="#38BDF8"/>
<path d="M36.2297 27.809L30.6744 25.4976L9.60571 34.2696V37.7929C9.60571 40.4735 11.2147 42.8972 13.6882 43.9245L40.2801 55V33.9085C40.2801 31.2439 38.6792 28.8443 36.2297 27.817V27.809Z" fill="#1D4ED8"/>
<path d="M9.60571 16.7256V34.2697L30.6744 25.4977L9.60571 16.7256Z" fill="#312E81"/>
<path d="M86.788 18.106C82.4094 18.13 78.8633 21.7095 78.8633 26.0995V36.9904H81.6329V26.9182C81.6329 23.4671 83.8183 21.0594 86.9481 21.0594H87.4764V18.106H86.9481C86.9001 18.106 86.8441 18.106 86.788 18.106Z" fill="white"/>
<path d="M98.9553 18.106C93.5921 18.106 89.3976 22.3034 89.3976 27.6565C89.3976 33.0096 93.6001 37.2392 98.9553 37.2392C104.311 37.2392 108.481 33.0257 108.481 27.6565C108.481 22.2873 104.295 18.106 98.9553 18.106ZM98.9553 34.5265C95.089 34.5265 92.1672 31.5891 92.1672 27.6886C92.1672 23.7881 95.081 20.8106 98.9553 20.8106C102.83 20.8106 105.703 23.7641 105.703 27.6886C105.703 31.6132 102.798 34.5265 98.9553 34.5265Z" fill="white"/>
<path d="M119.928 26.1638C117.038 25.6582 115.269 25.2569 115.269 23.411C115.269 21.7416 116.67 20.7866 119.119 20.7866C122.129 20.7866 123.346 22.3837 123.49 23.8845L123.538 24.366H126.3L126.26 23.7962C125.988 20.289 123.266 18.114 119.151 18.114C115.037 18.114 112.459 20.2248 112.459 23.4832C112.459 27.6084 116.206 28.2504 119.216 28.7641C122.185 29.2777 124.002 29.687 124.002 31.6533C124.002 34.1814 121.265 34.5586 119.632 34.5586C117.535 34.5586 114.949 33.9487 114.589 31.0594L114.533 30.5939H111.723L111.787 31.1878C112.235 35.1124 115.005 37.2713 119.592 37.2713C124.178 37.2713 126.772 35.0402 126.772 31.5811C126.772 27.3596 122.97 26.6935 119.912 26.1557L119.928 26.1638Z" fill="white"/>
<path d="M138.715 18.1059C136.162 18.1059 134.481 19.0289 133.4 20.0963V11.894H130.63V36.9903H133.4V26.4205C133.4 22.9053 135.321 20.8106 138.539 20.8106C141.541 20.8106 143.262 22.6806 143.262 25.931V36.9903H146.032V25.7223C146.032 21.1637 143.094 18.1059 138.715 18.1059Z" fill="white"/>
<path d="M158.239 32.3514L152.323 18.3867H149.25L156.726 36.0512C155.485 39.1732 154.044 40.3931 151.627 40.3931H150.466V43.1058H151.659C155.541 43.1058 157.935 41.0512 159.648 36.2278L166.316 18.3947H163.33L158.239 32.3594V32.3514Z" fill="white"/>
<path d="M169.942 33.9004H167.132V36.9983H169.942V33.9004Z" fill="white"/>
<path d="M177.074 11.894H174.305V14.8154H177.074V11.894Z" fill="#38BDF8"/>
<path d="M177.074 18.3867H174.305V36.9902H177.074V18.3867Z" fill="white"/>
<path d="M190.474 18.106C185.111 18.106 180.917 22.3034 180.917 27.6565C180.917 33.0096 185.119 37.2392 190.474 37.2392C195.829 37.2392 200 33.0257 200 27.6565C200 22.2873 195.813 18.106 190.474 18.106ZM190.474 34.5265C186.608 34.5265 183.686 31.5891 183.686 27.6886C183.686 23.7881 186.6 20.8106 190.474 20.8106C194.349 20.8106 197.222 23.7641 197.222 27.6886C197.222 31.6132 194.317 34.5265 190.474 34.5265Z" fill="white"/>
<path d="M65.2791 18.106C60.2441 18.106 55.9215 21.9904 55.7054 27.0305C55.4652 32.5201 59.6518 36.886 65.047 36.886C68.385 36.886 70.5143 35.4013 71.731 34.1332V34.671C71.731 38.3387 69.4576 40.3531 65.3272 40.3531C65.2631 40.3531 65.2151 40.3531 65.1511 40.3531V43.0979H65.1591C70.7384 43.1782 74.5007 39.7753 74.5007 34.679V27.1348C74.5007 22.1509 70.4743 18.114 65.5033 18.114H65.2871L65.2791 18.106ZM65.1431 34.1814C61.3328 34.1814 58.459 31.3162 58.459 27.5201C58.459 23.7239 61.3328 20.8186 65.1431 20.8186C68.9533 20.8186 71.8271 23.6999 71.8271 27.5201C71.8271 31.3403 68.9533 34.1814 65.1431 34.1814Z" fill="white"/>
</svg>
