<svg width="99" height="207" viewBox="0 0 99 207" fill="none" xmlns="http://www.w3.org/2000/svg">
<g opacity="0.5">
<circle cx="96.7129" cy="1.69672" r="1.69672" transform="rotate(90 96.7129 1.69672)" fill="#BFDBFE"/>
<circle cx="96.7129" cy="15.2705" r="1.69672" transform="rotate(90 96.7129 15.2705)" fill="#BFDBFE"/>
<circle cx="96.7129" cy="28.8442" r="1.69672" transform="rotate(90 96.7129 28.8442)" fill="#BFDBFE"/>
<circle cx="96.7129" cy="42.418" r="1.69672" transform="rotate(90 96.7129 42.418)" fill="#BFDBFE"/>
<circle cx="96.7129" cy="55.9918" r="1.69672" transform="rotate(90 96.7129 55.9918)" fill="#BFDBFE"/>
<circle cx="96.7129" cy="69.5656" r="1.69672" transform="rotate(90 96.7129 69.5656)" fill="#BFDBFE"/>
<circle cx="96.7129" cy="83.1394" r="1.69672" transform="rotate(90 96.7129 83.1394)" fill="#BFDBFE"/>
<circle cx="96.7129" cy="96.7131" r="1.69672" transform="rotate(90 96.7129 96.7131)" fill="#BFDBFE"/>
<circle cx="96.7129" cy="110.287" r="1.69672" transform="rotate(90 96.7129 110.287)" fill="#BFDBFE"/>
<circle cx="96.7129" cy="123.861" r="1.69672" transform="rotate(90 96.7129 123.861)" fill="#BFDBFE"/>
<circle cx="96.7129" cy="137.434" r="1.69672" transform="rotate(90 96.7129 137.434)" fill="#BFDBFE"/>
<circle cx="96.7129" cy="151.008" r="1.69672" transform="rotate(90 96.7129 151.008)" fill="#BFDBFE"/>
<circle cx="96.7129" cy="164.582" r="1.69672" transform="rotate(90 96.7129 164.582)" fill="#BFDBFE"/>
<circle cx="96.7129" cy="178.156" r="1.69672" transform="rotate(90 96.7129 178.156)" fill="#BFDBFE"/>
<circle cx="96.7129" cy="191.73" r="1.69672" transform="rotate(90 96.7129 191.73)" fill="#BFDBFE"/>
<circle cx="96.7129" cy="205.303" r="1.69672" transform="rotate(90 96.7129 205.303)" fill="#BFDBFE"/>
<circle cx="83.1392" cy="1.69672" r="1.69672" transform="rotate(90 83.1392 1.69672)" fill="#BFDBFE"/>
<circle cx="83.1392" cy="15.2705" r="1.69672" transform="rotate(90 83.1392 15.2705)" fill="#BFDBFE"/>
<circle cx="83.1392" cy="28.8442" r="1.69672" transform="rotate(90 83.1392 28.8442)" fill="#BFDBFE"/>
<circle cx="83.1392" cy="42.418" r="1.69672" transform="rotate(90 83.1392 42.418)" fill="#BFDBFE"/>
<circle cx="83.1392" cy="55.9918" r="1.69672" transform="rotate(90 83.1392 55.9918)" fill="#BFDBFE"/>
<circle cx="83.1392" cy="69.5656" r="1.69672" transform="rotate(90 83.1392 69.5656)" fill="#BFDBFE"/>
<circle cx="83.1392" cy="83.1394" r="1.69672" transform="rotate(90 83.1392 83.1394)" fill="#BFDBFE"/>
<circle cx="83.1392" cy="96.7131" r="1.69672" transform="rotate(90 83.1392 96.7131)" fill="#BFDBFE"/>
<circle cx="83.1392" cy="110.287" r="1.69672" transform="rotate(90 83.1392 110.287)" fill="#BFDBFE"/>
<circle cx="83.1392" cy="123.861" r="1.69672" transform="rotate(90 83.1392 123.861)" fill="#BFDBFE"/>
<circle cx="83.1392" cy="137.434" r="1.69672" transform="rotate(90 83.1392 137.434)" fill="#BFDBFE"/>
<circle cx="83.1392" cy="151.008" r="1.69672" transform="rotate(90 83.1392 151.008)" fill="#BFDBFE"/>
<circle cx="83.1392" cy="164.582" r="1.69672" transform="rotate(90 83.1392 164.582)" fill="#BFDBFE"/>
<circle cx="83.1392" cy="178.156" r="1.69672" transform="rotate(90 83.1392 178.156)" fill="#BFDBFE"/>
<circle cx="83.1392" cy="191.73" r="1.69672" transform="rotate(90 83.1392 191.73)" fill="#BFDBFE"/>
<circle cx="83.1392" cy="205.303" r="1.69672" transform="rotate(90 83.1392 205.303)" fill="#BFDBFE"/>
<circle cx="69.5655" cy="1.69672" r="1.69672" transform="rotate(90 69.5655 1.69672)" fill="#BFDBFE"/>
<circle cx="69.5655" cy="15.2705" r="1.69672" transform="rotate(90 69.5655 15.2705)" fill="#BFDBFE"/>
<circle cx="69.5655" cy="28.8442" r="1.69672" transform="rotate(90 69.5655 28.8442)" fill="#BFDBFE"/>
<circle cx="69.5655" cy="42.418" r="1.69672" transform="rotate(90 69.5655 42.418)" fill="#BFDBFE"/>
<circle cx="69.5655" cy="55.9918" r="1.69672" transform="rotate(90 69.5655 55.9918)" fill="#BFDBFE"/>
<circle cx="69.5655" cy="69.5656" r="1.69672" transform="rotate(90 69.5655 69.5656)" fill="#BFDBFE"/>
<circle cx="69.5655" cy="83.1394" r="1.69672" transform="rotate(90 69.5655 83.1394)" fill="#BFDBFE"/>
<circle cx="69.5655" cy="96.7131" r="1.69672" transform="rotate(90 69.5655 96.7131)" fill="#BFDBFE"/>
<circle cx="69.5655" cy="110.287" r="1.69672" transform="rotate(90 69.5655 110.287)" fill="#BFDBFE"/>
<circle cx="69.5655" cy="123.861" r="1.69672" transform="rotate(90 69.5655 123.861)" fill="#BFDBFE"/>
<circle cx="69.5655" cy="137.434" r="1.69672" transform="rotate(90 69.5655 137.434)" fill="#BFDBFE"/>
<circle cx="69.5655" cy="151.008" r="1.69672" transform="rotate(90 69.5655 151.008)" fill="#BFDBFE"/>
<circle cx="69.5655" cy="164.582" r="1.69672" transform="rotate(90 69.5655 164.582)" fill="#BFDBFE"/>
<circle cx="69.5655" cy="178.156" r="1.69672" transform="rotate(90 69.5655 178.156)" fill="#BFDBFE"/>
<circle cx="69.5655" cy="191.73" r="1.69672" transform="rotate(90 69.5655 191.73)" fill="#BFDBFE"/>
<circle cx="69.5655" cy="205.303" r="1.69672" transform="rotate(90 69.5655 205.303)" fill="#BFDBFE"/>
<circle cx="55.9918" cy="1.69672" r="1.69672" transform="rotate(90 55.9918 1.69672)" fill="#BFDBFE"/>
<circle cx="55.9918" cy="15.2705" r="1.69672" transform="rotate(90 55.9918 15.2705)" fill="#BFDBFE"/>
<circle cx="55.9918" cy="28.8442" r="1.69672" transform="rotate(90 55.9918 28.8442)" fill="#BFDBFE"/>
<circle cx="55.9918" cy="42.418" r="1.69672" transform="rotate(90 55.9918 42.418)" fill="#BFDBFE"/>
<circle cx="55.9918" cy="55.9918" r="1.69672" transform="rotate(90 55.9918 55.9918)" fill="#BFDBFE"/>
<circle cx="55.9918" cy="69.5656" r="1.69672" transform="rotate(90 55.9918 69.5656)" fill="#BFDBFE"/>
<circle cx="55.9918" cy="83.1394" r="1.69672" transform="rotate(90 55.9918 83.1394)" fill="#BFDBFE"/>
<circle cx="55.9918" cy="96.7131" r="1.69672" transform="rotate(90 55.9918 96.7131)" fill="#BFDBFE"/>
<circle cx="55.9918" cy="110.287" r="1.69672" transform="rotate(90 55.9918 110.287)" fill="#BFDBFE"/>
<circle cx="55.9918" cy="123.861" r="1.69672" transform="rotate(90 55.9918 123.861)" fill="#BFDBFE"/>
<circle cx="55.9918" cy="137.434" r="1.69672" transform="rotate(90 55.9918 137.434)" fill="#BFDBFE"/>
<circle cx="55.9918" cy="151.008" r="1.69672" transform="rotate(90 55.9918 151.008)" fill="#BFDBFE"/>
<circle cx="55.9918" cy="164.582" r="1.69672" transform="rotate(90 55.9918 164.582)" fill="#BFDBFE"/>
<circle cx="55.9918" cy="178.156" r="1.69672" transform="rotate(90 55.9918 178.156)" fill="#BFDBFE"/>
<circle cx="55.9918" cy="191.73" r="1.69672" transform="rotate(90 55.9918 191.73)" fill="#BFDBFE"/>
<circle cx="55.9918" cy="205.303" r="1.69672" transform="rotate(90 55.9918 205.303)" fill="#BFDBFE"/>
<circle cx="42.418" cy="1.69672" r="1.69672" transform="rotate(90 42.418 1.69672)" fill="#BFDBFE"/>
<circle cx="42.418" cy="15.2705" r="1.69672" transform="rotate(90 42.418 15.2705)" fill="#BFDBFE"/>
<circle cx="42.418" cy="28.8442" r="1.69672" transform="rotate(90 42.418 28.8442)" fill="#BFDBFE"/>
<circle cx="42.418" cy="42.418" r="1.69672" transform="rotate(90 42.418 42.418)" fill="#BFDBFE"/>
<circle cx="42.418" cy="55.9918" r="1.69672" transform="rotate(90 42.418 55.9918)" fill="#BFDBFE"/>
<circle cx="42.418" cy="69.5656" r="1.69672" transform="rotate(90 42.418 69.5656)" fill="#BFDBFE"/>
<circle cx="42.418" cy="83.1394" r="1.69672" transform="rotate(90 42.418 83.1394)" fill="#BFDBFE"/>
<circle cx="42.418" cy="96.7131" r="1.69672" transform="rotate(90 42.418 96.7131)" fill="#BFDBFE"/>
<circle cx="42.418" cy="110.287" r="1.69672" transform="rotate(90 42.418 110.287)" fill="#BFDBFE"/>
<circle cx="42.418" cy="123.861" r="1.69672" transform="rotate(90 42.418 123.861)" fill="#BFDBFE"/>
<circle cx="42.418" cy="137.434" r="1.69672" transform="rotate(90 42.418 137.434)" fill="#BFDBFE"/>
<circle cx="42.418" cy="151.008" r="1.69672" transform="rotate(90 42.418 151.008)" fill="#BFDBFE"/>
<circle cx="42.418" cy="164.582" r="1.69672" transform="rotate(90 42.418 164.582)" fill="#BFDBFE"/>
<circle cx="42.418" cy="178.156" r="1.69672" transform="rotate(90 42.418 178.156)" fill="#BFDBFE"/>
<circle cx="42.418" cy="191.73" r="1.69672" transform="rotate(90 42.418 191.73)" fill="#BFDBFE"/>
<circle cx="42.418" cy="205.303" r="1.69672" transform="rotate(90 42.418 205.303)" fill="#BFDBFE"/>
<circle cx="28.8443" cy="1.69672" r="1.69672" transform="rotate(90 28.8443 1.69672)" fill="#BFDBFE"/>
<circle cx="28.8443" cy="15.2705" r="1.69672" transform="rotate(90 28.8443 15.2705)" fill="#BFDBFE"/>
<circle cx="28.8443" cy="28.8442" r="1.69672" transform="rotate(90 28.8443 28.8442)" fill="#BFDBFE"/>
<circle cx="28.8443" cy="42.418" r="1.69672" transform="rotate(90 28.8443 42.418)" fill="#BFDBFE"/>
<circle cx="28.8443" cy="55.9918" r="1.69672" transform="rotate(90 28.8443 55.9918)" fill="#BFDBFE"/>
<circle cx="28.8443" cy="69.5656" r="1.69672" transform="rotate(90 28.8443 69.5656)" fill="#BFDBFE"/>
<circle cx="28.8443" cy="83.1394" r="1.69672" transform="rotate(90 28.8443 83.1394)" fill="#BFDBFE"/>
<circle cx="28.8443" cy="96.7131" r="1.69672" transform="rotate(90 28.8443 96.7131)" fill="#BFDBFE"/>
<circle cx="28.8443" cy="110.287" r="1.69672" transform="rotate(90 28.8443 110.287)" fill="#BFDBFE"/>
<circle cx="28.8443" cy="123.861" r="1.69672" transform="rotate(90 28.8443 123.861)" fill="#BFDBFE"/>
<circle cx="28.8443" cy="137.434" r="1.69672" transform="rotate(90 28.8443 137.434)" fill="#BFDBFE"/>
<circle cx="28.8443" cy="151.008" r="1.69672" transform="rotate(90 28.8443 151.008)" fill="#BFDBFE"/>
<circle cx="28.8443" cy="164.582" r="1.69672" transform="rotate(90 28.8443 164.582)" fill="#BFDBFE"/>
<circle cx="28.8443" cy="178.156" r="1.69672" transform="rotate(90 28.8443 178.156)" fill="#BFDBFE"/>
<circle cx="28.8443" cy="191.73" r="1.69672" transform="rotate(90 28.8443 191.73)" fill="#BFDBFE"/>
<circle cx="28.8443" cy="205.303" r="1.69672" transform="rotate(90 28.8443 205.303)" fill="#BFDBFE"/>
<circle cx="15.2701" cy="1.69672" r="1.69672" transform="rotate(90 15.2701 1.69672)" fill="#BFDBFE"/>
<circle cx="15.2701" cy="15.2705" r="1.69672" transform="rotate(90 15.2701 15.2705)" fill="#BFDBFE"/>
<circle cx="15.2701" cy="28.8442" r="1.69672" transform="rotate(90 15.2701 28.8442)" fill="#BFDBFE"/>
<circle cx="15.2701" cy="42.418" r="1.69672" transform="rotate(90 15.2701 42.418)" fill="#BFDBFE"/>
<circle cx="15.2701" cy="55.9918" r="1.69672" transform="rotate(90 15.2701 55.9918)" fill="#BFDBFE"/>
<circle cx="15.2701" cy="69.5656" r="1.69672" transform="rotate(90 15.2701 69.5656)" fill="#BFDBFE"/>
<circle cx="15.2701" cy="83.1394" r="1.69672" transform="rotate(90 15.2701 83.1394)" fill="#BFDBFE"/>
<circle cx="15.2701" cy="96.7131" r="1.69672" transform="rotate(90 15.2701 96.7131)" fill="#BFDBFE"/>
<circle cx="15.2701" cy="110.287" r="1.69672" transform="rotate(90 15.2701 110.287)" fill="#BFDBFE"/>
<circle cx="15.2701" cy="123.861" r="1.69672" transform="rotate(90 15.2701 123.861)" fill="#BFDBFE"/>
<circle cx="15.2701" cy="137.434" r="1.69672" transform="rotate(90 15.2701 137.434)" fill="#BFDBFE"/>
<circle cx="15.2701" cy="151.008" r="1.69672" transform="rotate(90 15.2701 151.008)" fill="#BFDBFE"/>
<circle cx="15.2701" cy="164.582" r="1.69672" transform="rotate(90 15.2701 164.582)" fill="#BFDBFE"/>
<circle cx="15.2701" cy="178.156" r="1.69672" transform="rotate(90 15.2701 178.156)" fill="#BFDBFE"/>
<circle cx="15.2701" cy="191.73" r="1.69672" transform="rotate(90 15.2701 191.73)" fill="#BFDBFE"/>
<circle cx="15.2701" cy="205.303" r="1.69672" transform="rotate(90 15.2701 205.303)" fill="#BFDBFE"/>
<circle cx="1.69634" cy="1.69672" r="1.69672" transform="rotate(90 1.69634 1.69672)" fill="#BFDBFE"/>
<circle cx="1.69634" cy="15.2705" r="1.69672" transform="rotate(90 1.69634 15.2705)" fill="#BFDBFE"/>
<circle cx="1.69634" cy="28.8442" r="1.69672" transform="rotate(90 1.69634 28.8442)" fill="#BFDBFE"/>
<circle cx="1.69634" cy="42.418" r="1.69672" transform="rotate(90 1.69634 42.418)" fill="#BFDBFE"/>
<circle cx="1.69634" cy="55.9918" r="1.69672" transform="rotate(90 1.69634 55.9918)" fill="#BFDBFE"/>
<circle cx="1.69634" cy="69.5656" r="1.69672" transform="rotate(90 1.69634 69.5656)" fill="#BFDBFE"/>
<circle cx="1.69634" cy="83.1394" r="1.69672" transform="rotate(90 1.69634 83.1394)" fill="#BFDBFE"/>
<circle cx="1.69634" cy="96.7131" r="1.69672" transform="rotate(90 1.69634 96.7131)" fill="#BFDBFE"/>
<circle cx="1.69634" cy="110.287" r="1.69672" transform="rotate(90 1.69634 110.287)" fill="#BFDBFE"/>
<circle cx="1.69634" cy="123.861" r="1.69672" transform="rotate(90 1.69634 123.861)" fill="#BFDBFE"/>
<circle cx="1.69634" cy="137.434" r="1.69672" transform="rotate(90 1.69634 137.434)" fill="#BFDBFE"/>
<circle cx="1.69634" cy="151.008" r="1.69672" transform="rotate(90 1.69634 151.008)" fill="#BFDBFE"/>
<circle cx="1.69634" cy="164.582" r="1.69672" transform="rotate(90 1.69634 164.582)" fill="#BFDBFE"/>
<circle cx="1.69634" cy="178.156" r="1.69672" transform="rotate(90 1.69634 178.156)" fill="#BFDBFE"/>
<circle cx="1.69634" cy="191.73" r="1.69672" transform="rotate(90 1.69634 191.73)" fill="#BFDBFE"/>
<circle cx="1.69634" cy="205.303" r="1.69672" transform="rotate(90 1.69634 205.303)" fill="#BFDBFE"/>
</g>
</svg>
