<svg width="112" height="99" viewBox="0 0 112 99" fill="none" xmlns="http://www.w3.org/2000/svg">
<g opacity="0.5">
<path d="M1.71333 3.39344C2.6504 3.39344 3.41004 2.63379 3.41004 1.69672C3.41004 0.759647 2.6504 0 1.71333 0C0.776253 0 0.0166016 0.759647 0.0166016 1.69672C0.0166016 2.63379 0.776253 3.39344 1.71333 3.39344Z" fill="#BFDBFE"/>
<path d="M15.2871 3.39344C16.2241 3.39344 16.9838 2.63379 16.9838 1.69672C16.9838 0.759647 16.2241 0 15.2871 0C14.35 0 13.5903 0.759647 13.5903 1.69672C13.5903 2.63379 14.35 3.39344 15.2871 3.39344Z" fill="#BFDBFE"/>
<path d="M28.8608 3.39344C29.7979 3.39344 30.5575 2.63379 30.5575 1.69672C30.5575 0.759647 29.7979 0 28.8608 0C27.9237 0 27.1641 0.759647 27.1641 1.69672C27.1641 2.63379 27.9237 3.39344 28.8608 3.39344Z" fill="#BFDBFE"/>
<path d="M42.435 3.39344C43.3721 3.39344 44.1317 2.63379 44.1317 1.69672C44.1317 0.759647 43.3721 0 42.435 0C41.4979 0 40.7383 0.759647 40.7383 1.69672C40.7383 2.63379 41.4979 3.39344 42.435 3.39344Z" fill="#BFDBFE"/>
<path d="M56.0082 3.39344C56.9453 3.39344 57.705 2.63379 57.705 1.69672C57.705 0.759647 56.9453 0 56.0082 0C55.0712 0 54.3115 0.759647 54.3115 1.69672C54.3115 2.63379 55.0712 3.39344 56.0082 3.39344Z" fill="#BFDBFE"/>
<path d="M69.582 3.39344C70.519 3.39344 71.2787 2.63379 71.2787 1.69672C71.2787 0.759647 70.519 0 69.582 0C68.6449 0 67.8853 0.759647 67.8853 1.69672C67.8853 2.63379 68.6449 3.39344 69.582 3.39344Z" fill="#BFDBFE"/>
<path d="M83.1562 3.39344C84.0933 3.39344 84.8529 2.63379 84.8529 1.69672C84.8529 0.759647 84.0933 0 83.1562 0C82.2191 0 81.4595 0.759647 81.4595 1.69672C81.4595 2.63379 82.2191 3.39344 83.1562 3.39344Z" fill="#BFDBFE"/>
<path d="M96.7289 3.39344C97.666 3.39344 98.4257 2.63379 98.4257 1.69672C98.4257 0.759647 97.666 0 96.7289 0C95.7919 0 95.0322 0.759647 95.0322 1.69672C95.0322 2.63379 95.7919 3.39344 96.7289 3.39344Z" fill="#BFDBFE"/>
<path d="M110.303 3.39344C111.24 3.39344 112 2.63379 112 1.69672C112 0.759647 111.24 0 110.303 0C109.366 0 108.606 0.759647 108.606 1.69672C108.606 2.63379 109.366 3.39344 110.303 3.39344Z" fill="#BFDBFE"/>
<path d="M1.71333 16.9672C2.6504 16.9672 3.41004 16.2075 3.41004 15.2705C3.41004 14.3334 2.6504 13.5737 1.71333 13.5737C0.776253 13.5737 0.0166016 14.3334 0.0166016 15.2705C0.0166016 16.2075 0.776253 16.9672 1.71333 16.9672Z" fill="#BFDBFE"/>
<path d="M15.2871 16.9672C16.2241 16.9672 16.9838 16.2075 16.9838 15.2705C16.9838 14.3334 16.2241 13.5737 15.2871 13.5737C14.35 13.5737 13.5903 14.3334 13.5903 15.2705C13.5903 16.2075 14.35 16.9672 15.2871 16.9672Z" fill="#BFDBFE"/>
<path d="M28.8608 16.9672C29.7979 16.9672 30.5575 16.2075 30.5575 15.2705C30.5575 14.3334 29.7979 13.5737 28.8608 13.5737C27.9237 13.5737 27.1641 14.3334 27.1641 15.2705C27.1641 16.2075 27.9237 16.9672 28.8608 16.9672Z" fill="#BFDBFE"/>
<path d="M42.435 16.9672C43.3721 16.9672 44.1317 16.2075 44.1317 15.2705C44.1317 14.3334 43.3721 13.5737 42.435 13.5737C41.4979 13.5737 40.7383 14.3334 40.7383 15.2705C40.7383 16.2075 41.4979 16.9672 42.435 16.9672Z" fill="#BFDBFE"/>
<path d="M56.0082 16.9672C56.9453 16.9672 57.705 16.2075 57.705 15.2705C57.705 14.3334 56.9453 13.5737 56.0082 13.5737C55.0712 13.5737 54.3115 14.3334 54.3115 15.2705C54.3115 16.2075 55.0712 16.9672 56.0082 16.9672Z" fill="#BFDBFE"/>
<path d="M69.582 16.9672C70.519 16.9672 71.2787 16.2075 71.2787 15.2705C71.2787 14.3334 70.519 13.5737 69.582 13.5737C68.6449 13.5737 67.8853 14.3334 67.8853 15.2705C67.8853 16.2075 68.6449 16.9672 69.582 16.9672Z" fill="#BFDBFE"/>
<path d="M83.1562 16.9672C84.0933 16.9672 84.8529 16.2075 84.8529 15.2705C84.8529 14.3334 84.0933 13.5737 83.1562 13.5737C82.2191 13.5737 81.4595 14.3334 81.4595 15.2705C81.4595 16.2075 82.2191 16.9672 83.1562 16.9672Z" fill="#BFDBFE"/>
<path d="M96.7289 16.9672C97.666 16.9672 98.4257 16.2075 98.4257 15.2705C98.4257 14.3334 97.666 13.5737 96.7289 13.5737C95.7919 13.5737 95.0322 14.3334 95.0322 15.2705C95.0322 16.2075 95.7919 16.9672 96.7289 16.9672Z" fill="#BFDBFE"/>
<path d="M110.303 16.9672C111.24 16.9672 112 16.2075 112 15.2705C112 14.3334 111.24 13.5737 110.303 13.5737C109.366 13.5737 108.606 14.3334 108.606 15.2705C108.606 16.2075 109.366 16.9672 110.303 16.9672Z" fill="#BFDBFE"/>
<path d="M1.71333 30.5409C2.6504 30.5409 3.41004 29.7813 3.41004 28.8442C3.41004 27.9071 2.6504 27.1475 1.71333 27.1475C0.776253 27.1475 0.0166016 27.9071 0.0166016 28.8442C0.0166016 29.7813 0.776253 30.5409 1.71333 30.5409Z" fill="#BFDBFE"/>
<path d="M15.2871 30.5409C16.2241 30.5409 16.9838 29.7813 16.9838 28.8442C16.9838 27.9071 16.2241 27.1475 15.2871 27.1475C14.35 27.1475 13.5903 27.9071 13.5903 28.8442C13.5903 29.7813 14.35 30.5409 15.2871 30.5409Z" fill="#BFDBFE"/>
<path d="M28.8608 30.5409C29.7979 30.5409 30.5575 29.7813 30.5575 28.8442C30.5575 27.9071 29.7979 27.1475 28.8608 27.1475C27.9237 27.1475 27.1641 27.9071 27.1641 28.8442C27.1641 29.7813 27.9237 30.5409 28.8608 30.5409Z" fill="#BFDBFE"/>
<path d="M42.435 30.5409C43.3721 30.5409 44.1317 29.7813 44.1317 28.8442C44.1317 27.9071 43.3721 27.1475 42.435 27.1475C41.4979 27.1475 40.7383 27.9071 40.7383 28.8442C40.7383 29.7813 41.4979 30.5409 42.435 30.5409Z" fill="#BFDBFE"/>
<path d="M56.0082 30.5409C56.9453 30.5409 57.705 29.7813 57.705 28.8442C57.705 27.9071 56.9453 27.1475 56.0082 27.1475C55.0712 27.1475 54.3115 27.9071 54.3115 28.8442C54.3115 29.7813 55.0712 30.5409 56.0082 30.5409Z" fill="#BFDBFE"/>
<path d="M69.582 30.5409C70.519 30.5409 71.2787 29.7813 71.2787 28.8442C71.2787 27.9071 70.519 27.1475 69.582 27.1475C68.6449 27.1475 67.8853 27.9071 67.8853 28.8442C67.8853 29.7813 68.6449 30.5409 69.582 30.5409Z" fill="#BFDBFE"/>
<path d="M83.1562 30.5409C84.0933 30.5409 84.8529 29.7813 84.8529 28.8442C84.8529 27.9071 84.0933 27.1475 83.1562 27.1475C82.2191 27.1475 81.4595 27.9071 81.4595 28.8442C81.4595 29.7813 82.2191 30.5409 83.1562 30.5409Z" fill="#BFDBFE"/>
<path d="M96.7289 30.5409C97.666 30.5409 98.4257 29.7813 98.4257 28.8442C98.4257 27.9071 97.666 27.1475 96.7289 27.1475C95.7919 27.1475 95.0322 27.9071 95.0322 28.8442C95.0322 29.7813 95.7919 30.5409 96.7289 30.5409Z" fill="#BFDBFE"/>
<path d="M110.303 30.5409C111.24 30.5409 112 29.7813 112 28.8442C112 27.9071 111.24 27.1475 110.303 27.1475C109.366 27.1475 108.606 27.9071 108.606 28.8442C108.606 29.7813 109.366 30.5409 110.303 30.5409Z" fill="#BFDBFE"/>
<path d="M1.71333 44.1148C2.6504 44.1148 3.41004 43.3551 3.41004 42.418C3.41004 41.481 2.6504 40.7213 1.71333 40.7213C0.776253 40.7213 0.0166016 41.481 0.0166016 42.418C0.0166016 43.3551 0.776253 44.1148 1.71333 44.1148Z" fill="#BFDBFE"/>
<path d="M15.2871 44.1148C16.2241 44.1148 16.9838 43.3551 16.9838 42.418C16.9838 41.481 16.2241 40.7213 15.2871 40.7213C14.35 40.7213 13.5903 41.481 13.5903 42.418C13.5903 43.3551 14.35 44.1148 15.2871 44.1148Z" fill="#BFDBFE"/>
<path d="M28.8608 44.1148C29.7979 44.1148 30.5575 43.3551 30.5575 42.418C30.5575 41.481 29.7979 40.7213 28.8608 40.7213C27.9237 40.7213 27.1641 41.481 27.1641 42.418C27.1641 43.3551 27.9237 44.1148 28.8608 44.1148Z" fill="#BFDBFE"/>
<path d="M42.435 44.1148C43.3721 44.1148 44.1317 43.3551 44.1317 42.418C44.1317 41.481 43.3721 40.7213 42.435 40.7213C41.4979 40.7213 40.7383 41.481 40.7383 42.418C40.7383 43.3551 41.4979 44.1148 42.435 44.1148Z" fill="#BFDBFE"/>
<path d="M56.0082 44.1148C56.9453 44.1148 57.705 43.3551 57.705 42.418C57.705 41.481 56.9453 40.7213 56.0082 40.7213C55.0712 40.7213 54.3115 41.481 54.3115 42.418C54.3115 43.3551 55.0712 44.1148 56.0082 44.1148Z" fill="#BFDBFE"/>
<path d="M69.582 44.1148C70.519 44.1148 71.2787 43.3551 71.2787 42.418C71.2787 41.481 70.519 40.7213 69.582 40.7213C68.6449 40.7213 67.8853 41.481 67.8853 42.418C67.8853 43.3551 68.6449 44.1148 69.582 44.1148Z" fill="#BFDBFE"/>
<path d="M83.1562 44.1148C84.0933 44.1148 84.8529 43.3551 84.8529 42.418C84.8529 41.481 84.0933 40.7213 83.1562 40.7213C82.2191 40.7213 81.4595 41.481 81.4595 42.418C81.4595 43.3551 82.2191 44.1148 83.1562 44.1148Z" fill="#BFDBFE"/>
<path d="M96.7289 44.1148C97.666 44.1148 98.4257 43.3551 98.4257 42.418C98.4257 41.481 97.666 40.7213 96.7289 40.7213C95.7919 40.7213 95.0322 41.481 95.0322 42.418C95.0322 43.3551 95.7919 44.1148 96.7289 44.1148Z" fill="#BFDBFE"/>
<path d="M110.303 44.1148C111.24 44.1148 112 43.3551 112 42.418C112 41.481 111.24 40.7213 110.303 40.7213C109.366 40.7213 108.606 41.481 108.606 42.418C108.606 43.3551 109.366 44.1148 110.303 44.1148Z" fill="#BFDBFE"/>
<path d="M1.71333 57.6885C2.6504 57.6885 3.41004 56.9288 3.41004 55.9918C3.41004 55.0547 2.6504 54.295 1.71333 54.295C0.776253 54.295 0.0166016 55.0547 0.0166016 55.9918C0.0166016 56.9288 0.776253 57.6885 1.71333 57.6885Z" fill="#BFDBFE"/>
<path d="M15.2871 57.6885C16.2241 57.6885 16.9838 56.9288 16.9838 55.9918C16.9838 55.0547 16.2241 54.295 15.2871 54.295C14.35 54.295 13.5903 55.0547 13.5903 55.9918C13.5903 56.9288 14.35 57.6885 15.2871 57.6885Z" fill="#BFDBFE"/>
<path d="M28.8608 57.6885C29.7979 57.6885 30.5575 56.9288 30.5575 55.9918C30.5575 55.0547 29.7979 54.295 28.8608 54.295C27.9237 54.295 27.1641 55.0547 27.1641 55.9918C27.1641 56.9288 27.9237 57.6885 28.8608 57.6885Z" fill="#BFDBFE"/>
<path d="M42.435 57.6885C43.3721 57.6885 44.1317 56.9288 44.1317 55.9918C44.1317 55.0547 43.3721 54.295 42.435 54.295C41.4979 54.295 40.7383 55.0547 40.7383 55.9918C40.7383 56.9288 41.4979 57.6885 42.435 57.6885Z" fill="#BFDBFE"/>
<path d="M56.0082 57.6885C56.9453 57.6885 57.705 56.9288 57.705 55.9918C57.705 55.0547 56.9453 54.295 56.0082 54.295C55.0712 54.295 54.3115 55.0547 54.3115 55.9918C54.3115 56.9288 55.0712 57.6885 56.0082 57.6885Z" fill="#BFDBFE"/>
<path d="M69.582 57.6885C70.519 57.6885 71.2787 56.9288 71.2787 55.9918C71.2787 55.0547 70.519 54.295 69.582 54.295C68.6449 54.295 67.8853 55.0547 67.8853 55.9918C67.8853 56.9288 68.6449 57.6885 69.582 57.6885Z" fill="#BFDBFE"/>
<path d="M83.1562 57.6885C84.0933 57.6885 84.8529 56.9288 84.8529 55.9918C84.8529 55.0547 84.0933 54.295 83.1562 54.295C82.2191 54.295 81.4595 55.0547 81.4595 55.9918C81.4595 56.9288 82.2191 57.6885 83.1562 57.6885Z" fill="#BFDBFE"/>
<path d="M96.7289 57.6885C97.666 57.6885 98.4257 56.9288 98.4257 55.9918C98.4257 55.0547 97.666 54.295 96.7289 54.295C95.7919 54.295 95.0322 55.0547 95.0322 55.9918C95.0322 56.9288 95.7919 57.6885 96.7289 57.6885Z" fill="#BFDBFE"/>
<path d="M110.303 57.6885C111.24 57.6885 112 56.9288 112 55.9918C112 55.0547 111.24 54.295 110.303 54.295C109.366 54.295 108.606 55.0547 108.606 55.9918C108.606 56.9288 109.366 57.6885 110.303 57.6885Z" fill="#BFDBFE"/>
<path d="M1.71333 71.2623C2.6504 71.2623 3.41004 70.5027 3.41004 69.5656C3.41004 68.6285 2.6504 67.8689 1.71333 67.8689C0.776253 67.8689 0.0166016 68.6285 0.0166016 69.5656C0.0166016 70.5027 0.776253 71.2623 1.71333 71.2623Z" fill="#BFDBFE"/>
<path d="M15.2871 71.2623C16.2241 71.2623 16.9838 70.5027 16.9838 69.5656C16.9838 68.6285 16.2241 67.8689 15.2871 67.8689C14.35 67.8689 13.5903 68.6285 13.5903 69.5656C13.5903 70.5027 14.35 71.2623 15.2871 71.2623Z" fill="#BFDBFE"/>
<path d="M28.8608 71.2623C29.7979 71.2623 30.5575 70.5027 30.5575 69.5656C30.5575 68.6285 29.7979 67.8689 28.8608 67.8689C27.9237 67.8689 27.1641 68.6285 27.1641 69.5656C27.1641 70.5027 27.9237 71.2623 28.8608 71.2623Z" fill="#BFDBFE"/>
<path d="M42.435 71.2623C43.3721 71.2623 44.1317 70.5027 44.1317 69.5656C44.1317 68.6285 43.3721 67.8689 42.435 67.8689C41.4979 67.8689 40.7383 68.6285 40.7383 69.5656C40.7383 70.5027 41.4979 71.2623 42.435 71.2623Z" fill="#BFDBFE"/>
<path d="M56.0082 71.2623C56.9453 71.2623 57.705 70.5027 57.705 69.5656C57.705 68.6285 56.9453 67.8689 56.0082 67.8689C55.0712 67.8689 54.3115 68.6285 54.3115 69.5656C54.3115 70.5027 55.0712 71.2623 56.0082 71.2623Z" fill="#BFDBFE"/>
<path d="M69.582 71.2623C70.519 71.2623 71.2787 70.5027 71.2787 69.5656C71.2787 68.6285 70.519 67.8689 69.582 67.8689C68.6449 67.8689 67.8853 68.6285 67.8853 69.5656C67.8853 70.5027 68.6449 71.2623 69.582 71.2623Z" fill="#BFDBFE"/>
<path d="M83.1562 71.2623C84.0933 71.2623 84.8529 70.5027 84.8529 69.5656C84.8529 68.6285 84.0933 67.8689 83.1562 67.8689C82.2191 67.8689 81.4595 68.6285 81.4595 69.5656C81.4595 70.5027 82.2191 71.2623 83.1562 71.2623Z" fill="#BFDBFE"/>
<path d="M96.7289 71.2623C97.666 71.2623 98.4257 70.5027 98.4257 69.5656C98.4257 68.6285 97.666 67.8689 96.7289 67.8689C95.7919 67.8689 95.0322 68.6285 95.0322 69.5656C95.0322 70.5027 95.7919 71.2623 96.7289 71.2623Z" fill="#BFDBFE"/>
<path d="M110.303 71.2623C111.24 71.2623 112 70.5027 112 69.5656C112 68.6285 111.24 67.8689 110.303 67.8689C109.366 67.8689 108.606 68.6285 108.606 69.5656C108.606 70.5027 109.366 71.2623 110.303 71.2623Z" fill="#BFDBFE"/>
<path d="M1.71333 84.8361C2.6504 84.8361 3.41004 84.0764 3.41004 83.1393C3.41004 82.2023 2.6504 81.4426 1.71333 81.4426C0.776253 81.4426 0.0166016 82.2023 0.0166016 83.1393C0.0166016 84.0764 0.776253 84.8361 1.71333 84.8361Z" fill="#BFDBFE"/>
<path d="M15.2871 84.8361C16.2241 84.8361 16.9838 84.0764 16.9838 83.1393C16.9838 82.2023 16.2241 81.4426 15.2871 81.4426C14.35 81.4426 13.5903 82.2023 13.5903 83.1393C13.5903 84.0764 14.35 84.8361 15.2871 84.8361Z" fill="#BFDBFE"/>
<path d="M28.8608 84.8361C29.7979 84.8361 30.5575 84.0764 30.5575 83.1393C30.5575 82.2023 29.7979 81.4426 28.8608 81.4426C27.9237 81.4426 27.1641 82.2023 27.1641 83.1393C27.1641 84.0764 27.9237 84.8361 28.8608 84.8361Z" fill="#BFDBFE"/>
<path d="M42.435 84.8361C43.3721 84.8361 44.1317 84.0764 44.1317 83.1393C44.1317 82.2023 43.3721 81.4426 42.435 81.4426C41.4979 81.4426 40.7383 82.2023 40.7383 83.1393C40.7383 84.0764 41.4979 84.8361 42.435 84.8361Z" fill="#BFDBFE"/>
<path d="M56.0082 84.8361C56.9453 84.8361 57.705 84.0764 57.705 83.1393C57.705 82.2023 56.9453 81.4426 56.0082 81.4426C55.0712 81.4426 54.3115 82.2023 54.3115 83.1393C54.3115 84.0764 55.0712 84.8361 56.0082 84.8361Z" fill="#BFDBFE"/>
<path d="M69.582 84.8361C70.519 84.8361 71.2787 84.0764 71.2787 83.1393C71.2787 82.2023 70.519 81.4426 69.582 81.4426C68.6449 81.4426 67.8853 82.2023 67.8853 83.1393C67.8853 84.0764 68.6449 84.8361 69.582 84.8361Z" fill="#BFDBFE"/>
<path d="M83.1562 84.8361C84.0933 84.8361 84.8529 84.0764 84.8529 83.1393C84.8529 82.2023 84.0933 81.4426 83.1562 81.4426C82.2191 81.4426 81.4595 82.2023 81.4595 83.1393C81.4595 84.0764 82.2191 84.8361 83.1562 84.8361Z" fill="#BFDBFE"/>
<path d="M96.7289 84.8361C97.666 84.8361 98.4257 84.0764 98.4257 83.1393C98.4257 82.2023 97.666 81.4426 96.7289 81.4426C95.7919 81.4426 95.0322 82.2023 95.0322 83.1393C95.0322 84.0764 95.7919 84.8361 96.7289 84.8361Z" fill="#BFDBFE"/>
<path d="M110.303 84.8361C111.24 84.8361 112 84.0764 112 83.1393C112 82.2023 111.24 81.4426 110.303 81.4426C109.366 81.4426 108.606 82.2023 108.606 83.1393C108.606 84.0764 109.366 84.8361 110.303 84.8361Z" fill="#BFDBFE"/>
<path d="M1.71333 98.4098C2.6504 98.4098 3.41004 97.6501 3.41004 96.7131C3.41004 95.776 2.6504 95.0164 1.71333 95.0164C0.776253 95.0164 0.0166016 95.776 0.0166016 96.7131C0.0166016 97.6501 0.776253 98.4098 1.71333 98.4098Z" fill="#BFDBFE"/>
<path d="M15.2871 98.4098C16.2241 98.4098 16.9838 97.6501 16.9838 96.7131C16.9838 95.776 16.2241 95.0164 15.2871 95.0164C14.35 95.0164 13.5903 95.776 13.5903 96.7131C13.5903 97.6501 14.35 98.4098 15.2871 98.4098Z" fill="#BFDBFE"/>
<path d="M28.8608 98.4098C29.7979 98.4098 30.5575 97.6501 30.5575 96.7131C30.5575 95.776 29.7979 95.0164 28.8608 95.0164C27.9237 95.0164 27.1641 95.776 27.1641 96.7131C27.1641 97.6501 27.9237 98.4098 28.8608 98.4098Z" fill="#BFDBFE"/>
<path d="M42.435 98.4098C43.3721 98.4098 44.1317 97.6501 44.1317 96.7131C44.1317 95.776 43.3721 95.0164 42.435 95.0164C41.4979 95.0164 40.7383 95.776 40.7383 96.7131C40.7383 97.6501 41.4979 98.4098 42.435 98.4098Z" fill="#BFDBFE"/>
<path d="M56.0082 98.4098C56.9453 98.4098 57.705 97.6501 57.705 96.7131C57.705 95.776 56.9453 95.0164 56.0082 95.0164C55.0712 95.0164 54.3115 95.776 54.3115 96.7131C54.3115 97.6501 55.0712 98.4098 56.0082 98.4098Z" fill="#BFDBFE"/>
<path d="M69.582 98.4098C70.519 98.4098 71.2787 97.6501 71.2787 96.7131C71.2787 95.776 70.519 95.0164 69.582 95.0164C68.6449 95.0164 67.8853 95.776 67.8853 96.7131C67.8853 97.6501 68.6449 98.4098 69.582 98.4098Z" fill="#BFDBFE"/>
<path d="M83.1562 98.4098C84.0933 98.4098 84.8529 97.6501 84.8529 96.7131C84.8529 95.776 84.0933 95.0164 83.1562 95.0164C82.2191 95.0164 81.4595 95.776 81.4595 96.7131C81.4595 97.6501 82.2191 98.4098 83.1562 98.4098Z" fill="#BFDBFE"/>
<path d="M96.7289 98.4098C97.666 98.4098 98.4257 97.6501 98.4257 96.7131C98.4257 95.776 97.666 95.0164 96.7289 95.0164C95.7919 95.0164 95.0322 95.776 95.0322 96.7131C95.0322 97.6501 95.7919 98.4098 96.7289 98.4098Z" fill="#BFDBFE"/>
<path d="M110.303 98.4098C111.24 98.4098 112 97.6501 112 96.7131C112 95.776 111.24 95.0164 110.303 95.0164C109.366 95.0164 108.606 95.776 108.606 96.7131C108.606 97.6501 109.366 98.4098 110.303 98.4098Z" fill="#BFDBFE"/>
</g>
</svg>
