<svg width="207" height="99" viewBox="0 0 207 99" fill="none" xmlns="http://www.w3.org/2000/svg">
<g opacity="0.5">
<circle cx="1.69672" cy="1.69672" r="1.69672" fill="#BFDBFE"/>
<circle cx="15.2705" cy="1.69672" r="1.69672" fill="#BFDBFE"/>
<circle cx="28.8442" cy="1.69672" r="1.69672" fill="#BFDBFE"/>
<circle cx="42.4179" cy="1.69672" r="1.69672" fill="#BFDBFE"/>
<circle cx="55.9916" cy="1.69672" r="1.69672" fill="#BFDBFE"/>
<circle cx="69.5654" cy="1.69672" r="1.69672" fill="#BFDBFE"/>
<circle cx="83.1391" cy="1.69672" r="1.69672" fill="#BFDBFE"/>
<circle cx="96.7133" cy="1.69672" r="1.69672" fill="#BFDBFE"/>
<circle cx="110.287" cy="1.69672" r="1.69672" fill="#BFDBFE"/>
<circle cx="123.861" cy="1.69672" r="1.69672" fill="#BFDBFE"/>
<circle cx="137.435" cy="1.69672" r="1.69672" fill="#BFDBFE"/>
<circle cx="151.008" cy="1.69672" r="1.69672" fill="#BFDBFE"/>
<circle cx="164.582" cy="1.69672" r="1.69672" fill="#BFDBFE"/>
<circle cx="178.156" cy="1.69672" r="1.69672" fill="#BFDBFE"/>
<circle cx="191.729" cy="1.69672" r="1.69672" fill="#BFDBFE"/>
<circle cx="205.303" cy="1.69672" r="1.69672" fill="#BFDBFE"/>
<circle cx="1.69672" cy="15.2705" r="1.69672" fill="#BFDBFE"/>
<circle cx="15.2705" cy="15.2705" r="1.69672" fill="#BFDBFE"/>
<circle cx="28.8442" cy="15.2705" r="1.69672" fill="#BFDBFE"/>
<circle cx="42.4179" cy="15.2705" r="1.69672" fill="#BFDBFE"/>
<circle cx="55.9916" cy="15.2705" r="1.69672" fill="#BFDBFE"/>
<circle cx="69.5654" cy="15.2705" r="1.69672" fill="#BFDBFE"/>
<circle cx="83.1391" cy="15.2705" r="1.69672" fill="#BFDBFE"/>
<circle cx="96.7133" cy="15.2705" r="1.69672" fill="#BFDBFE"/>
<circle cx="110.287" cy="15.2705" r="1.69672" fill="#BFDBFE"/>
<circle cx="123.861" cy="15.2705" r="1.69672" fill="#BFDBFE"/>
<circle cx="137.435" cy="15.2705" r="1.69672" fill="#BFDBFE"/>
<circle cx="151.008" cy="15.2705" r="1.69672" fill="#BFDBFE"/>
<circle cx="164.582" cy="15.2705" r="1.69672" fill="#BFDBFE"/>
<circle cx="178.156" cy="15.2705" r="1.69672" fill="#BFDBFE"/>
<circle cx="191.729" cy="15.2705" r="1.69672" fill="#BFDBFE"/>
<circle cx="205.303" cy="15.2705" r="1.69672" fill="#BFDBFE"/>
<circle cx="1.69672" cy="28.8442" r="1.69672" fill="#BFDBFE"/>
<circle cx="15.2705" cy="28.8442" r="1.69672" fill="#BFDBFE"/>
<circle cx="28.8442" cy="28.8442" r="1.69672" fill="#BFDBFE"/>
<circle cx="42.4179" cy="28.8442" r="1.69672" fill="#BFDBFE"/>
<circle cx="55.9916" cy="28.8442" r="1.69672" fill="#BFDBFE"/>
<circle cx="69.5654" cy="28.8442" r="1.69672" fill="#BFDBFE"/>
<circle cx="83.1391" cy="28.8442" r="1.69672" fill="#BFDBFE"/>
<circle cx="96.7133" cy="28.8442" r="1.69672" fill="#BFDBFE"/>
<circle cx="110.287" cy="28.8442" r="1.69672" fill="#BFDBFE"/>
<circle cx="123.861" cy="28.8442" r="1.69672" fill="#BFDBFE"/>
<circle cx="137.435" cy="28.8442" r="1.69672" fill="#BFDBFE"/>
<circle cx="151.008" cy="28.8442" r="1.69672" fill="#BFDBFE"/>
<circle cx="164.582" cy="28.8442" r="1.69672" fill="#BFDBFE"/>
<circle cx="178.156" cy="28.8442" r="1.69672" fill="#BFDBFE"/>
<circle cx="191.729" cy="28.8442" r="1.69672" fill="#BFDBFE"/>
<circle cx="205.303" cy="28.8442" r="1.69672" fill="#BFDBFE"/>
<circle cx="1.69672" cy="42.418" r="1.69672" fill="#BFDBFE"/>
<circle cx="15.2705" cy="42.418" r="1.69672" fill="#BFDBFE"/>
<circle cx="28.8442" cy="42.418" r="1.69672" fill="#BFDBFE"/>
<circle cx="42.4179" cy="42.418" r="1.69672" fill="#BFDBFE"/>
<circle cx="55.9916" cy="42.418" r="1.69672" fill="#BFDBFE"/>
<circle cx="69.5654" cy="42.418" r="1.69672" fill="#BFDBFE"/>
<circle cx="83.1391" cy="42.418" r="1.69672" fill="#BFDBFE"/>
<circle cx="96.7133" cy="42.418" r="1.69672" fill="#BFDBFE"/>
<circle cx="110.287" cy="42.418" r="1.69672" fill="#BFDBFE"/>
<circle cx="123.861" cy="42.418" r="1.69672" fill="#BFDBFE"/>
<circle cx="137.435" cy="42.418" r="1.69672" fill="#BFDBFE"/>
<circle cx="151.008" cy="42.418" r="1.69672" fill="#BFDBFE"/>
<circle cx="164.582" cy="42.418" r="1.69672" fill="#BFDBFE"/>
<circle cx="178.156" cy="42.418" r="1.69672" fill="#BFDBFE"/>
<circle cx="191.729" cy="42.418" r="1.69672" fill="#BFDBFE"/>
<circle cx="205.303" cy="42.418" r="1.69672" fill="#BFDBFE"/>
<circle cx="1.69672" cy="55.9918" r="1.69672" fill="#BFDBFE"/>
<circle cx="15.2705" cy="55.9918" r="1.69672" fill="#BFDBFE"/>
<circle cx="28.8442" cy="55.9918" r="1.69672" fill="#BFDBFE"/>
<circle cx="42.4179" cy="55.9918" r="1.69672" fill="#BFDBFE"/>
<circle cx="55.9916" cy="55.9918" r="1.69672" fill="#BFDBFE"/>
<circle cx="69.5654" cy="55.9918" r="1.69672" fill="#BFDBFE"/>
<circle cx="83.1391" cy="55.9918" r="1.69672" fill="#BFDBFE"/>
<circle cx="96.7133" cy="55.9918" r="1.69672" fill="#BFDBFE"/>
<circle cx="110.287" cy="55.9918" r="1.69672" fill="#BFDBFE"/>
<circle cx="123.861" cy="55.9918" r="1.69672" fill="#BFDBFE"/>
<circle cx="137.435" cy="55.9918" r="1.69672" fill="#BFDBFE"/>
<circle cx="151.008" cy="55.9918" r="1.69672" fill="#BFDBFE"/>
<circle cx="164.582" cy="55.9918" r="1.69672" fill="#BFDBFE"/>
<circle cx="178.156" cy="55.9918" r="1.69672" fill="#BFDBFE"/>
<circle cx="191.729" cy="55.9918" r="1.69672" fill="#BFDBFE"/>
<circle cx="205.303" cy="55.9918" r="1.69672" fill="#BFDBFE"/>
<circle cx="1.69672" cy="69.5656" r="1.69672" fill="#BFDBFE"/>
<circle cx="15.2705" cy="69.5656" r="1.69672" fill="#BFDBFE"/>
<circle cx="28.8442" cy="69.5656" r="1.69672" fill="#BFDBFE"/>
<circle cx="42.4179" cy="69.5656" r="1.69672" fill="#BFDBFE"/>
<circle cx="55.9916" cy="69.5656" r="1.69672" fill="#BFDBFE"/>
<circle cx="69.5654" cy="69.5656" r="1.69672" fill="#BFDBFE"/>
<circle cx="83.1391" cy="69.5656" r="1.69672" fill="#BFDBFE"/>
<circle cx="96.7133" cy="69.5656" r="1.69672" fill="#BFDBFE"/>
<circle cx="110.287" cy="69.5656" r="1.69672" fill="#BFDBFE"/>
<circle cx="123.861" cy="69.5656" r="1.69672" fill="#BFDBFE"/>
<circle cx="137.435" cy="69.5656" r="1.69672" fill="#BFDBFE"/>
<circle cx="151.008" cy="69.5656" r="1.69672" fill="#BFDBFE"/>
<circle cx="164.582" cy="69.5656" r="1.69672" fill="#BFDBFE"/>
<circle cx="178.156" cy="69.5656" r="1.69672" fill="#BFDBFE"/>
<circle cx="191.729" cy="69.5656" r="1.69672" fill="#BFDBFE"/>
<circle cx="205.303" cy="69.5656" r="1.69672" fill="#BFDBFE"/>
<circle cx="1.69672" cy="83.1394" r="1.69672" fill="#BFDBFE"/>
<circle cx="15.2705" cy="83.1394" r="1.69672" fill="#BFDBFE"/>
<circle cx="28.8442" cy="83.1394" r="1.69672" fill="#BFDBFE"/>
<circle cx="42.4179" cy="83.1394" r="1.69672" fill="#BFDBFE"/>
<circle cx="55.9916" cy="83.1394" r="1.69672" fill="#BFDBFE"/>
<circle cx="69.5654" cy="83.1394" r="1.69672" fill="#BFDBFE"/>
<circle cx="83.1391" cy="83.1394" r="1.69672" fill="#BFDBFE"/>
<circle cx="96.7133" cy="83.1394" r="1.69672" fill="#BFDBFE"/>
<circle cx="110.287" cy="83.1394" r="1.69672" fill="#BFDBFE"/>
<circle cx="123.861" cy="83.1394" r="1.69672" fill="#BFDBFE"/>
<circle cx="137.435" cy="83.1394" r="1.69672" fill="#BFDBFE"/>
<circle cx="151.008" cy="83.1394" r="1.69672" fill="#BFDBFE"/>
<circle cx="164.582" cy="83.1394" r="1.69672" fill="#BFDBFE"/>
<circle cx="178.156" cy="83.1394" r="1.69672" fill="#BFDBFE"/>
<circle cx="191.729" cy="83.1394" r="1.69672" fill="#BFDBFE"/>
<circle cx="205.303" cy="83.1394" r="1.69672" fill="#BFDBFE"/>
<circle cx="1.69672" cy="96.7131" r="1.69672" fill="#BFDBFE"/>
<circle cx="15.2705" cy="96.7131" r="1.69672" fill="#BFDBFE"/>
<circle cx="28.8442" cy="96.7131" r="1.69672" fill="#BFDBFE"/>
<circle cx="42.4179" cy="96.7131" r="1.69672" fill="#BFDBFE"/>
<circle cx="55.9916" cy="96.7131" r="1.69672" fill="#BFDBFE"/>
<circle cx="69.5654" cy="96.7131" r="1.69672" fill="#BFDBFE"/>
<circle cx="83.1391" cy="96.7131" r="1.69672" fill="#BFDBFE"/>
<circle cx="96.7133" cy="96.7131" r="1.69672" fill="#BFDBFE"/>
<circle cx="110.287" cy="96.7131" r="1.69672" fill="#BFDBFE"/>
<circle cx="123.861" cy="96.7131" r="1.69672" fill="#BFDBFE"/>
<circle cx="137.435" cy="96.7131" r="1.69672" fill="#BFDBFE"/>
<circle cx="151.008" cy="96.7131" r="1.69672" fill="#BFDBFE"/>
<circle cx="164.582" cy="96.7131" r="1.69672" fill="#BFDBFE"/>
<circle cx="178.156" cy="96.7131" r="1.69672" fill="#BFDBFE"/>
<circle cx="191.729" cy="96.7131" r="1.69672" fill="#BFDBFE"/>
<circle cx="205.303" cy="96.7131" r="1.69672" fill="#BFDBFE"/>
</g>
</svg>
