<svg width="19" height="20" viewBox="0 0 19 20" fill="none" xmlns="http://www.w3.org/2000/svg">
<path fill-rule="evenodd" clip-rule="evenodd" d="M15.4954 5.40048C15.3692 5.45778 15.3123 5.51469 15.255 5.64094C15.1816 5.80267 15.1799 5.95282 15.1791 12.4059L15.1783 19.0055L15.261 19.1765C15.3226 19.3037 15.3844 19.3659 15.5023 19.4195C15.6478 19.4856 15.7778 19.4915 17.0891 19.4915C18.4213 19.4915 18.5285 19.4864 18.6828 19.4164C18.809 19.3591 18.8659 19.3022 18.9232 19.176C18.9966 19.0142 18.9983 18.864 18.9991 12.407L19 5.8034L18.9131 5.63399C18.7531 5.32195 18.7628 5.32361 17.109 5.32458C15.7581 5.32535 15.6497 5.33048 15.4954 5.40048ZM10.5266 9.76328C10.4629 9.80517 10.3804 9.89602 10.3433 9.96509C10.28 10.0827 10.2757 10.3787 10.2757 14.5932V19.0957L10.3633 19.2269C10.5399 19.4912 10.5527 19.4931 12.1672 19.4931C13.7818 19.4931 13.7946 19.4912 13.9712 19.2269L14.0588 19.0957V14.5822C14.0588 9.59862 14.075 9.92034 13.8156 9.7622C13.6986 9.69077 13.6117 9.68684 12.1672 9.68691C10.714 9.68703 10.637 9.69062 10.5266 9.76328ZM5.63943 10.8552C5.35543 11.0449 5.37318 10.7606 5.37407 15.1111C5.3748 18.89 5.37716 19.0157 5.44989 19.176C5.50717 19.3022 5.56407 19.3591 5.69031 19.4164C5.84456 19.4864 5.95176 19.4915 7.28399 19.4915C8.93912 19.4915 8.96147 19.4876 9.11276 19.175L9.19626 19.0025L9.18591 15.0667C9.17611 11.3482 9.17167 11.1251 9.10589 11.0246C9.06756 10.9662 8.9807 10.8845 8.91287 10.8431C8.79614 10.7719 8.70812 10.7678 7.28005 10.7677C5.77488 10.7676 5.77021 10.7678 5.63943 10.8552ZM0.780176 14.0784C0.70629 14.1155 0.606386 14.2049 0.55821 14.277L0.470581 14.4082V16.7519V19.0957L0.55821 19.2269C0.73474 19.4912 0.747595 19.4931 2.36212 19.4931C3.97665 19.4931 3.9895 19.4912 4.16603 19.2269L4.25366 19.0957V16.7519V14.4082L4.16603 14.277C3.9895 14.0127 3.97665 14.0108 2.36212 14.0108C1.0609 14.0108 0.900926 14.0177 0.780176 14.0784Z" fill="#92B4DD"/>
<path opacity="0.4" fill-rule="evenodd" clip-rule="evenodd" d="M16.6008 0.564733C15.8291 0.802332 15.3335 1.57601 15.4589 2.34738C15.5307 2.78907 15.6339 2.6578 14.2371 3.90166L12.9677 5.03197L12.7316 4.95166C12.6017 4.9075 12.4251 4.8607 12.3391 4.84773C12.1237 4.81518 11.7409 4.88294 11.4893 4.99815C11.087 5.18235 10.6755 5.68168 10.6027 6.07383C10.5879 6.15371 10.5599 6.22888 10.5404 6.24089C10.521 6.25294 10.0322 6.36251 9.45435 6.48444L8.40362 6.70609L8.28225 6.5471C7.95169 6.11414 7.34814 5.87214 6.79214 5.94966C6.18472 6.03437 5.63703 6.49872 5.46215 7.07727C5.39919 7.28553 5.37885 7.75594 5.42641 7.9035C5.45019 7.97732 5.33724 8.06856 4.4105 8.72394C3.83705 9.12949 3.35648 9.46133 3.34263 9.46133C3.32873 9.46133 3.20844 9.40771 3.0753 9.34211C2.78335 9.19837 2.32567 9.14937 2.0258 9.22976C1.31987 9.41902 0.827456 10.0049 0.787 10.7037C0.758087 11.2032 0.911456 11.6061 1.26517 11.9598C1.88012 12.5749 2.89221 12.5827 3.51371 11.9773C3.8853 11.6153 4.05022 11.1721 4.0069 10.6521L3.98228 10.3565L5.02351 9.6216L6.06475 8.88672L6.28833 8.99756C6.87004 9.28597 7.52185 9.20999 8.05245 8.79193C8.25102 8.63549 8.48974 8.26106 8.56629 7.98605L8.62763 7.76555L8.84369 7.72081C8.96251 7.69617 9.44354 7.59483 9.9126 7.4956L10.7655 7.31518L10.9853 7.55645C11.8362 8.4904 13.3669 8.1262 13.73 6.90342C13.8043 6.6532 13.805 6.28502 13.7317 6.04132C13.6869 5.89256 13.6849 5.84314 13.722 5.80975C13.748 5.78643 14.3308 5.2676 15.0171 4.65681L16.265 3.5463L16.4647 3.62997C17.3962 4.02007 18.4897 3.38704 18.6548 2.36217C18.7535 1.74871 18.4501 1.09086 17.9108 0.749515C17.5471 0.519329 16.9993 0.442034 16.6008 0.564733Z" fill="#92B4DD"/>
</svg>
