<svg width="22" height="22" viewBox="0 0 22 22" fill="none" xmlns="http://www.w3.org/2000/svg">
<path fill-rule="evenodd" clip-rule="evenodd" d="M14.0504 0.0248997C14.0149 0.0373552 10.8491 3.18136 7.01517 7.01158C-0.295331 14.3149 -0.0601521 14.0682 0.0234105 14.3476C0.0580385 14.4635 7.3407 21.7731 7.55496 21.907C7.88229 22.1117 7.3224 22.6341 14.9836 14.9753C22.2949 7.66639 22.0602 7.9128 21.9766 7.63345C21.9446 7.52655 14.7892 0.330015 14.5058 0.119733C14.3485 0.00303832 14.2001 -0.0278855 14.0504 0.0248997ZM19.1083 7.49133C19.2455 7.62847 19.2576 7.65969 19.236 7.82076C19.2139 7.98508 19.1359 8.07489 18.2103 9.0008C17.5601 9.65123 17.1607 10.0188 17.0724 10.0479C16.8108 10.1342 16.4992 9.89948 16.4992 9.61614C16.4992 9.44005 16.633 9.28281 17.6045 8.31691C18.5804 7.34655 18.5885 7.3398 18.772 7.3398C18.9261 7.3398 18.9818 7.36493 19.1083 7.49133ZM10.7695 8.37545C11.6863 8.65836 12.5648 9.33881 13.1548 10.2231C13.7366 11.0951 13.9101 12.12 13.5912 12.8009C13.4218 13.1626 13.1745 13.4103 12.8109 13.5825C12.536 13.7127 12.5049 13.7177 11.9882 13.7144C11.5038 13.7113 11.4169 13.6984 11.1027 13.5831C9.63208 13.0434 8.40639 11.5753 8.27072 10.1909C8.17805 9.24566 8.71478 8.47016 9.5898 8.28491C9.86171 8.22736 10.4313 8.27108 10.7695 8.37545ZM5.22006 11.9535C5.37116 12.0166 5.50078 12.2066 5.50078 12.3649C5.50078 12.541 5.36703 12.6983 4.39556 13.6642C3.47371 14.5807 3.40308 14.6413 3.25584 14.6413C3.03746 14.6413 2.90084 14.5688 2.81358 14.4068C2.66197 14.1254 2.70257 14.0662 3.79301 12.9784C4.6682 12.1053 4.89676 11.9068 5.0403 11.8952C5.05878 11.8937 5.13967 11.92 5.22006 11.9535Z" fill="#92B4DD"/>
<path opacity="0.4" fill-rule="evenodd" clip-rule="evenodd" d="M1.33722 10.624C0.74648 10.8428 0.210692 11.0639 0.146591 11.1154C-0.0381485 11.2638 -0.0463544 11.4411 0.111104 11.8811C0.185859 12.0901 0.264739 12.2892 0.286349 12.3236C0.316896 12.3724 0.567197 12.145 1.41133 11.3018C2.00847 10.7053 2.47771 10.2193 2.45416 10.2217C2.43058 10.2241 1.92796 10.4051 1.33722 10.624ZM18.6287 12.602C17.6489 13.5818 16.8701 14.3834 16.8981 14.3834C16.9261 14.3834 17.3482 14.2366 17.8362 14.0572C18.7973 13.7039 18.9129 13.688 19.0972 13.884C19.3011 14.101 19.2377 14.4788 18.9771 14.5993C18.7027 14.7261 16.5545 15.5001 16.4768 15.5001C16.3577 15.5001 16.219 15.4232 16.1164 15.3002L16.0305 15.1972L14.142 17.0864C13.1033 18.1255 12.2624 18.9829 12.2731 18.9918C12.288 19.004 20.4761 16.0024 21.6086 15.5696C21.826 15.4865 21.9804 15.304 21.9807 15.1296C21.9808 15.0356 20.4947 10.9078 20.4406 10.8518C20.4239 10.8346 19.6086 11.6222 18.6287 12.602ZM2.40003 18.163C2.49975 18.4626 3.69338 21.718 3.72552 21.778C3.77536 21.8711 3.98415 21.9855 4.10415 21.9855C4.19016 21.9855 5.6057 21.4823 5.66473 21.4307C5.68196 21.4156 4.94957 20.6598 4.0373 19.751C3.12499 18.8422 2.38822 18.1276 2.40003 18.163Z" fill="#92B4DD"/>
</svg>
