<svg width="22" height="22" viewBox="0 0 22 22" fill="none" xmlns="http://www.w3.org/2000/svg">
<path fill-rule="evenodd" clip-rule="evenodd" d="M6.61935 0.0744533C6.39518 0.176011 6.29568 0.344661 6.16586 0.843175C5.55728 3.17971 3.73148 5.00127 1.38001 5.61789C1.15437 5.67704 0.90725 5.76615 0.830822 5.81587C0.540732 6.00448 0.439136 6.44994 0.624279 6.72128C0.77102 6.93634 0.891965 7.0008 1.4095 7.13971C3.0391 7.57706 4.39005 8.55959 5.31414 9.97939C5.71278 10.5919 6.00039 11.2578 6.18726 12.0011C6.32001 12.5292 6.53061 12.7436 6.91648 12.7436C7.28685 12.7436 7.51718 12.5229 7.62925 12.0608C7.73072 11.6423 7.96457 10.9775 8.11797 10.6715C8.9263 9.05861 10.3915 7.77149 11.9845 7.27473C12.2144 7.203 12.5426 7.10077 12.7137 7.04751C12.9631 6.96985 13.0493 6.92013 13.1477 6.7971C13.382 6.50438 13.3332 6.05787 13.0437 5.84431C12.9748 5.79351 12.7511 5.70729 12.5465 5.65269C12.3419 5.59804 11.9902 5.48529 11.7651 5.40207C9.74728 4.65662 8.18702 2.90453 7.64742 0.77813C7.54172 0.361664 7.43225 0.187625 7.20686 0.0778372C6.99588 -0.0249319 6.84068 -0.0258092 6.61935 0.0744533ZM16.7611 6.90777C16.4865 7.00615 16.3658 7.1649 16.249 7.58145C15.8224 9.10135 14.7347 10.2021 13.2401 10.6261C13.0328 10.6849 12.8161 10.7673 12.7585 10.8091C12.3592 11.0995 12.3658 11.6923 12.7711 11.9355C12.8448 11.9798 13.0822 12.0659 13.2987 12.1269C14.7075 12.5239 15.795 13.6188 16.2143 15.0622C16.3481 15.5229 16.428 15.6584 16.6346 15.7751C16.8392 15.8907 17.0674 15.8952 17.2788 15.7876C17.4832 15.6835 17.5841 15.5175 17.6983 15.0977C18.0857 13.6732 19.2247 12.5231 20.6421 12.1256C20.8551 12.0658 21.092 11.9767 21.1684 11.9277C21.434 11.7571 21.5497 11.342 21.4079 11.0685C21.3025 10.8653 21.1166 10.747 20.7501 10.6499C19.9886 10.448 19.1257 9.92713 18.6509 9.38275C18.1734 8.83515 17.9096 8.35059 17.7054 7.64549C17.6297 7.38439 17.5414 7.17133 17.483 7.10888C17.2829 6.89519 17.009 6.81891 16.7611 6.90777Z" fill="#92B4DD"/>
<path opacity="0.4" d="M8.74227 14.6621C8.8365 14.5816 8.9538 14.5079 9.00297 14.4983C9.4609 14.4088 9.7141 14.6095 9.91302 15.2198C10.1106 15.8261 10.2898 16.1369 10.6817 16.553C11.0503 16.9445 11.5231 17.224 12.1285 17.4082C12.5135 17.5254 12.6862 17.6497 12.7822 17.8789C12.9647 18.3145 12.6922 18.7089 12.1075 18.8555C11.778 18.9382 11.2522 19.2075 10.9674 19.4395C10.4726 19.8425 10.0511 20.4832 9.90846 21.0492C9.79329 21.5062 9.52695 21.7766 9.18924 21.7794C8.83566 21.7823 8.60985 21.5554 8.44469 21.0316C8.09262 19.9145 7.35292 19.1853 6.22363 18.8416C6.00666 18.7756 5.82089 18.6896 5.74786 18.6215C5.46555 18.3583 5.4483 17.9911 5.70422 17.6928C5.82617 17.5507 5.90306 17.5065 6.15269 17.4351C6.99118 17.1954 7.63175 16.7425 8.04299 16.0988C8.25284 15.7702 8.37014 15.5073 8.4846 15.1089C8.55608 14.8602 8.60052 14.7831 8.74227 14.6621Z" fill="#92B4DD"/>
</svg>
