<svg width="19" height="18" viewBox="0 0 19 18" fill="none" xmlns="http://www.w3.org/2000/svg">
<path fill-rule="evenodd" clip-rule="evenodd" d="M0.834681 6.96461C0.521634 7.02658 0.224509 7.27311 0.0758934 7.59414L0.00170898 7.75438V12.4723V17.1903L0.0936822 17.3863C0.202458 17.6181 0.388342 17.8089 0.613678 17.9198L0.776665 18.0001H9.00177H17.2269L17.3889 17.9203C17.6095 17.8117 17.7995 17.616 17.9098 17.3839L18.0018 17.1903V12.4723V7.75438L17.9039 7.55506C17.7911 7.32557 17.5882 7.12784 17.3545 7.01982L17.1916 6.94458L9.08983 6.9394C4.63383 6.93655 0.919011 6.94789 0.834681 6.96461ZM4.87083 9.0934C5.07743 9.17966 5.20938 9.29923 5.32164 9.50178L5.4264 9.69086V10.6767V11.6625L5.32164 11.8516C5.26401 11.9556 5.16802 12.0779 5.10839 12.1234C4.86417 12.3096 4.82912 12.3139 3.56689 12.3139H2.39206L2.20103 12.2171C1.98362 12.1069 1.80253 11.8924 1.74423 11.676C1.71979 11.5852 1.70989 11.1948 1.71686 10.5948C1.72722 9.7011 1.73155 9.64853 1.80648 9.50844C1.8981 9.33715 2.10927 9.14892 2.27857 9.0877C2.36208 9.05749 2.74298 9.04407 3.5694 9.04217C4.54672 9.03995 4.76325 9.04847 4.87083 9.0934ZM4.24636 15.201V15.7291H2.94302H1.63968V15.201V14.6729H2.94302H4.24636V15.201ZM8.29726 15.201V15.7291H6.99393H5.69059V15.201V14.6729H6.99393H8.29726V15.201ZM12.3129 15.201V15.7291H11.0096H9.70627V15.201V14.6729H11.0096H12.3129V15.201ZM16.3639 15.201V15.7291H15.0605H13.7572V15.201V14.6729H15.0605H16.3639V15.201Z" fill="#92B4DD"/>
<path opacity="0.4" fill-rule="evenodd" clip-rule="evenodd" d="M11.3294 0.0397283C11.248 0.066346 11.1053 0.14458 11.0124 0.213553C10.9194 0.282562 9.59913 1.58363 8.07831 3.10485L5.31323 5.87074H8.41566H11.5181L12.8364 4.47207C13.5614 3.70284 14.2645 2.95722 14.3989 2.81516L14.6431 2.5569L13.4654 1.37706C12.6144 0.524551 12.2388 0.172042 12.1115 0.106449C11.8987 -0.00326144 11.5516 -0.0328719 11.3294 0.0397283ZM14.4892 4.2567C13.9952 4.78117 13.4509 5.35888 13.2797 5.54052L12.9685 5.87074L13.7905 5.86785L14.6125 5.86496L15.4051 5.01999C15.841 4.55527 16.2017 4.16425 16.2066 4.15104C16.2115 4.13787 16.0293 3.94169 15.8015 3.71509L15.3875 3.30311L14.4892 4.2567ZM16.5188 5.36975L16.0649 5.85313L16.9239 5.87637C17.3963 5.88919 17.8372 5.91665 17.9038 5.93739C17.9703 5.95816 18.0292 5.97073 18.0346 5.96527C18.04 5.95985 17.8033 5.71487 17.5085 5.42091L16.9726 4.88641L16.5188 5.36975Z" fill="#92B4DD"/>
</svg>
