<svg width="22" height="18" viewBox="0 0 22 18" fill="none" xmlns="http://www.w3.org/2000/svg">
<path opacity="0.4" fill-rule="evenodd" clip-rule="evenodd" d="M13.4476 0.808489C14.3448 1.31458 15.0068 1.80789 15.6443 2.44547C18.5015 5.30264 19.211 9.79564 17.3859 13.4734C16.5332 15.1916 15.2516 16.5118 13.4476 17.5301L12.9674 17.8012L13.5866 17.7749C15.5335 17.6923 17.2219 17.0904 18.7048 15.9502C20.9022 14.2607 22.205 11.3094 21.9734 8.54542C21.7165 5.47875 19.9666 2.8417 17.3017 1.50507C16.1013 0.903003 15.0253 0.630917 13.5866 0.565682L12.9674 0.537598L13.4476 0.808489Z" fill="#92B4DD"/>
<path fill-rule="evenodd" clip-rule="evenodd" d="M7.96322 0.582839C5.42246 0.848423 3.11393 2.2399 1.70021 4.35794C0.624823 5.96905 0.102146 7.93004 0.256587 9.77383C0.323724 10.5751 0.442695 11.1623 0.686255 11.895C1.48526 14.2982 3.32958 16.2399 5.7029 17.1767C7.93138 18.0563 10.4717 17.9546 12.6245 16.8996C13.5024 16.4694 14.1196 16.0355 14.8297 15.3496C18.0494 12.2394 18.3539 7.20856 15.5338 3.71665C15.2191 3.32709 14.5053 2.62764 14.1282 2.3395C12.3623 0.990171 10.1358 0.355732 7.96322 0.582839ZM7.7473 4.74493L7.75947 5.46362L8.10223 5.47654L8.44499 5.48945V4.75784V4.02624H8.9536H9.46221V4.7524V5.47857L10.2472 5.49321L11.0323 5.50785L11.3153 5.66127C12.1197 6.09731 12.3618 7.13793 11.8364 7.9005C11.6679 8.1449 11.3484 8.38058 11.0836 8.45581C10.8535 8.52118 10.7788 8.58164 10.928 8.58164C10.9899 8.58164 11.1565 8.62153 11.2982 8.67027C11.9746 8.90299 12.4596 9.4258 12.6698 10.1489C12.7723 10.5016 12.7421 11.1152 12.6046 11.4707C12.3818 12.0472 11.8377 12.5553 11.2483 12.7374C11.0036 12.8129 10.8362 12.8275 10.2094 12.8275H9.46221V13.5572V14.2869H8.9536H8.44499V13.5553V12.8237L8.10223 12.8367L7.75947 12.8496L7.7473 13.5683L7.73514 14.2869H7.24975H6.76435V13.5572V12.8275H5.8577H4.95104V12.341V11.8545H5.50388H6.05672V9.15659V6.45873H5.50388H4.95104V5.97223V5.48573H5.8577H6.76435V4.75599V4.02624H7.24975H7.73514L7.7473 4.74493ZM7.81475 6.52817C7.79653 6.54675 7.78158 6.99645 7.78158 7.52757V8.49318H8.55808C9.50251 8.49318 9.67875 8.4559 9.93226 8.20239C10.4142 7.72045 10.2928 6.92197 9.69299 6.62852C9.50264 6.53542 9.4125 6.52507 8.66612 6.51043C8.21611 6.50163 7.83297 6.50959 7.81475 6.52817ZM7.78158 10.5898V11.766H8.72441C9.77689 11.766 9.99055 11.7293 10.2665 11.501C10.5163 11.2944 10.6792 10.924 10.6751 10.5719C10.6713 10.2345 10.5732 10.0138 10.3173 9.76688C10.0105 9.47078 9.91444 9.44964 8.78775 9.43058L7.78158 9.41355V10.5898Z" fill="#92B4DD"/>
</svg>
