<svg width="20" height="21" viewBox="0 0 20 21" fill="none" xmlns="http://www.w3.org/2000/svg">
<path fill-rule="evenodd" clip-rule="evenodd" d="M9.77551 6.74123C9.54438 6.83634 0.304065 12.5548 0.188724 12.6741C-0.261166 13.1395 0.153224 13.9302 0.801512 13.8432C0.925114 13.8266 2.19673 13.0667 5.48658 11.0432L10.002 8.26603L14.5089 11.0393C16.9877 12.5646 19.0761 13.8246 19.1498 13.8393C19.3765 13.8847 19.5891 13.8172 19.7743 13.641C20.0615 13.3678 20.0764 12.9518 19.8088 12.6731C19.7305 12.5914 17.5489 11.2235 14.9607 9.63325C10.7518 7.04705 10.2333 6.74034 10.0488 6.72775C9.93533 6.71998 9.81235 6.72605 9.77551 6.74123ZM6.41529 11.7255L2.85413 13.9208V17.4603V20.9998H5.35476H7.85539V18.2517V15.5036L7.96501 15.3941L8.07459 15.2844H9.99878H11.923L12.0326 15.3941L12.1422 15.5036V18.2517V20.9998H14.6428H17.1434V17.4584V13.9171L13.5739 11.7207C11.6107 10.5128 9.99811 9.52573 9.99043 9.52733C9.98275 9.52894 8.37395 10.5181 6.41529 11.7255Z" fill="#92B4DD"/>
<path opacity="0.4" fill-rule="evenodd" clip-rule="evenodd" d="M13.957 1.0956C13.9187 1.15016 13.8874 1.21566 13.8874 1.24121C13.8874 1.2667 14.229 1.62869 14.6465 2.04564C15.0641 2.46259 15.4057 2.82387 15.4057 2.84851C15.4057 2.87312 14.9611 3.33816 14.4177 3.88188L13.4298 4.87045L11.8613 3.92733L10.2928 2.98421L10.0025 2.98376L9.71227 2.98332L4.85613 5.97222L0 8.96113V10.0036C0 11.0402 0.000491213 11.0457 0.0914516 10.9971C0.141732 10.9702 2.38422 9.59308 5.0748 7.93687C7.76535 6.28072 9.98666 4.92564 10.0111 4.92564C10.0355 4.92564 10.7526 5.34411 11.6046 5.85559C13.1454 6.78054 13.3533 6.8903 13.5652 6.8903C13.9233 6.8903 13.9939 6.83475 15.3627 5.47597C16.0881 4.75579 16.7007 4.16657 16.7241 4.16657C16.7475 4.16657 17.1137 4.51316 17.5379 4.93676L18.3091 5.70699L18.4314 5.63832L18.5538 5.56969L18.5653 3.28301L18.5769 0.996338H16.3017H14.0264L13.957 1.0956Z" fill="#92B4DD"/>
</svg>
