<svg width="22" height="20" viewBox="0 0 22 20" fill="none" xmlns="http://www.w3.org/2000/svg">
<path opacity="0.4" fill-rule="evenodd" clip-rule="evenodd" d="M5.30497 5.17753C4.14844 5.301 3.39349 5.44994 2.60816 5.70957C1.36755 6.11964 0.47454 6.74105 0.153158 7.41782C0.0204278 7.69735 0.0181068 7.71322 0.0181068 8.34548C0.0181068 8.98156 0.0196541 8.99202 0.15707 9.28145C0.641183 10.3013 2.28798 11.1061 4.57427 11.4401C5.1434 11.5232 7.20403 11.5505 7.83021 11.4832L8.16332 11.4473V8.34612V5.2449L7.95915 5.22054C7.69301 5.18881 5.52801 5.15369 5.30497 5.17753ZM0.0380077 10.9519C0.00813478 11.085 -0.00639336 11.3983 0.00267598 11.7131C0.0166453 12.1972 0.0297121 12.2717 0.140478 12.4967C0.762695 13.761 2.98632 14.6381 5.92822 14.7796C6.4518 14.8048 7.66855 14.7509 8.02363 14.6868L8.16332 14.6615V13.7647V12.8679L7.80871 12.9011C7.6137 12.9193 6.91253 12.9326 6.25059 12.9307C5.24059 12.9277 4.94886 12.9121 4.43629 12.8335C3.41907 12.6774 2.32494 12.3607 1.66576 12.0314C1.05012 11.7238 0.410796 11.1972 0.230312 10.8491C0.195152 10.7812 0.14886 10.7256 0.127541 10.7256C0.106221 10.7256 0.0659035 10.8274 0.0380077 10.9519ZM0.0756605 14.0342C0.0343972 14.1065 0.0181068 14.3231 0.0181068 14.7997C0.0181068 15.4012 0.027434 15.4847 0.116193 15.6767C0.618618 16.764 2.28622 17.5813 4.68173 17.9143C5.35582 18.008 7.2753 18.0207 7.92692 17.9357C8.16332 17.9048 8.36293 17.8736 8.3705 17.8662C8.37806 17.8589 8.34187 17.7208 8.29012 17.5593C8.21933 17.3385 8.19053 17.1184 8.17402 16.6725C8.1527 16.096 8.14952 16.0799 8.06188 16.1028C8.01228 16.1157 7.60897 16.1492 7.16561 16.1771C5.88111 16.2581 4.40982 16.1261 3.26437 15.8273C1.77567 15.4389 0.736175 14.8442 0.242562 14.0985L0.133214 13.9334L0.0756605 14.0342Z" fill="#92B4DD"/>
<path fill-rule="evenodd" clip-rule="evenodd" d="M14.3743 0.291155C12.7912 0.428989 11.2009 0.917197 10.2614 1.55375C9.90708 1.79382 9.53455 2.18575 9.39039 2.46999C9.14358 2.9567 9.14014 3.93312 9.3836 4.41245C9.62473 4.88719 10.2832 5.43625 11.0172 5.77462C11.7469 6.11101 12.838 6.40868 13.837 6.54394C14.5538 6.64099 15.9709 6.67423 16.6953 6.61097C19.3655 6.37785 21.3115 5.52224 21.8698 4.3359C21.9669 4.12953 21.9828 4.0321 21.9965 3.55723C22.0147 2.92454 21.9537 2.64655 21.7197 2.29468C21.0542 1.29437 19.2226 0.5326 16.9379 0.30595C16.5311 0.265552 14.7839 0.255517 14.3743 0.291155ZM9.27326 5.97627C9.1937 6.24533 9.20797 7.22483 9.29475 7.45629C9.6941 8.521 11.35 9.39364 13.6406 9.74646C14.3714 9.85903 16.097 9.90192 16.8796 9.82699C19.3681 9.58877 21.3163 8.71943 21.8415 7.61295C21.9811 7.31875 21.9822 7.31146 21.9816 6.67315C21.9813 6.25382 21.9624 5.98737 21.9274 5.90782L21.8737 5.78577L21.6992 6.04651C21.1402 6.88166 19.6318 7.59738 17.8129 7.89054C16.5853 8.08838 14.9902 8.11586 13.839 7.95899C12.8176 7.81983 11.7599 7.53224 11.0269 7.1943C10.3606 6.88715 9.69642 6.36897 9.46569 5.97627C9.40681 5.876 9.35153 5.794 9.34289 5.794C9.33421 5.794 9.30288 5.876 9.27326 5.97627ZM9.27605 9.21279C9.23776 9.34428 9.21803 9.61017 9.22104 9.95389C9.22662 10.5949 9.29961 10.8299 9.61368 11.2178C10.7434 12.613 14.0896 13.4004 17.2541 13.0156C19.5674 12.7343 21.333 11.8948 21.859 10.8261C21.9707 10.5991 21.9836 10.5259 21.9976 10.0408C22.0125 9.52457 21.9544 9.0533 21.8757 9.0533C21.856 9.0533 21.7916 9.1356 21.7325 9.23616C21.5996 9.46247 21.2531 9.79217 20.8914 10.0366C20.1322 10.5496 18.8884 10.9669 17.4821 11.1805C16.7825 11.2868 14.9111 11.3099 14.1379 11.2218C11.8746 10.9641 10.1612 10.2308 9.48663 9.23136L9.33571 9.00775L9.27605 9.21279ZM9.28637 12.5724C9.20904 12.7937 9.18098 13.4264 9.23354 13.7632C9.296 14.1632 9.44304 14.451 9.74787 14.7699C10.503 15.5598 11.9859 16.1505 13.88 16.4162C14.7151 16.5333 16.6075 16.5226 17.4699 16.3959C19.7636 16.0589 21.3696 15.2574 21.8705 14.1996C21.9754 13.978 21.9822 13.9246 21.9816 13.3204C21.9813 12.896 21.9625 12.6348 21.9266 12.5529L21.8721 12.4286L21.7496 12.6172C20.7146 14.2107 16.9447 15.0886 13.4931 14.5399C11.5936 14.2378 10.0423 13.5055 9.49303 12.6515C9.41867 12.5359 9.35205 12.4413 9.34504 12.4413C9.33799 12.4413 9.3116 12.5003 9.28637 12.5724ZM9.27326 15.8399C9.1937 16.109 9.20797 17.0885 9.29475 17.3199C9.72368 18.4634 11.5991 19.3798 14.0949 19.6653C14.7658 19.742 16.2702 19.7539 16.9379 19.6876C19.2226 19.461 21.0542 18.6992 21.7197 17.6989C21.9552 17.3449 22.0151 17.0691 21.9941 16.4363C21.9841 16.1378 21.953 15.8386 21.9249 15.7715L21.8737 15.6494L21.6992 15.9102C21.0937 16.8149 19.4627 17.5372 17.3616 17.8312C16.603 17.9373 14.638 17.9374 13.8837 17.8314C12.4188 17.6254 11.1201 17.2038 10.3503 16.6842C9.99163 16.4421 9.59984 16.0682 9.46569 15.8399C9.40681 15.7397 9.35153 15.6577 9.34289 15.6577C9.33421 15.6577 9.30288 15.7397 9.27326 15.8399Z" fill="#92B4DD"/>
</svg>
