<svg width="20" height="22" viewBox="0 0 20 22" fill="none" xmlns="http://www.w3.org/2000/svg">
<path fill-rule="evenodd" clip-rule="evenodd" d="M5.51244 14.1437C5.20569 14.2012 2.76274 14.883 1.52571 15.2565C1.20182 15.3543 0.927728 15.4343 0.916658 15.4343C0.905545 15.4343 0.896484 16.7358 0.896484 18.3266C0.896484 19.9174 0.910888 21.2188 0.92854 21.2186C0.946191 21.2184 1.21105 21.1317 1.5172 21.0258C2.26323 20.7679 2.98661 20.6054 3.3891 20.6054C3.76773 20.6054 4.22356 20.6912 5.74511 21.049C8.58008 21.7156 9.81993 21.9406 10.9405 21.9916C11.8868 22.0348 12.3898 21.9206 13.3553 21.4432C14.6528 20.8016 16.5778 19.4258 18.1208 18.0371C18.7249 17.4935 18.9589 17.2406 19.0378 17.0462C19.1693 16.7219 19.1001 16.3661 18.8586 16.1256C18.6546 15.9223 18.5229 15.8725 18.1892 15.8725C17.7422 15.8725 17.3137 16.0457 16.5664 16.5285C15.675 17.1043 14.8699 17.4443 13.892 17.6579C13.3958 17.7664 13.2778 17.7752 12.3295 17.7759C11.2377 17.7767 10.9104 17.7331 10.2107 17.4938C9.65209 17.3027 9.05988 16.9594 9.05988 16.8267C9.05988 16.769 9.38753 16.8007 10.3848 16.9549C11.3388 17.1024 12.1568 17.1186 12.4243 16.9953C12.6219 16.9042 12.6928 16.7675 12.6928 16.4773C12.6928 16.252 12.6089 16.0952 12.3756 15.8846C12.1235 15.6572 11.8208 15.4969 11.0687 15.1928C9.48433 14.5523 8.59158 14.2781 7.65317 14.1439C7.07015 14.0605 5.95668 14.0604 5.51244 14.1437Z" fill="#92B4DD"/>
<path opacity="0.4" fill-rule="evenodd" clip-rule="evenodd" d="M8.15957 2.04474L6.30314 4.14251L6.29156 3.29501L6.27998 2.44752H4.91319H3.54639V4.85678V7.26605L2.76865 8.15448C2.34086 8.6431 1.75263 9.31408 1.46139 9.64547L0.931885 10.248H1.78276H2.63363L6.19937 6.20921C8.16051 3.98786 9.82375 2.10162 9.89538 2.01757L10.0257 1.86476L13.6756 6.04544L17.3256 10.2261L18.1722 10.238L19.0189 10.2498L14.568 5.15452C12.12 2.35207 10.0943 0.0339125 10.0665 0.00306098C10.0265 -0.0412881 9.62868 0.384629 8.15957 2.04474ZM6.69238 7.42754L3.41817 11.1367V12.4672C3.41817 13.3279 3.4333 13.7977 3.46104 13.7977C3.48463 13.7977 3.78758 13.7171 4.1342 13.6186C4.48087 13.5201 4.94721 13.4014 5.17053 13.3548C5.89801 13.203 7.03614 13.1991 7.95933 13.3453L8.11961 13.3707V12.5763V11.7818H10.0002H11.8808V13.1816C11.8808 14.2534 11.8933 14.5896 11.9342 14.6166C11.9636 14.6359 12.1065 14.7037 12.2518 14.7672C12.8563 15.0313 13.4621 15.5654 13.6907 16.0359C13.7522 16.1622 13.8245 16.3808 13.8515 16.5217C13.8816 16.6783 13.9225 16.7777 13.9568 16.7777C13.9876 16.7777 14.1919 16.7162 14.4107 16.6411C14.8874 16.4774 15.467 16.1806 16.0479 15.8026L16.4753 15.5246L16.4864 13.3235L16.4975 11.1225L13.2653 7.42048C11.4876 5.38433 10.0181 3.71839 9.99984 3.71839C9.98159 3.71839 8.4932 5.38748 6.69238 7.42754Z" fill="#92B4DD"/>
</svg>
