<svg width="20" height="18" viewBox="0 0 20 18" fill="none" xmlns="http://www.w3.org/2000/svg">
<path opacity="0.4" fill-rule="evenodd" clip-rule="evenodd" d="M7.10885 0.860664C6.82865 0.951353 6.6261 1.08367 6.40576 1.31992C6.06275 1.68771 5.94895 2.05848 5.94782 2.81184L5.94717 3.26683H3.73899C1.63064 3.26683 1.52086 3.27032 1.31063 3.3442C0.842627 3.50869 0.467905 3.86375 0.281222 4.31955C0.2006 4.51646 0.196418 4.58965 0.184143 6.01616C0.175043 7.07411 0.184801 7.56884 0.217755 7.71997C0.352898 8.34024 0.876587 8.86606 1.48624 8.99361C1.62739 9.02315 2.74292 9.03655 5.05843 9.03655H8.42544V8.82234C8.42544 8.7045 8.44971 8.54996 8.47941 8.4789C8.58776 8.21958 8.56387 8.22337 10.0905 8.22337C11.6172 8.22337 11.5933 8.21958 11.7016 8.4789C11.7313 8.54996 11.7556 8.7045 11.7556 8.82234V9.03655H15.1226C17.4381 9.03655 18.5537 9.02315 18.6948 8.99361C19.1452 8.8994 19.6101 8.53985 19.8218 8.12207C19.993 7.78437 20.0098 7.57883 19.9965 5.9968C19.9846 4.58988 19.9803 4.51631 19.8998 4.31955C19.7739 4.01198 19.524 3.70645 19.2574 3.53414C18.8361 3.26191 18.8882 3.26683 16.434 3.26683H14.2339L14.2332 2.81184C14.2324 2.28063 14.1635 1.90932 14.0151 1.63659C13.8659 1.36247 13.4772 1.01041 13.2006 0.898806L12.9754 0.807923L10.1486 0.79983C7.53047 0.792318 7.30611 0.79681 7.10885 0.860664ZM12.5688 2.84088V3.26683H10.0905H7.61225V2.84088V2.41493H10.0905H12.5688V2.84088Z" fill="#92B4DD"/>
<path fill-rule="evenodd" clip-rule="evenodd" d="M0.421866 9.32473C0.163197 9.43908 0.173962 9.28256 0.185927 12.7445C0.196654 15.8555 0.197118 15.8722 0.281031 16.077C0.467947 16.5329 0.842553 16.8878 1.31052 17.0523C1.5281 17.1288 1.63219 17.1297 10.0824 17.1297C19.5835 17.1297 18.8088 17.1523 19.2573 16.8624C19.5238 16.6901 19.7736 16.3847 19.8998 16.077C19.9837 15.8722 19.9842 15.8555 19.9949 12.7445C20.0069 9.26312 20.0195 9.43637 19.7464 9.32226C19.5873 9.25581 19.5159 9.27261 19.229 9.44392C18.7916 9.70519 18.9582 9.69489 15.1754 9.69489H11.7555V10.3351C11.7555 11.0542 11.7213 11.1995 11.5281 11.2993C11.3529 11.3899 8.82789 11.3899 8.6527 11.2993C8.45955 11.1995 8.42532 11.0542 8.42532 10.3351V9.69489H5.00539C1.2201 9.69489 1.38696 9.70526 0.95179 9.44253C0.682859 9.28012 0.576332 9.25646 0.421866 9.32473Z" fill="#92B4DD"/>
</svg>
