<svg width="17" height="20" viewBox="0 0 17 20" fill="none" xmlns="http://www.w3.org/2000/svg">
<path fill-rule="evenodd" clip-rule="evenodd" d="M2.19616 7.23503C1.55263 7.45593 1.0982 7.93208 0.933214 8.5583C0.876969 8.77178 0.868578 9.42013 0.868578 13.5494C0.868578 18.8582 0.857785 18.6522 1.1595 19.112C1.43563 19.5329 1.8231 19.8177 2.27935 19.9352C2.50075 19.9922 3.24108 19.9999 8.50006 19.9999C14.9287 19.9999 14.6914 20.0074 15.1251 19.7887C15.3673 19.6666 15.6546 19.3947 15.8404 19.112C16.1423 18.6525 16.1315 18.859 16.1315 13.5494C16.1315 8.37104 16.1401 8.56322 15.8908 8.11037C15.7229 7.80535 15.4011 7.51229 15.0407 7.33617L14.7235 7.18117L8.5655 7.17184C2.80841 7.16308 2.39378 7.16721 2.19616 7.23503ZM9.18462 10.6702C10.1998 11.1394 10.4276 12.4718 9.62788 13.2625L9.40248 13.4854L9.75095 14.9397C9.94262 15.7395 10.1001 16.4161 10.1009 16.4431C10.1016 16.4701 10.0724 16.5217 10.036 16.5578C9.97829 16.6148 9.77992 16.6232 8.50006 16.6232C7.22021 16.6232 7.02183 16.6148 6.96411 16.5578C6.92768 16.5217 6.8985 16.4701 6.89926 16.4431C6.90002 16.4161 7.05872 15.7374 7.25191 14.9349L7.60313 13.4759L7.39986 13.2971C7.03195 12.9733 6.82738 12.4057 6.89876 11.9065C6.98329 11.3151 7.36466 10.8453 7.94807 10.6139C8.24978 10.4942 8.86439 10.5222 9.18462 10.6702Z" fill="#92B4DD"/>
<path opacity="0.4" fill-rule="evenodd" clip-rule="evenodd" d="M7.54068 0.0547177C5.81078 0.32118 4.31762 1.57516 3.74556 3.24197C3.54579 3.82404 3.5 4.19431 3.5 5.22756V6.16005H4.61272H5.72548L5.74517 5.23252C5.76056 4.50904 5.78101 4.25454 5.83814 4.07571C6.11625 3.20537 6.81906 2.52679 7.67413 2.30314C7.97213 2.22519 8.64101 2.22519 8.93901 2.30314C9.79408 2.52679 10.4969 3.20537 10.775 4.07571C10.8321 4.25454 10.8526 4.50904 10.868 5.23252L10.8877 6.16005H12.0004H13.1131V5.22756C13.1131 4.17692 13.0653 3.8027 12.8561 3.21608C12.6892 2.74815 12.5718 2.51624 12.2819 2.08257C11.8647 1.45852 11.1316 0.82334 10.4247 0.473462C9.60093 0.0657231 8.50368 -0.0935624 7.54068 0.0547177Z" fill="#92B4DD"/>
</svg>
