<svg width="24" height="21" viewBox="0 0 24 21" fill="none" xmlns="http://www.w3.org/2000/svg">
<path fill-rule="evenodd" clip-rule="evenodd" d="M7.5303 10.4485C6.31512 10.6503 5.22674 11.5623 4.56897 12.9298L4.39847 13.2843L5.35312 15.6975C5.87815 17.0248 6.34736 18.2024 6.39577 18.3143L6.48378 18.5179L9.6586 18.5004C13.1388 18.4813 13.0353 18.4894 13.6828 18.1875C14.1585 17.9657 23.0642 12.8505 23.2093 12.7157C23.3752 12.5615 23.5198 12.2611 23.5198 12.0705C23.5198 11.8518 23.3561 11.5404 23.1871 11.4376C23.1038 11.387 22.8637 11.2966 22.6535 11.2369C22.3236 11.143 22.168 11.1286 21.5163 11.1311C20.8415 11.1337 20.7183 11.1471 20.3568 11.2575C20.1343 11.3254 19.7733 11.4649 19.5545 11.5674C19.3358 11.6699 18.3711 12.1076 17.4108 12.5401C16.4505 12.9725 15.3996 13.4579 15.0755 13.6186L14.4863 13.9109L12.772 13.9244L11.0578 13.9379L10.8994 13.7795C10.6044 13.4845 10.6404 13.0832 10.9846 12.8294C11.1115 12.7358 11.1912 12.7301 12.6834 12.7076C13.8342 12.6902 14.2772 12.6679 14.3551 12.6234C14.4977 12.542 14.6382 12.2544 14.6765 11.9658C14.7211 11.6299 14.6026 11.2483 14.3979 11.0686C14.241 10.9309 14.2334 10.9295 13.4894 10.8986C13.0767 10.8815 12.1525 10.8674 11.4356 10.8673C10.0039 10.8672 10.2192 10.8964 8.79871 10.5094C8.37646 10.3944 7.97266 10.375 7.5303 10.4485ZM1.69668 13.3189C0.994168 13.7096 0.616745 13.9455 0.626655 13.9875C0.640434 14.046 3.37361 20.9748 3.39277 20.9999C3.40339 21.0137 5.55547 19.8359 5.60318 19.79C5.64447 19.7504 2.88463 12.7396 2.82182 12.7246C2.79997 12.7194 2.29363 12.9868 1.69668 13.3189Z" fill="#92B4DD"/>
<circle opacity="0.4" cx="12.6599" cy="4.46814" r="3.68079" fill="#92B4DD"/>
<path opacity="0.4" fill-rule="evenodd" clip-rule="evenodd" d="M16.1969 7.73304C16.9892 6.87508 17.4733 5.72818 17.4733 4.46822C17.4733 3.2082 16.9892 2.06127 16.1968 1.2033C16.7056 0.93759 17.2843 0.787354 17.8981 0.787354C19.931 0.787354 21.5789 2.4353 21.5789 4.46814C21.5789 6.50099 19.931 8.14893 17.8981 8.14893C17.2844 8.14893 16.7057 7.99871 16.1969 7.73304Z" fill="#92B4DD"/>
</svg>
