<svg width="24" height="24" viewBox="0 0 24 24" fill="none" xmlns="http://www.w3.org/2000/svg">
<path fill-rule="evenodd" clip-rule="evenodd" d="M7.6543 5.5848L4.03125 6.19254V13.5104V20.8282H3.01562H2V21.4142V22.0001H12H22V21.4142V20.8282H20.9844H19.9688V14.2657V7.70324H16.2773H12.5859V14.2657V20.8282H12H11.4141V12.8986C11.4141 5.37098 11.4106 4.96906 11.3457 4.97293C11.3081 4.97519 9.64699 5.25051 7.6543 5.5848ZM9.77344 7.1173V7.70324H9.14844H8.52344V7.1173V6.53136H9.14844H9.77344V7.1173ZM6.91316 9.97863L6.92395 10.5548H6.29793H5.67188V9.96789V9.38094L6.28711 9.39172L6.90234 9.40246L6.91316 9.97863ZM9.76473 9.97863L9.77551 10.5548H9.14949H8.52344V9.96789V9.38094L9.13867 9.39172L9.75391 9.40246L9.76473 9.97863ZM15.4766 9.96886V10.5548H14.8516H14.2266V9.99492C14.2266 9.68695 14.2383 9.42328 14.2526 9.40898C14.2669 9.39465 14.5482 9.38293 14.8776 9.38293H15.4766V9.96886ZM18.3281 9.96886V10.5548H17.7031H17.0781V9.99492C17.0781 9.68695 17.0898 9.42328 17.1042 9.40898C17.1185 9.39465 17.3997 9.38293 17.7292 9.38293H18.3281V9.96886ZM6.91316 12.8497L6.90234 13.4259L6.28711 13.4366L5.67188 13.4474V12.8605V12.2736H6.29793H6.92395L6.91316 12.8497ZM9.76473 12.8497L9.75391 13.4259L9.13867 13.4366L8.52344 13.4474V12.8605V12.2736H9.14949H9.77551L9.76473 12.8497ZM15.4766 12.8605V13.4474L14.8613 13.4366L14.2461 13.4259L14.2353 12.8497L14.2245 12.2736H14.8505H15.4766V12.8605ZM18.3281 12.8605V13.4474L17.7129 13.4366L17.0977 13.4259L17.0868 12.8497L17.0761 12.2736H17.7021H18.3281V12.8605ZM6.91316 15.7013L6.90234 16.2775L6.28711 16.2882L5.67188 16.299V15.712V15.1251H6.29793H6.92395L6.91316 15.7013ZM9.77344 15.7111V16.297H9.14844H8.52344V15.7111V15.1251H9.14844H9.77344V15.7111ZM15.4766 15.7111V16.297H14.8516H14.2266V15.7111V15.1251H14.8516H15.4766V15.7111ZM18.3281 15.712V16.299L17.7129 16.2882L17.0977 16.2775L17.0868 15.7013L17.0761 15.1251H17.7021H18.3281V15.712ZM9.73438 19.4025V20.8282H9.14844H8.5625V19.9884V19.1486H7.72266H6.88281V19.9884V20.8282H6.29688H5.71094V19.4025V17.9767H7.72266H9.73438V19.4025ZM15.4766 18.5626V19.1486H14.8516H14.2266V18.5626V17.9767H14.8516H15.4766V18.5626ZM18.3281 18.5626V19.1486H17.7031H17.0781V18.5626V17.9767H17.7031H18.3281V18.5626Z" fill="#92B4DD"/>
<path opacity="0.4" d="M5 2V5L10 4V2H5Z" fill="#92B4DD"/>
</svg>
